<svg width="373" height="112" viewBox="0 0 373 112" fill="none" xmlns="http://www.w3.org/2000/svg">
<g filter="url(#filter0_d_2588_2640)">
<g clip-path="url(#clip0_2588_2640)">
<rect x="6" y="6" width="361" height="100" rx="12" fill="url(#paint0_linear_2588_2640)"/>
<path d="M32.762 60.797V58.156C32.762 57.453 33.351 57.13 33.978 57.13C34.605 57.13 35.194 57.453 35.194 58.156V60.797C35.194 62.317 35.498 63.324 36.296 64.312C36.885 65.053 37.512 65.737 37.949 66.212C38.367 66.668 38.234 67.371 37.835 67.732C37.417 68.112 36.733 68.15 36.315 67.713C36.011 67.39 35.479 66.801 35.023 66.25C34.244 65.319 34.073 64.901 33.997 64.521H33.978C33.902 64.958 33.731 65.395 32.933 66.345C32.477 66.896 31.945 67.485 31.394 68.074C30.976 68.511 30.254 68.435 29.874 68.055C29.437 67.637 29.323 66.953 29.76 66.478C30.444 65.737 31.071 65.053 31.66 64.312C32.458 63.324 32.762 62.317 32.762 60.797ZM40.951 57.263V61.842H42.471V57.073C42.471 56.427 43.022 56.123 43.592 56.123C44.162 56.123 44.713 56.427 44.713 57.073V71.779C44.713 72.425 44.162 72.729 43.592 72.729C43.022 72.729 42.471 72.425 42.471 71.779V63.894H40.951V70.981C40.951 71.627 40.4 71.931 39.83 71.931C39.279 71.931 38.728 71.627 38.728 70.981V57.263C38.728 56.617 39.279 56.313 39.83 56.313C40.4 56.313 40.951 56.617 40.951 57.263ZM62.12 71.171H47.756C47.167 71.171 46.901 70.696 46.901 70.145C46.901 69.594 47.167 69.119 47.756 69.119H53.722V66.554H50.625C49.409 66.554 49.01 66.174 49.01 64.977V62.412C49.01 61.215 49.409 60.835 50.625 60.835H57.997C58.32 60.835 58.434 60.721 58.434 60.398V59.6C58.434 59.277 58.32 59.163 57.997 59.163H49.827C49.238 59.163 48.972 58.688 48.972 58.137C48.972 57.586 49.238 57.111 49.827 57.111H59.213C60.429 57.111 60.828 57.491 60.828 58.688V61.234C60.828 62.431 60.429 62.811 59.213 62.811H51.841C51.518 62.811 51.404 62.925 51.404 63.248V64.065C51.404 64.388 51.518 64.502 51.841 64.502H60.353C60.942 64.502 61.208 64.977 61.208 65.528C61.208 66.079 60.942 66.554 60.353 66.554H56.154V69.119H62.12C62.709 69.119 62.975 69.594 62.975 70.145C62.975 70.696 62.709 71.171 62.12 71.171ZM66.2839 60.113C66.2839 57.7 68.5259 56.56 72.2309 56.56C75.9359 56.56 78.1779 57.7 78.1779 60.113C78.1779 62.526 75.9359 63.666 72.2309 63.666C68.5259 63.666 66.2839 62.526 66.2839 60.113ZM75.7649 60.113C75.7649 59.163 74.7579 58.555 72.2309 58.555C69.7039 58.555 68.6969 59.163 68.6969 60.113C68.6969 61.063 69.7039 61.671 72.2309 61.671C74.7579 61.671 75.7649 61.063 75.7649 60.113ZM71.2809 66.877H65.0489C64.4599 66.877 64.1939 66.402 64.1939 65.87C64.1939 65.319 64.4599 64.844 65.0489 64.844H79.4129C80.0019 64.844 80.2679 65.319 80.2679 65.87C80.2679 66.402 80.0019 66.877 79.4129 66.877H73.6939V69.119C73.6939 69.765 73.1619 70.05 72.4779 70.05C71.8129 70.05 71.2809 69.765 71.2809 69.119V66.877ZM69.1339 71.627H77.6649C78.2539 71.627 78.5199 72.102 78.5199 72.653C78.5199 73.204 78.2539 73.679 77.6649 73.679H67.8609C66.6449 73.679 66.2459 73.299 66.2459 72.102V69.157C66.2459 68.454 66.8349 68.131 67.4809 68.131C68.1079 68.131 68.6969 68.454 68.6969 69.157V71.19C68.6969 71.513 68.8109 71.627 69.1339 71.627ZM100.221 57.51V62.146C100.221 63.343 99.8219 63.723 98.6059 63.723H89.9419C88.7259 63.723 88.3269 63.343 88.3269 62.146V57.51C88.3269 56.845 88.9159 56.522 89.5049 56.522C90.1129 56.522 90.7019 56.845 90.7019 57.51V58.555H97.8459V57.51C97.8459 56.845 98.4349 56.522 99.0239 56.522C99.6319 56.522 100.221 56.845 100.221 57.51ZM90.9869 61.747H97.5609C97.7509 61.747 97.8459 61.652 97.8459 61.462V60.531H90.7019V61.462C90.7019 61.652 90.7969 61.747 90.9869 61.747ZM93.3239 67.105H87.0919C86.5029 67.105 86.2369 66.63 86.2369 66.098C86.2369 65.547 86.5029 65.072 87.0919 65.072H101.456C102.045 65.072 102.311 65.547 102.311 66.098C102.311 66.63 102.045 67.105 101.456 67.105H95.7369V69.157C95.7369 69.803 95.2049 70.088 94.5209 70.088C93.8559 70.088 93.3239 69.803 93.3239 69.157V67.105ZM91.1769 71.627H99.7079C100.297 71.627 100.563 72.102 100.563 72.653C100.563 73.204 100.297 73.679 99.7079 73.679H89.9039C88.6879 73.679 88.2889 73.299 88.2889 72.102V69.309C88.2889 68.606 88.8779 68.283 89.5239 68.283C90.1509 68.283 90.7399 68.606 90.7399 69.309V71.19C90.7399 71.513 90.8539 71.627 91.1769 71.627ZM109.8 59.334H105.354C104.765 59.334 104.499 58.859 104.499 58.308C104.499 57.757 104.765 57.282 105.354 57.282H111.016C112.232 57.282 112.631 57.662 112.631 58.859V62.393C112.631 63.59 112.232 63.97 111.016 63.97H107.349C107.026 63.97 106.912 64.084 106.912 64.407V66.288C106.912 66.611 107.026 66.725 107.349 66.725C109.724 66.725 111.681 66.611 113.524 66.364C114.113 66.288 114.455 66.706 114.512 67.238C114.569 67.808 114.379 68.321 113.828 68.397C112.27 68.606 110.085 68.777 106.133 68.777C104.917 68.777 104.518 68.397 104.518 67.2V63.571C104.518 62.374 104.917 61.994 106.133 61.994H109.8C110.123 61.994 110.237 61.88 110.237 61.557V59.771C110.237 59.448 110.123 59.334 109.8 59.334ZM118.084 57.149V71.703C118.084 72.406 117.495 72.729 116.849 72.729C116.222 72.729 115.633 72.406 115.633 71.703V57.149C115.633 56.446 116.222 56.123 116.849 56.123C117.495 56.123 118.084 56.446 118.084 57.149ZM131.786 60.835C132.964 61.462 134.085 61.994 135.111 62.469C135.643 62.716 135.662 63.419 135.434 63.894C135.187 64.407 134.598 64.673 134.066 64.426C132.812 63.856 131.691 63.305 130.646 62.735C129.449 62.089 128.974 61.538 128.879 61.12H128.86C128.746 61.614 128.271 62.146 127.074 62.792C126.029 63.362 124.908 63.913 123.654 64.483C123.122 64.73 122.552 64.445 122.286 63.932C122.039 63.438 122.077 62.716 122.609 62.469C123.635 61.994 124.756 61.462 125.934 60.835C127.055 60.227 127.625 59.41 127.625 58.327V57.605C127.625 56.883 128.214 56.56 128.86 56.56C129.506 56.56 130.095 56.883 130.095 57.605V58.327C130.095 59.41 130.665 60.227 131.786 60.835ZM127.644 68.074H121.678C121.089 68.074 120.823 67.599 120.823 67.048C120.823 66.497 121.089 66.022 121.678 66.022H136.042C136.631 66.022 136.897 66.497 136.897 67.048C136.897 67.599 136.631 68.074 136.042 68.074H130.076V73.033C130.076 73.736 129.487 74.059 128.86 74.059C128.233 74.059 127.644 73.736 127.644 73.033V68.074ZM150.371 71.703V63.894H146.514C145.811 65.395 144.177 66.63 140.453 68.929C139.921 69.252 139.275 68.967 138.971 68.511C138.667 68.055 138.61 67.333 139.161 66.991C144.329 63.837 144.576 63.324 144.576 61.006V59.942C144.576 59.619 144.462 59.505 144.139 59.505H139.769C139.18 59.505 138.914 59.03 138.914 58.479C138.914 57.909 139.18 57.434 139.769 57.434H145.374C146.59 57.434 146.989 57.814 146.989 59.011V61.082C146.989 61.348 146.97 61.614 146.97 61.842H150.371V57.149C150.371 56.446 150.96 56.123 151.587 56.123C152.195 56.123 152.784 56.446 152.784 57.149V71.703C152.784 72.406 152.195 72.729 151.587 72.729C150.96 72.729 150.371 72.406 150.371 71.703ZM169.564 58.954V66.782C169.564 67.979 169.165 68.359 167.949 68.359H162.686C161.47 68.359 161.071 67.979 161.071 66.782V58.954C161.071 57.757 161.47 57.377 162.686 57.377H167.949C169.165 57.377 169.564 57.757 169.564 58.954ZM167.151 65.87V59.866C167.151 59.543 167.037 59.429 166.714 59.429H163.921C163.598 59.429 163.484 59.543 163.484 59.866V65.87C163.484 66.193 163.598 66.307 163.921 66.307H166.714C167.037 66.307 167.151 66.193 167.151 65.87ZM174.713 57.149V71.703C174.713 72.406 174.124 72.729 173.478 72.729C172.851 72.729 172.262 72.406 172.262 71.703V57.149C172.262 56.446 172.851 56.123 173.478 56.123C174.124 56.123 174.713 56.446 174.713 57.149ZM184.045 57.947V60.075C184.045 61.253 184.292 62.051 185.147 62.811C185.964 63.533 186.686 64.122 187.237 64.54C187.788 64.958 187.712 65.566 187.37 66.022C187.066 66.44 186.42 66.725 185.888 66.326C185.413 65.965 184.71 65.395 183.988 64.768C183.114 63.989 182.962 63.742 182.848 63.343H182.829C182.734 63.761 182.601 64.084 181.632 64.92C180.891 65.566 180.207 66.117 179.466 66.668C178.915 67.086 178.269 66.782 177.965 66.364C177.642 65.927 177.528 65.262 178.117 64.825C178.934 64.217 179.656 63.628 180.473 62.906C181.328 62.146 181.575 61.348 181.575 60.17V57.947C181.575 57.225 182.164 56.902 182.81 56.902C183.456 56.902 184.045 57.225 184.045 57.947ZM189.726 61.386V60.341H187.465C186.895 60.341 186.667 59.885 186.667 59.334C186.667 58.764 186.895 58.308 187.465 58.308H189.726V57.149C189.726 56.446 190.315 56.123 190.923 56.123C191.531 56.123 192.12 56.446 192.12 57.149V68.055C192.12 68.758 191.531 69.081 190.923 69.081C190.315 69.081 189.726 68.758 189.726 68.055V63.419H187.465C186.895 63.419 186.667 62.963 186.667 62.412C186.667 61.842 186.895 61.386 187.465 61.386H189.726ZM191.683 73.603H182.221C181.005 73.603 180.606 73.223 180.606 72.026V68.549C180.606 67.846 181.195 67.523 181.841 67.523C182.468 67.523 183.057 67.846 183.057 68.549V71.095C183.057 71.418 183.171 71.532 183.494 71.532H191.683C192.272 71.532 192.538 72.007 192.538 72.577C192.538 73.128 192.272 73.603 191.683 73.603ZM196.835 59.448C196.835 57.225 199.077 56.294 202.782 56.294C206.487 56.294 208.729 57.225 208.729 59.448C208.729 61.671 206.487 62.602 202.782 62.602C199.077 62.602 196.835 61.671 196.835 59.448ZM206.316 59.448C206.316 58.669 205.309 58.194 202.782 58.194C200.255 58.194 199.248 58.669 199.248 59.448C199.248 60.227 200.255 60.702 202.782 60.702C205.309 60.702 206.316 60.227 206.316 59.448ZM209.983 65.471H195.581C195.011 65.471 194.745 65.034 194.745 64.464C194.745 63.932 195.011 63.495 195.581 63.495H209.983C210.553 63.495 210.819 63.932 210.819 64.464C210.819 65.034 210.553 65.471 209.983 65.471ZM197.519 66.611H207.133C208.349 66.611 208.748 66.991 208.748 68.188V69.575C208.748 70.772 208.349 71.152 207.133 71.152H199.419C199.229 71.152 199.134 71.247 199.134 71.437V71.779C199.134 71.969 199.229 72.064 199.419 72.064H208.349C208.881 72.064 209.128 72.52 209.128 72.995C209.128 73.489 208.881 73.926 208.349 73.926H198.393C197.177 73.926 196.778 73.546 196.778 72.349V70.943C196.778 69.746 197.177 69.366 198.393 69.366H206.107C206.297 69.366 206.392 69.271 206.392 69.081V68.758C206.392 68.568 206.297 68.473 206.107 68.473H197.519C196.987 68.473 196.74 68.036 196.74 67.542C196.74 67.067 196.987 66.611 197.519 66.611ZM220.854 60.17H217.909C217.32 60.17 217.054 59.695 217.054 59.144C217.054 58.593 217.32 58.118 217.909 58.118H220.854V56.959C220.854 56.256 221.443 55.933 222.07 55.933C222.697 55.933 223.286 56.256 223.286 56.959V58.118H226.041C226.63 58.118 226.896 58.593 226.896 59.144C226.896 59.695 226.63 60.17 226.041 60.17H223.286V60.607C223.286 61.557 223.609 62.146 224.35 62.678C225.243 63.305 226.003 63.799 226.459 64.084C226.991 64.407 227.048 65.072 226.744 65.547C226.478 65.946 225.87 66.269 225.262 65.889C224.749 65.566 224.084 65.129 223.476 64.711C222.526 64.046 222.203 63.685 222.108 63.362H222.089C221.994 63.78 221.614 64.179 220.664 64.844C219.904 65.357 219.258 65.794 218.479 66.269C217.928 66.611 217.32 66.269 217.073 65.851C216.788 65.376 216.75 64.73 217.339 64.369C218.137 63.875 218.897 63.381 219.79 62.754C220.531 62.222 220.854 61.633 220.854 60.683V60.17ZM230.525 60.208H232.311C232.919 60.208 233.185 60.683 233.185 61.253C233.185 61.842 232.919 62.317 232.311 62.317H230.525V65.49C230.525 66.193 229.936 66.516 229.309 66.516C228.682 66.516 228.093 66.193 228.093 65.49V57.149C228.093 56.446 228.682 56.123 229.309 56.123C229.936 56.123 230.525 56.446 230.525 57.149V60.208ZM230.031 69.29H226.117V69.366C226.117 69.936 226.611 70.335 227.523 70.696C228.701 71.171 229.537 71.475 230.62 71.817C231.133 71.988 231.304 72.558 231.114 73.052C230.924 73.527 230.506 73.869 229.898 73.679C228.891 73.356 227.979 73.033 226.991 72.634C225.471 72.026 225.034 71.513 224.92 71.171H224.901C224.806 71.551 224.331 72.083 222.811 72.691C221.823 73.09 220.911 73.413 219.904 73.736C219.296 73.926 218.878 73.584 218.688 73.09C218.498 72.577 218.65 71.988 219.182 71.817C220.265 71.475 221.101 71.171 222.279 70.696C223.191 70.335 223.685 69.936 223.685 69.366V69.29H219.771C219.201 69.29 218.935 68.834 218.935 68.302C218.935 67.751 219.201 67.295 219.771 67.295H230.031C230.601 67.295 230.867 67.751 230.867 68.302C230.867 68.834 230.601 69.29 230.031 69.29ZM234.271 62.868C234.271 59.125 235.81 57.111 238.831 57.111C241.852 57.111 243.391 59.125 243.391 62.868C243.391 66.611 241.852 68.625 238.831 68.625C235.81 68.625 234.271 66.611 234.271 62.868ZM241.054 62.868C241.054 60.474 240.465 59.22 238.831 59.22C237.197 59.22 236.608 60.474 236.608 62.868C236.608 65.262 237.197 66.516 238.831 66.516C240.465 66.516 241.054 65.262 241.054 62.868ZM247.818 61.728H249.604C250.212 61.728 250.478 62.203 250.478 62.773C250.478 63.362 250.212 63.837 249.604 63.837H247.818V71.703C247.818 72.406 247.229 72.729 246.602 72.729C245.975 72.729 245.386 72.406 245.386 71.703V57.149C245.386 56.446 245.975 56.123 246.602 56.123C247.229 56.123 247.818 56.446 247.818 57.149V61.728ZM258.024 58.061V60.797C258.024 62.279 258.385 63.248 259.43 64.407C260.114 65.148 260.855 65.889 261.425 66.402C261.9 66.82 261.729 67.523 261.349 67.922C260.988 68.283 260.304 68.454 259.867 68.036C259.373 67.58 258.746 66.953 258.138 66.307C257.131 65.243 256.884 64.825 256.808 64.464H256.789C256.694 64.901 256.447 65.3 255.44 66.364C254.832 67.01 254.205 67.637 253.445 68.34C252.97 68.777 252.267 68.511 251.925 68.131C251.545 67.694 251.488 67.048 251.944 66.611C252.723 65.889 253.464 65.148 254.148 64.407C255.193 63.248 255.554 62.279 255.554 60.797V58.061C255.554 57.339 256.143 57.016 256.789 57.016C257.435 57.016 258.024 57.339 258.024 58.061ZM263.629 63.172H261.254C260.665 63.172 260.399 62.697 260.399 62.146C260.399 61.576 260.665 61.101 261.254 61.101H263.629V57.149C263.629 56.446 264.218 56.123 264.845 56.123C265.453 56.123 266.042 56.446 266.042 57.149V71.703C266.042 72.406 265.453 72.729 264.845 72.729C264.218 72.729 263.629 72.406 263.629 71.703V63.172Z" fill="#2F2F2E"/>
<path d="M38.216 40.408C38.216 40.784 38.14 41.044 37.988 41.188C37.844 41.332 37.58 41.404 37.196 41.404H31.724C31.34 41.404 31.072 41.332 30.92 41.188C30.776 41.044 30.704 40.784 30.704 40.408V37.48C30.704 37.272 30.78 37.116 30.932 37.012C31.092 36.908 31.264 36.856 31.448 36.856C31.64 36.856 31.812 36.908 31.964 37.012C32.124 37.116 32.204 37.272 32.204 37.48V38.14H36.716V37.48C36.716 37.272 36.792 37.116 36.944 37.012C37.104 36.908 37.276 36.856 37.46 36.856C37.652 36.856 37.824 36.908 37.976 37.012C38.136 37.116 38.216 37.272 38.216 37.48V40.408ZM36.536 40.156C36.656 40.156 36.716 40.096 36.716 39.976V39.388H32.204V39.976C32.204 40.096 32.264 40.156 32.384 40.156H36.536ZM29.924 43.54C29.74 43.54 29.604 43.476 29.516 43.348C29.428 43.22 29.384 43.072 29.384 42.904C29.384 42.728 29.428 42.576 29.516 42.448C29.604 42.32 29.74 42.256 29.924 42.256H38.996C39.18 42.256 39.316 42.32 39.404 42.448C39.492 42.576 39.536 42.728 39.536 42.904C39.536 43.072 39.492 43.22 39.404 43.348C39.316 43.476 39.18 43.54 38.996 43.54H35.384V44.836C35.384 45.044 35.308 45.196 35.156 45.292C35.012 45.38 34.832 45.424 34.616 45.424C34.408 45.424 34.228 45.38 34.076 45.292C33.932 45.196 33.86 45.044 33.86 44.836V43.54H29.924ZM37.892 46.396C38.076 46.396 38.212 46.46 38.3 46.588C38.388 46.716 38.432 46.868 38.432 47.044C38.432 47.22 38.388 47.372 38.3 47.5C38.212 47.628 38.076 47.692 37.892 47.692H31.7C31.316 47.692 31.048 47.62 30.896 47.476C30.752 47.332 30.68 47.072 30.68 46.696V44.932C30.68 44.708 30.756 44.544 30.908 44.44C31.068 44.336 31.252 44.284 31.46 44.284C31.66 44.284 31.836 44.336 31.988 44.44C32.148 44.544 32.228 44.708 32.228 44.932V46.12C32.228 46.304 32.32 46.396 32.504 46.396H37.892ZM41.4579 38.632C41.2739 38.632 41.1379 38.568 41.0499 38.44C40.9619 38.312 40.9179 38.16 40.9179 37.984C40.9179 37.808 40.9619 37.656 41.0499 37.528C41.1379 37.4 41.2739 37.336 41.4579 37.336H45.0339C45.4179 37.336 45.6819 37.408 45.8259 37.552C45.9779 37.696 46.0539 37.956 46.0539 38.332V40.564C46.0539 40.94 45.9779 41.2 45.8259 41.344C45.6819 41.488 45.4179 41.56 45.0339 41.56H42.7179C42.5339 41.56 42.4419 41.652 42.4419 41.836V43.024C42.4419 43.208 42.5339 43.3 42.7179 43.3C43.4699 43.3 44.1619 43.284 44.7939 43.252C45.4259 43.212 46.0339 43.152 46.6179 43.072C46.8019 43.048 46.9459 43.092 47.0499 43.204C47.1619 43.316 47.2259 43.456 47.2419 43.624C47.2579 43.808 47.2339 43.972 47.1699 44.116C47.1059 44.252 46.9859 44.332 46.8099 44.356C46.5619 44.388 46.2859 44.42 45.9819 44.452C45.6779 44.476 45.3299 44.5 44.9379 44.524C44.5539 44.548 44.1139 44.568 43.6179 44.584C43.1299 44.592 42.5739 44.596 41.9499 44.596C41.5659 44.596 41.2979 44.524 41.1459 44.38C41.0019 44.236 40.9299 43.976 40.9299 43.6V41.308C40.9299 40.932 41.0019 40.672 41.1459 40.528C41.2979 40.384 41.5659 40.312 41.9499 40.312H44.2659C44.4499 40.312 44.5419 40.22 44.5419 40.036V38.908C44.5419 38.724 44.4499 38.632 44.2659 38.632H41.4579ZM49.4979 46.444C49.4979 46.668 49.4179 46.832 49.2579 46.936C49.1059 47.04 48.9259 47.092 48.7179 47.092C48.5179 47.092 48.3379 47.04 48.1779 46.936C48.0259 46.832 47.9499 46.668 47.9499 46.444V37.252C47.9499 37.028 48.0259 36.864 48.1779 36.76C48.3379 36.656 48.5179 36.604 48.7179 36.604C48.9259 36.604 49.1059 36.656 49.2579 36.76C49.4179 36.864 49.4979 37.028 49.4979 37.252V46.444ZM54.0238 40.336C54.0238 40.456 54.0838 40.516 54.2038 40.516H59.7118C59.8798 40.516 60.0038 40.576 60.0838 40.696C60.1638 40.816 60.2038 40.956 60.2038 41.116C60.2038 41.276 60.1638 41.416 60.0838 41.536C60.0038 41.656 59.8798 41.716 59.7118 41.716H53.5678C53.1838 41.716 52.9158 41.644 52.7638 41.5C52.6198 41.356 52.5478 41.096 52.5478 40.72V37.924C52.5478 37.548 52.6198 37.288 52.7638 37.144C52.9158 37 53.1838 36.928 53.5678 36.928H59.5318C59.6998 36.928 59.8238 36.988 59.9038 37.108C59.9838 37.228 60.0238 37.368 60.0238 37.528C60.0238 37.688 59.9838 37.828 59.9038 37.948C59.8238 38.068 59.6998 38.128 59.5318 38.128H54.2038C54.0838 38.128 54.0238 38.188 54.0238 38.308V38.74H59.4238C59.5838 38.74 59.7038 38.796 59.7838 38.908C59.8638 39.02 59.9038 39.156 59.9038 39.316C59.9038 39.476 59.8638 39.612 59.7838 39.724C59.7038 39.836 59.5838 39.892 59.4238 39.892H54.0238V40.336ZM60.8518 42.376C61.0358 42.376 61.1678 42.436 61.2478 42.556C61.3358 42.676 61.3798 42.824 61.3798 43C61.3798 43.184 61.3358 43.336 61.2478 43.456C61.1678 43.576 61.0358 43.636 60.8518 43.636H51.7558C51.5718 43.636 51.4358 43.576 51.3478 43.456C51.2678 43.336 51.2278 43.184 51.2278 43C51.2278 42.824 51.2678 42.676 51.3478 42.556C51.4358 42.436 51.5718 42.376 51.7558 42.376H60.8518ZM60.0838 47.284C60.0838 47.508 60.0038 47.672 59.8438 47.776C59.6918 47.88 59.5198 47.932 59.3278 47.932C59.1278 47.932 58.9478 47.88 58.7878 47.776C58.6358 47.672 58.5598 47.508 58.5598 47.284V45.832C58.5598 45.648 58.4678 45.556 58.2838 45.556H52.9078C52.7238 45.556 52.5878 45.496 52.4998 45.376C52.4198 45.256 52.3798 45.104 52.3798 44.92C52.3798 44.752 52.4198 44.608 52.4998 44.488C52.5878 44.368 52.7238 44.308 52.9078 44.308H59.0638C59.4478 44.308 59.7118 44.38 59.8558 44.524C60.0078 44.668 60.0838 44.928 60.0838 45.304V47.284ZM63.8656 38.368C63.6816 38.368 63.5456 38.304 63.4576 38.176C63.3696 38.048 63.3256 37.892 63.3256 37.708C63.3256 37.524 63.3696 37.368 63.4576 37.24C63.5456 37.112 63.6816 37.048 63.8656 37.048H69.9616C70.3456 37.048 70.6096 37.12 70.7536 37.264C70.9056 37.408 70.9816 37.668 70.9816 38.044V38.92C70.9816 39.216 70.9656 39.5 70.9336 39.772C70.9016 40.036 70.8536 40.272 70.7896 40.48C70.7256 40.688 70.6016 40.832 70.4176 40.912C70.2416 40.984 70.0496 40.996 69.8416 40.948C69.6496 40.908 69.4976 40.824 69.3856 40.696C69.2816 40.56 69.2536 40.384 69.3016 40.168C69.3976 39.752 69.4456 39.324 69.4456 38.884V38.644C69.4456 38.46 69.3536 38.368 69.1696 38.368H63.8656ZM62.6896 42.82C62.5056 42.82 62.3696 42.756 62.2816 42.628C62.1936 42.5 62.1496 42.348 62.1496 42.172C62.1496 42.004 62.1936 41.856 62.2816 41.728C62.3696 41.6 62.5056 41.536 62.6896 41.536H65.6896V40.192C65.6896 39.976 65.7656 39.816 65.9176 39.712C66.0776 39.608 66.2576 39.556 66.4576 39.556C66.6576 39.556 66.8336 39.608 66.9856 39.712C67.1456 39.816 67.2256 39.976 67.2256 40.192V41.536H71.7616C71.9456 41.536 72.0816 41.6 72.1696 41.728C72.2576 41.856 72.3016 42.004 72.3016 42.172C72.3016 42.348 72.2576 42.5 72.1696 42.628C72.0816 42.756 71.9456 42.82 71.7616 42.82H62.6896ZM63.4456 45.784C63.4456 45.408 63.5296 45.084 63.6976 44.812C63.8736 44.532 64.1256 44.304 64.4536 44.128C64.7816 43.944 65.1776 43.812 65.6416 43.732C66.1056 43.644 66.6336 43.6 67.2256 43.6C67.8096 43.6 68.3336 43.644 68.7976 43.732C69.2696 43.812 69.6696 43.944 69.9976 44.128C70.3256 44.304 70.5736 44.532 70.7416 44.812C70.9176 45.084 71.0056 45.408 71.0056 45.784C71.0056 46.16 70.9176 46.484 70.7416 46.756C70.5736 47.036 70.3256 47.264 69.9976 47.44C69.6696 47.624 69.2696 47.756 68.7976 47.836C68.3336 47.924 67.8096 47.968 67.2256 47.968C66.6336 47.968 66.1056 47.924 65.6416 47.836C65.1776 47.756 64.7816 47.624 64.4536 47.44C64.1256 47.264 63.8736 47.036 63.6976 46.756C63.5296 46.484 63.4456 46.16 63.4456 45.784ZM69.4816 45.784C69.4816 45.48 69.3056 45.244 68.9536 45.076C68.6096 44.9 68.0336 44.812 67.2256 44.812C66.4176 44.812 65.8376 44.9 65.4856 45.076C65.1416 45.244 64.9696 45.48 64.9696 45.784C64.9696 46.088 65.1416 46.324 65.4856 46.492C65.8376 46.668 66.4176 46.756 67.2256 46.756C68.0336 46.756 68.6096 46.668 68.9536 46.492C69.3056 46.324 69.4816 46.088 69.4816 45.784ZM74.8715 42.688C74.8715 42.872 74.9635 42.964 75.1475 42.964C75.5475 42.964 75.9795 42.952 76.4435 42.928C76.9075 42.904 77.3315 42.864 77.7155 42.808C77.8995 42.784 78.0435 42.828 78.1475 42.94C78.2515 43.044 78.3115 43.188 78.3275 43.372C78.3435 43.556 78.3195 43.716 78.2555 43.852C78.1915 43.988 78.0715 44.072 77.8955 44.104C77.6395 44.144 77.2195 44.184 76.6355 44.224C76.0515 44.256 75.2915 44.272 74.3555 44.272C73.9715 44.272 73.7035 44.2 73.5515 44.056C73.4075 43.912 73.3355 43.652 73.3355 43.276V38.476C73.3355 38.1 73.4075 37.84 73.5515 37.696C73.7035 37.552 73.9715 37.48 74.3555 37.48H77.3915C77.5755 37.48 77.7115 37.544 77.7995 37.672C77.8875 37.8 77.9315 37.956 77.9315 38.14C77.9315 38.316 77.8875 38.468 77.7995 38.596C77.7115 38.724 77.5755 38.788 77.3915 38.788H75.1475C74.9635 38.788 74.8715 38.88 74.8715 39.064V42.688ZM80.2355 40.216H81.1955V37.204C81.1955 36.996 81.2675 36.844 81.4115 36.748C81.5555 36.652 81.7195 36.604 81.9035 36.604C82.0875 36.604 82.2515 36.652 82.3955 36.748C82.5395 36.844 82.6115 36.996 82.6115 37.204V46.492C82.6115 46.7 82.5395 46.852 82.3955 46.948C82.2515 47.044 82.0875 47.092 81.9035 47.092C81.7195 47.092 81.5555 47.044 81.4115 46.948C81.2675 46.852 81.1955 46.7 81.1955 46.492V41.512H80.2355V45.988C80.2355 46.196 80.1635 46.348 80.0195 46.444C79.8755 46.54 79.7115 46.588 79.5275 46.588C79.3515 46.588 79.1915 46.54 79.0475 46.444C78.9035 46.348 78.8315 46.196 78.8315 45.988V37.324C78.8315 37.116 78.9035 36.964 79.0475 36.868C79.1915 36.772 79.3515 36.724 79.5275 36.724C79.7115 36.724 79.8755 36.772 80.0195 36.868C80.1635 36.964 80.2355 37.116 80.2355 37.324V40.216ZM93.5214 37.456C93.7134 37.568 93.8374 37.712 93.8934 37.888C93.9494 38.064 93.9094 38.252 93.7734 38.452L91.6014 41.608L93.8334 44.872C93.9694 45.064 94.0174 45.256 93.9774 45.448C93.9374 45.632 93.8174 45.784 93.6174 45.904C93.4414 46.008 93.2534 46.044 93.0534 46.012C92.8534 45.988 92.6934 45.884 92.5734 45.7L90.5934 42.652L88.6014 45.676C88.4894 45.852 88.3334 45.96 88.1334 46C87.9414 46.048 87.7574 46.02 87.5814 45.916C87.3974 45.804 87.2774 45.66 87.2214 45.484C87.1734 45.3 87.2134 45.116 87.3414 44.932L89.6814 41.584L87.5574 38.5C87.4214 38.308 87.3854 38.116 87.4494 37.924C87.5214 37.724 87.6614 37.568 87.8694 37.456C88.0614 37.352 88.2574 37.324 88.4574 37.372C88.6574 37.412 88.8174 37.528 88.9374 37.72L90.7134 40.552L92.5254 37.708C92.6454 37.524 92.7934 37.412 92.9694 37.372C93.1534 37.324 93.3374 37.352 93.5214 37.456ZM103.877 37.288C104.309 37.288 104.697 37.344 105.041 37.456C105.385 37.56 105.677 37.712 105.917 37.912C106.157 38.104 106.341 38.336 106.469 38.608C106.597 38.88 106.661 39.18 106.661 39.508V39.64C106.661 39.832 106.637 40.016 106.589 40.192C106.549 40.36 106.473 40.532 106.361 40.708C106.257 40.884 106.109 41.072 105.917 41.272C105.733 41.472 105.501 41.7 105.221 41.956C105.045 42.116 104.905 42.256 104.801 42.376C104.697 42.488 104.617 42.596 104.561 42.7C104.505 42.796 104.469 42.896 104.453 43C104.437 43.096 104.429 43.208 104.429 43.336C104.429 43.52 104.357 43.664 104.213 43.768C104.077 43.872 103.917 43.924 103.733 43.924C103.533 43.924 103.361 43.876 103.217 43.78C103.073 43.676 103.001 43.516 103.001 43.3C103.001 43.092 103.013 42.904 103.037 42.736C103.061 42.568 103.105 42.408 103.169 42.256C103.241 42.096 103.341 41.94 103.469 41.788C103.605 41.628 103.781 41.452 103.997 41.26C104.245 41.044 104.441 40.864 104.585 40.72C104.737 40.568 104.853 40.432 104.933 40.312C105.013 40.192 105.065 40.084 105.089 39.988C105.113 39.884 105.125 39.772 105.125 39.652V39.592C105.125 39.464 105.101 39.344 105.053 39.232C105.005 39.12 104.929 39.02 104.825 38.932C104.729 38.844 104.597 38.776 104.429 38.728C104.269 38.672 104.069 38.644 103.829 38.644C103.509 38.644 103.229 38.692 102.989 38.788C102.749 38.884 102.521 39.008 102.305 39.16C102.145 39.272 101.985 39.312 101.825 39.28C101.673 39.24 101.541 39.144 101.429 38.992C101.317 38.848 101.261 38.688 101.261 38.512C101.269 38.328 101.353 38.176 101.513 38.056C101.809 37.824 102.149 37.64 102.533 37.504C102.925 37.36 103.373 37.288 103.877 37.288ZM103.721 44.728C103.977 44.728 104.193 44.816 104.369 44.992C104.545 45.168 104.633 45.384 104.633 45.64C104.633 45.896 104.545 46.112 104.369 46.288C104.193 46.464 103.977 46.552 103.721 46.552C103.465 46.552 103.249 46.464 103.073 46.288C102.897 46.112 102.809 45.896 102.809 45.64C102.809 45.384 102.897 45.168 103.073 44.992C103.249 44.816 103.465 44.728 103.721 44.728Z" fill="#309DA7"/>
<path d="M313.363 23.3907C315.412 21.4809 318.588 21.4809 320.637 23.3907L324.159 26.6745C325.312 27.7492 326.881 28.2591 328.445 28.0672L333.225 27.4808C336.005 27.1398 338.575 29.0071 339.11 31.7563L340.029 36.4831C340.33 38.0302 341.3 39.365 342.678 40.1293L346.889 42.4643C349.339 43.8224 350.32 46.8437 349.137 49.3821L347.103 53.7466C346.437 55.1751 346.437 56.8249 347.103 58.2534L349.137 62.6179C350.32 65.1563 349.339 68.1776 346.889 69.5357L342.678 71.8707C341.3 72.635 340.33 73.9698 340.029 75.5169L339.11 80.2437C338.575 82.9929 336.005 84.8602 333.225 84.5192L328.445 83.9328C326.881 83.7409 325.312 84.2508 324.159 85.3255L320.637 88.6093C318.588 90.5191 315.412 90.5191 313.363 88.6093L309.841 85.3255C308.688 84.2508 307.119 83.7409 305.555 83.9328L300.775 84.5192C297.995 84.8602 295.425 82.9929 294.89 80.2437L293.971 75.5169C293.67 73.9698 292.7 72.635 291.322 71.8707L287.111 69.5357C284.661 68.1776 283.68 65.1563 284.863 62.6179L286.897 58.2534C287.563 56.8249 287.563 55.1751 286.897 53.7466L284.863 49.3821C283.68 46.8437 284.661 43.8224 287.111 42.4643L291.322 40.1293C292.7 39.365 293.67 38.0302 293.971 36.4831L294.89 31.7563C295.425 29.0071 297.995 27.1398 300.775 27.4808L305.555 28.0672C307.119 28.2591 308.688 27.7492 309.841 26.6745L313.363 23.3907Z" fill="#A3E0E6"/>
<path d="M309.487 50.2413C309.487 49.4733 309.69 48.7373 310.095 48.0333C310.5 47.308 311.055 46.668 311.759 46.1133C312.463 45.5587 313.263 45.1213 314.159 44.8013C315.076 44.4813 316.015 44.3213 316.975 44.3213C318.042 44.3213 319.055 44.4493 320.015 44.7053C320.975 44.94 321.839 45.324 322.607 45.8573C323.375 46.3693 323.983 47.0413 324.431 47.8733C324.879 48.684 325.103 49.6333 325.103 50.7213C325.103 51.404 324.975 52.0333 324.719 52.6093C324.484 53.1853 324.175 53.708 323.791 54.1773C323.407 54.6253 323.002 55.02 322.575 55.3613C322.148 55.7027 321.636 56.0973 321.039 56.5453C320.079 57.2067 319.503 57.6867 319.311 57.9853C319.162 58.1987 319.002 58.54 318.831 59.0093C318.618 59.5853 318.372 60.012 318.095 60.2893C317.839 60.5453 317.37 60.6733 316.687 60.6733C316.047 60.6733 315.546 60.46 315.183 60.0333C314.82 59.5853 314.639 59.084 314.639 58.5293C314.639 57.6333 314.895 56.8867 315.407 56.2893C315.919 55.6707 316.666 54.9773 317.647 54.2093C318.522 53.548 319.172 52.972 319.599 52.4813C320.026 51.9693 320.239 51.3827 320.239 50.7213C320.239 49.868 319.962 49.196 319.407 48.7053C318.874 48.2147 318.127 47.9693 317.167 47.9693C316.207 47.9693 315.503 48.172 315.055 48.5773C314.628 48.9613 314.244 49.5373 313.903 50.3053C313.604 50.9453 313.295 51.4253 312.975 51.7453C312.676 52.044 312.207 52.1933 311.567 52.1933C310.97 52.1933 310.468 52.0227 310.063 51.6813C309.679 51.34 309.487 50.86 309.487 50.2413ZM314.191 65.3773C314.191 64.652 314.447 64.0333 314.959 63.5213C315.471 63.0093 316.09 62.7533 316.815 62.7533C317.54 62.7533 318.159 63.0093 318.671 63.5213C319.183 64.0333 319.439 64.652 319.439 65.3773C319.439 66.1027 319.183 66.7213 318.671 67.2333C318.159 67.7453 317.54 68.0013 316.815 68.0013C316.09 68.0013 315.471 67.7453 314.959 67.2333C314.447 66.7213 314.191 66.1027 314.191 65.3773Z" fill="white"/>
<path d="M283.626 85.2979C285.198 82.8294 288.802 82.8294 290.374 85.2979L292.523 88.6732C293.339 89.9544 294.811 90.6629 296.321 90.502L300.3 90.0781C303.21 89.7681 305.457 92.5857 304.507 95.3538L303.209 99.1388C302.716 100.576 303.079 102.168 304.147 103.248L306.959 106.095C309.016 108.177 308.214 111.69 305.457 112.673L301.688 114.018C300.258 114.528 299.24 115.805 299.06 117.313L298.588 121.287C298.243 124.193 294.996 125.757 292.509 124.215L289.108 122.106C287.816 121.306 286.184 121.306 284.892 122.106L281.491 124.215C279.004 125.757 275.757 124.193 275.412 121.287L274.94 117.313C274.76 115.805 273.742 114.528 272.312 114.018L268.543 112.673C265.786 111.69 264.984 108.177 267.041 106.095L269.853 103.248C270.921 102.168 271.284 100.576 270.791 99.1388L269.493 95.3538C268.543 92.5857 270.79 89.7681 273.7 90.0781L277.679 90.502C279.189 90.6629 280.661 89.9544 281.477 88.6732L283.626 85.2979Z" fill="#A9E5EA" fill-opacity="0.38"/>
<path d="M351.81 -7.55463C352.911 -9.78314 356.089 -9.78315 357.19 -7.55463L359.68 -2.51314C360.29 -1.27832 361.662 -0.617414 363.008 -0.910439L368.502 -2.1068C370.931 -2.63563 372.912 -0.151005 371.856 2.09908L369.467 7.18936C368.882 8.43613 369.221 9.92117 370.289 10.7906L374.65 14.3403C376.578 15.9093 375.871 19.0076 373.453 19.5849L367.984 20.8909C366.644 21.2108 365.695 22.4017 365.681 23.7788L365.625 29.4016C365.6 31.887 362.737 33.2659 360.778 31.7356L356.347 28.2739C355.262 27.426 353.738 27.426 352.653 28.2739L348.222 31.7356C346.263 33.2659 343.4 31.887 343.375 29.4016L343.319 23.7788C343.305 22.4017 342.356 21.2108 341.016 20.8909L335.547 19.5849C333.129 19.0076 332.422 15.9093 334.35 14.3403L338.711 10.7906C339.779 9.92117 340.118 8.43614 339.533 7.18936L337.144 2.09908C336.088 -0.151 338.069 -2.63562 340.498 -2.10679L345.992 -0.910439C347.338 -0.617413 348.71 -1.27831 349.32 -2.51314L351.81 -7.55463Z" fill="#A9E5EA" fill-opacity="0.38"/>
</g>
</g>
<defs>
<filter id="filter0_d_2588_2640" x="0" y="0" width="373" height="112" filterUnits="userSpaceOnUse" color-interpolation-filters="sRGB">
<feFlood flood-opacity="0" result="BackgroundImageFix"/>
<feColorMatrix in="SourceAlpha" type="matrix" values="0 0 0 0 0 0 0 0 0 0 0 0 0 0 0 0 0 0 127 0" result="hardAlpha"/>
<feOffset/>
<feGaussianBlur stdDeviation="3"/>
<feComposite in2="hardAlpha" operator="out"/>
<feColorMatrix type="matrix" values="0 0 0 0 0 0 0 0 0 0 0 0 0 0 0 0 0 0 0.07 0"/>
<feBlend mode="normal" in2="BackgroundImageFix" result="effect1_dropShadow_2588_2640"/>
<feBlend mode="normal" in="SourceGraphic" in2="effect1_dropShadow_2588_2640" result="shape"/>
</filter>
<linearGradient id="paint0_linear_2588_2640" x1="6" y1="56" x2="367" y2="56" gradientUnits="userSpaceOnUse">
<stop stop-color="#DBFCFF"/>
<stop offset="0.490385" stop-color="#E0FCFF"/>
<stop offset="1" stop-color="#CEF6F9"/>
</linearGradient>
<clipPath id="clip0_2588_2640">
<rect x="6" y="6" width="361" height="100" rx="12" fill="white"/>
</clipPath>
</defs>
</svg>
