<svg width="30" height="30" viewBox="0 0 30 30" fill="none" xmlns="http://www.w3.org/2000/svg">
<rect x="1" y="1" width="28" height="28" rx="14" fill="#7FDCD2"/>
<rect x="1" y="1" width="28" height="28" rx="14" stroke="white" stroke-width="2"/>
<path d="M15.0005 7.14307C15.5525 7.14333 16.0003 7.59107 16.0005 8.14307V14.0005H21.8569L21.9595 14.0054C22.4637 14.0566 22.8569 14.4827 22.8569 15.0005C22.8569 15.5182 22.4637 15.9444 21.9595 15.9956L21.8569 16.0005H15.9995V21.8569L15.9946 21.9595C15.9435 22.4638 15.5173 22.8569 14.9995 22.8569C14.4819 22.8567 14.0555 22.4636 14.0044 21.9595L13.9995 21.8569V16.0005H8.14307C7.59078 16.0005 7.14307 15.5528 7.14307 15.0005C7.14307 14.4482 7.59078 14.0005 8.14307 14.0005H14.0005V8.14307C14.0006 7.59091 14.4483 7.14307 15.0005 7.14307Z" fill="white"/>
</svg>
