<svg width="120" height="120" viewBox="0 0 120 120" fill="none" xmlns="http://www.w3.org/2000/svg">
<g clip-path="url(#clip0_1405_1511)">
<path d="M60 0C48.1331 0 36.5328 3.51894 26.6658 10.1118C16.7989 16.7047 9.10851 26.0754 4.56726 37.039C0.025997 48.0026 -1.1622 60.0666 1.15291 71.7054C3.46802 83.3443 9.18247 94.0352 17.5736 102.426C25.9648 110.818 36.6558 116.532 48.2946 118.847C59.9335 121.162 71.9975 119.974 82.961 115.433C93.9246 110.892 103.295 103.201 109.888 93.3342C116.481 83.4673 120 71.8669 120 60C120 44.087 113.679 28.8258 102.426 17.5736C91.1742 6.32141 75.913 0 60 0ZM66 96H54V84H66V96ZM66 72H54V24H66V72Z" fill="#EB455B"/>
</g>
<defs>
<clipPath id="clip0_1405_1511">
<rect width="120" height="120" fill="white"/>
</clipPath>
</defs>
</svg>
