<svg width="40" height="40" viewBox="0 0 40 40" fill="none" xmlns="http://www.w3.org/2000/svg">
<rect width="40" height="40" rx="20" fill="black" fill-opacity="0.2"/>
<path d="M28.8996 21.8004C29.323 19.717 29.0018 17.5511 27.992 15.6802C26.9822 13.8093 25.3478 12.3521 23.3738 11.5626C21.3998 10.7732 19.2113 10.7015 17.1899 11.3601C15.1685 12.0187 13.4423 13.3658 12.3122 15.1666M28.8996 21.8004L26.403 19.3039M28.8996 21.8004L31.4126 19.2874M11.0946 18.2289C10.6786 20.311 11.0056 22.4732 12.0186 24.3392C13.0316 26.2053 14.6667 27.6573 16.6394 28.4427C18.6121 29.2281 20.7977 29.2972 22.8161 28.6381C24.8345 27.9789 26.558 26.6332 27.687 24.8349M11.0946 18.2289L13.5798 20.7141M11.0946 18.2289L8.59803 20.7255" stroke="white" stroke-width="2" stroke-linecap="round" stroke-linejoin="round"/>
</svg>
