<svg width="24" height="24" viewBox="0 0 24 24" fill="none" xmlns="http://www.w3.org/2000/svg">
<path d="M11.9998 14.8947C11.0382 14.8947 10.2209 14.557 9.54775 13.8816C8.87462 13.2061 8.53806 12.386 8.53806 11.4211V4.47368C8.53806 3.50877 8.87462 2.6886 9.54775 2.01316C10.2209 1.33772 11.0382 1 11.9998 1C12.9615 1 13.7788 1.33772 14.452 2.01316C15.1251 2.6886 15.4616 3.50877 15.4616 4.47368V11.4211C15.4616 12.386 15.1251 13.2061 14.452 13.8816C13.7788 14.557 12.9615 14.8947 11.9998 14.8947ZM10.8459 21.8421V19.4395C9.07656 19.1886 7.56222 18.436 6.30289 17.1816C5.04357 15.9272 4.2789 14.4026 4.00888 12.6079C3.97041 12.2798 4.05696 12 4.26851 11.7684C4.48007 11.5368 4.74932 11.4211 5.07626 11.4211C5.40321 11.4211 5.67746 11.5322 5.89902 11.7545C6.12057 11.9768 6.26943 12.2516 6.34559 12.5789C6.61484 13.9298 7.28335 15.0395 8.35112 15.9079C9.41889 16.7763 10.6351 17.2105 11.9998 17.2105C13.3846 17.2105 14.6058 16.7717 15.6636 15.894C16.7214 15.0163 17.3849 13.9113 17.6541 12.5789C17.731 12.2509 17.8803 11.9761 18.1018 11.7545C18.3234 11.533 18.5973 11.4218 18.9234 11.4211C19.2496 11.4203 19.5189 11.5361 19.7312 11.7684C19.9435 12.0008 20.0301 12.2806 19.9908 12.6079C19.7216 14.364 18.9619 15.8789 17.7118 17.1526C16.4617 18.4263 14.9424 19.1886 13.1538 19.4395V21.8421C13.1538 22.1702 13.043 22.4454 12.8214 22.6677C12.5999 22.89 12.326 23.0008 11.9998 23C11.6737 22.9992 11.3998 22.8881 11.1783 22.6665C10.9567 22.445 10.8459 22.1702 10.8459 21.8421Z" fill="#0AC2A6"/>
</svg>
