<svg width="40" height="40" viewBox="0 0 40 40" fill="none" xmlns="http://www.w3.org/2000/svg">
<rect width="40" height="40" rx="20" fill="#0AC2A6"/>
<path d="M27.0396 11.323C28.0556 10.968 29.0316 11.944 28.6766 12.96L22.7516 29.89C22.3666 30.988 20.8366 31.05 20.3646 29.987L17.5056 23.555L21.5296 19.53C21.6621 19.3878 21.7342 19.1997 21.7308 19.0054C21.7274 18.8111 21.6486 18.6257 21.5112 18.4883C21.3738 18.3509 21.1884 18.2722 20.9941 18.2688C20.7998 18.2653 20.6118 18.3375 20.4696 18.47L16.4446 22.494L10.0126 19.635C8.94961 19.162 9.01261 17.633 10.1096 17.248L27.0396 11.323Z" fill="white"/>
</svg>
