<svg width="28" height="28" viewBox="0 0 28 28" fill="none" xmlns="http://www.w3.org/2000/svg">
<path fill-rule="evenodd" clip-rule="evenodd" d="M13.9998 3.7915C14.2319 3.7915 14.4545 3.88369 14.6186 4.04779C14.7826 4.21188 14.8748 4.43444 14.8748 4.6665V23.3332C14.8748 23.5652 14.7826 23.7878 14.6186 23.9519C14.4545 24.116 14.2319 24.2082 13.9998 24.2082C13.7678 24.2082 13.5452 24.116 13.3811 23.9519C13.217 23.7878 13.1248 23.5652 13.1248 23.3332V4.6665C13.1248 4.43444 13.217 4.21188 13.3811 4.04779C13.5452 3.88369 13.7678 3.7915 13.9998 3.7915ZM9.33317 7.2915C9.56523 7.2915 9.78779 7.38369 9.95189 7.54779C10.116 7.71188 10.2082 7.93444 10.2082 8.1665V19.8332C10.2082 20.0652 10.116 20.2878 9.95189 20.4519C9.78779 20.616 9.56523 20.7082 9.33317 20.7082C9.10111 20.7082 8.87855 20.616 8.71445 20.4519C8.55036 20.2878 8.45817 20.0652 8.45817 19.8332V8.1665C8.45817 7.93444 8.55036 7.71188 8.71445 7.54779C8.87855 7.38369 9.10111 7.2915 9.33317 7.2915ZM18.6665 7.2915C18.8986 7.2915 19.1211 7.38369 19.2852 7.54779C19.4493 7.71188 19.5415 7.93444 19.5415 8.1665V19.8332C19.5415 20.0652 19.4493 20.2878 19.2852 20.4519C19.1211 20.616 18.8986 20.7082 18.6665 20.7082C18.4344 20.7082 18.2119 20.616 18.0478 20.4519C17.8837 20.2878 17.7915 20.0652 17.7915 19.8332V8.1665C17.7915 7.93444 17.8837 7.71188 18.0478 7.54779C18.2119 7.38369 18.4344 7.2915 18.6665 7.2915ZM4.6665 11.9582C4.89857 11.9582 5.12113 12.0504 5.28522 12.2145C5.44932 12.3785 5.5415 12.6011 5.5415 12.8332V15.1665C5.5415 15.3986 5.44932 15.6211 5.28522 15.7852C5.12113 15.9493 4.89857 16.0415 4.6665 16.0415C4.43444 16.0415 4.21188 15.9493 4.04779 15.7852C3.88369 15.6211 3.7915 15.3986 3.7915 15.1665V12.8332C3.7915 12.6011 3.88369 12.3785 4.04779 12.2145C4.21188 12.0504 4.43444 11.9582 4.6665 11.9582ZM23.3332 11.9582C23.5652 11.9582 23.7878 12.0504 23.9519 12.2145C24.116 12.3785 24.2082 12.6011 24.2082 12.8332V15.1665C24.2082 15.3986 24.116 15.6211 23.9519 15.7852C23.7878 15.9493 23.5652 16.0415 23.3332 16.0415C23.1011 16.0415 22.8785 15.9493 22.7145 15.7852C22.5504 15.6211 22.4582 15.3986 22.4582 15.1665V12.8332C22.4582 12.6011 22.5504 12.3785 22.7145 12.2145C22.8785 12.0504 23.1011 11.9582 23.3332 11.9582Z" fill="#0AC2A6"/>
</svg>
