<svg width="24" height="24" viewBox="0 0 24 24" fill="none" xmlns="http://www.w3.org/2000/svg">
<path d="M22.707 19.8789C23.0975 20.2694 23.0975 20.9026 22.707 21.2931C22.3165 21.6836 21.6833 21.6836 21.2928 21.2931L3.70696 3.70726C3.31643 3.31673 3.31643 2.68357 3.70696 2.29304C4.09748 1.90252 4.73064 1.90252 5.12117 2.29304L22.707 19.8789Z" fill="#0AC2A6"/>
<path d="M5.07617 11.4209C5.40312 11.4209 5.67786 11.5326 5.89941 11.7549C6.12077 11.9771 6.26959 12.252 6.3457 12.5791C6.61498 13.9299 7.28384 15.0398 8.35156 15.9082C9.41924 16.7764 10.6355 17.2109 12 17.2109C13.3847 17.2109 14.6063 16.7712 15.6641 15.8936C16.2005 15.4484 16.6342 14.944 16.9678 14.3818L18.6309 16.0449C18.3611 16.432 18.0559 16.8018 17.7119 17.1523C16.4618 18.426 14.9419 19.1886 13.1533 19.4395V21.8418C13.1533 22.1699 13.0428 22.4457 12.8213 22.668C12.5998 22.8901 12.326 23.0007 12 23C11.674 22.9992 11.4002 22.8882 11.1787 22.667C10.9572 22.4454 10.8457 22.1699 10.8457 21.8418V19.4395C9.07644 19.1885 7.562 18.436 6.30273 17.1816C5.04345 15.9273 4.2788 14.4021 4.00879 12.6074C3.97047 12.2796 4.05715 12 4.26855 11.7686C4.48008 11.537 4.74928 11.4209 5.07617 11.4209ZM15.2461 12.6602C15.0789 13.1093 14.8156 13.5171 14.4521 13.8818C13.7791 14.5572 12.9615 14.8945 12 14.8945C11.0385 14.8945 10.2209 14.5572 9.54785 13.8818C8.87473 13.2064 8.53809 12.3858 8.53809 11.4209V5.95215L15.2461 12.6602ZM18.9238 11.4209C19.2498 11.4202 19.5192 11.5363 19.7314 11.7686C19.9435 12.0007 20.0303 12.2804 19.9912 12.6074C19.9072 13.1553 19.7742 13.6798 19.5947 14.1807L17.7344 12.3203C17.8189 12.1039 17.9411 11.9154 18.1016 11.7549C18.3231 11.5333 18.5977 11.4217 18.9238 11.4209ZM12 1C12.9615 1.00003 13.7791 1.33738 14.4521 2.0127C15.1253 2.68812 15.4619 3.50874 15.4619 4.47363V10.0479L8.72461 3.31055C8.88955 2.83101 9.16384 2.39802 9.54785 2.0127C10.2209 1.33744 11.0385 1 12 1Z" fill="#0AC2A6"/>
</svg>
