<svg width="12" height="12" viewBox="0 0 12 12" fill="none" xmlns="http://www.w3.org/2000/svg">
<rect width="12" height="12" rx="2" fill="#0AC2A6"/>
<path d="M4.97892 7.3125L8.51017 3.78125C8.5935 3.69792 8.69072 3.65625 8.80183 3.65625C8.91294 3.65625 9.01017 3.69792 9.0935 3.78125C9.17683 3.86458 9.2185 3.96361 9.2185 4.07833C9.2185 4.19306 9.17683 4.29194 9.0935 4.375L5.27058 8.20833C5.18725 8.29167 5.09003 8.33333 4.97892 8.33333C4.86781 8.33333 4.77058 8.29167 4.68725 8.20833L2.89558 6.41667C2.81225 6.33333 2.77225 6.23444 2.77558 6.12C2.77892 6.00556 2.82239 5.90653 2.906 5.82292C2.98961 5.73931 3.08864 5.69764 3.20308 5.69792C3.31753 5.69819 3.41642 5.73986 3.49975 5.82292L4.97892 7.3125Z" fill="white"/>
</svg>
