<svg width="63" height="63" viewBox="0 0 63 63" fill="none" xmlns="http://www.w3.org/2000/svg">
<rect width="63" height="63" rx="5" fill="#FFF0F3"/>
<path d="M25.5966 16.1185C26.0801 15.9357 26.6203 15.9653 27.0797 16.2009C30.1627 17.7822 33.8377 17.7821 36.9209 16.2009C37.3803 15.9654 37.9205 15.9356 38.404 16.1185L43.1734 17.9224C43.3971 18.007 43.6018 18.1348 43.7748 18.2979L52.4433 26.469C53.3595 27.3328 53.1082 28.8321 51.9583 29.3604L43.9635 33.0323V48H20.4877V33.2387L12.0423 29.3604C10.8923 28.8322 10.6402 27.3328 11.5564 26.469L20.2258 18.2979C20.3989 18.1348 20.6034 18.007 20.8272 17.9224L25.5966 16.1185Z" fill="#EA9699"/>
<path opacity="0.54" d="M37.6432 16.0038C37.8994 15.9882 38.1591 16.0256 38.4041 16.1183L41.7063 17.3671V28.9066C42.0674 42.4051 27.7111 46.3717 20.4878 46.6677V18.0947C20.5945 18.0261 20.7078 17.9674 20.8273 17.9222L25.5967 16.1183C25.9879 15.9704 26.4156 15.9637 26.8082 16.0905V18.25C26.8082 21.1927 29.2337 23.5783 32.2257 23.5783C35.2177 23.5783 37.6432 21.1927 37.6432 18.25V16.0038Z" fill="#F7BABC"/>
</svg>
