<svg width="64" height="63" viewBox="0 0 64 63" fill="none" xmlns="http://www.w3.org/2000/svg">
<rect x="0.706787" width="63" height="63" rx="5" fill="#FFF0F3"/>
<path d="M24.9774 13.5558C25.5238 13.3492 26.1341 13.3827 26.6531 13.6489C30.1367 15.4356 34.289 15.4354 37.7726 13.6489C38.2916 13.3828 38.902 13.3491 39.4483 13.5558L44.8372 15.5939C45.0899 15.6896 45.3212 15.834 45.5167 16.0182L53.089 25.9266C54.1243 26.9025 53.8403 28.5966 52.5411 29.1935L45.7299 32.6664V49.5781H19.205V32.8996L11.873 29.1935C10.5736 28.5967 10.2888 26.9026 11.324 25.9266L18.9091 16.0182C19.1046 15.8339 19.3358 15.6896 19.5886 15.5939L24.9774 13.5558Z" fill="#F28FA7"/>
<path opacity="0.54" d="M38.5886 13.4258C38.8782 13.4081 39.1715 13.4504 39.4484 13.5551L43.1795 14.9662V28.0044C43.5875 43.2561 27.3666 47.7379 19.2051 48.0724V15.7883C19.3256 15.7107 19.4536 15.6444 19.5886 15.5933L24.9775 13.5551C25.4196 13.388 25.9028 13.3805 26.3464 13.5238V15.9637C26.3464 19.2886 29.0869 21.9841 32.4675 21.9841C35.8481 21.9841 38.5886 19.2886 38.5886 15.9637V13.4258Z" fill="#F7BAC7"/>
</svg>
