<svg width="377" height="488" viewBox="0 0 377 488" fill="none" xmlns="http://www.w3.org/2000/svg">
<g filter="url(#filter0_d_4_1320)">
<path d="M353 12C359.627 12 365 17.3726 365 24V318H356.5C350.701 318 346 322.701 346 328.5C346 334.299 350.701 339 356.5 339H365V463.5C365 470.127 359.627 475.5 353 475.5H24C17.3727 475.5 12 470.127 12 463.5V339H20.5C26.299 339 31 334.299 31 328.5C31 322.701 26.299 318 20.5 318H12V24C12 17.3727 17.3727 12.0002 24 12H353Z" fill="white"/>
</g>
<path d="M120.083 86H91.0002V115.082" stroke="#D8D9DB" stroke-width="3" stroke-linecap="round" stroke-linejoin="round"/>
<path d="M120.083 282H91.0002V252.918" stroke="#D8D9DB" stroke-width="3" stroke-linecap="round" stroke-linejoin="round"/>
<path d="M257.918 86H287V115.082" stroke="#D8D9DB" stroke-width="3" stroke-linecap="round" stroke-linejoin="round"/>
<path d="M257.918 282H287V252.918" stroke="#D8D9DB" stroke-width="3" stroke-linecap="round" stroke-linejoin="round"/>
<path d="M36.0002 328.5H340.5" stroke="#D8D9DB" stroke-width="2" stroke-linecap="round" stroke-linejoin="round" stroke-dasharray="4 8"/>
<path d="M153.767 38.8872C156.718 38.8872 159.11 41.3047 159.11 44.2868V54.7382C159.11 57.7066 156.729 60.113 153.792 60.113H142.319C139.382 60.113 137 57.7066 137 54.7382V46.8934C137 43.9113 139.393 41.4939 142.344 41.4939C145.199 41.4939 147.531 43.7574 147.679 46.6058H148.424V44.2868C148.424 41.3047 150.816 38.8872 153.767 38.8872Z" fill="#0AC2A6"/>
<path d="M151.5 45.3201C151.696 45.2669 151.899 45.3844 151.953 45.5827C152.008 45.7809 151.892 45.9848 151.696 46.038L144.852 47.8911C144.655 47.9443 144.452 47.8268 144.398 47.6285C144.344 47.4302 144.459 47.2264 144.656 47.1732L151.5 45.3201Z" fill="white"/>
<path d="M177.923 46.3679C177.923 46.881 177.819 47.2359 177.611 47.4324C177.415 47.629 177.054 47.7272 176.53 47.7272H169.062C168.538 47.7272 168.172 47.629 167.965 47.4324C167.768 47.2359 167.67 46.881 167.67 46.3679V42.3717C167.67 42.0878 167.774 41.8749 167.981 41.7329C168.199 41.591 168.434 41.52 168.685 41.52C168.947 41.52 169.182 41.591 169.39 41.7329C169.608 41.8749 169.717 42.0878 169.717 42.3717V43.2724H175.875V42.3717C175.875 42.0878 175.979 41.8749 176.186 41.7329C176.405 41.591 176.64 41.52 176.891 41.52C177.153 41.52 177.387 41.591 177.595 41.7329C177.813 41.8749 177.923 42.0878 177.923 42.3717V46.3679ZM175.63 46.0239C175.793 46.0239 175.875 45.942 175.875 45.7783V44.9757H169.717V45.7783C169.717 45.942 169.799 46.0239 169.963 46.0239H175.63ZM166.605 50.6425C166.354 50.6425 166.169 50.5552 166.048 50.3805C165.928 50.2058 165.868 50.0038 165.868 49.7745C165.868 49.5343 165.928 49.3268 166.048 49.1521C166.169 48.9774 166.354 48.8901 166.605 48.8901H178.987C179.238 48.8901 179.424 48.9774 179.544 49.1521C179.664 49.3268 179.724 49.5343 179.724 49.7745C179.724 50.0038 179.664 50.2058 179.544 50.3805C179.424 50.5552 179.238 50.6425 178.987 50.6425H174.057V52.4113C174.057 52.6952 173.954 52.9027 173.746 53.0337C173.55 53.1538 173.304 53.2139 173.009 53.2139C172.725 53.2139 172.48 53.1538 172.272 53.0337C172.076 52.9027 171.977 52.6952 171.977 52.4113V50.6425H166.605ZM177.48 54.5405C177.731 54.5405 177.917 54.6278 178.037 54.8025C178.157 54.9772 178.217 55.1847 178.217 55.4249C178.217 55.6651 178.157 55.8725 178.037 56.0472C177.917 56.2219 177.731 56.3093 177.48 56.3093H169.029C168.505 56.3093 168.139 56.211 167.932 56.0145C167.735 55.818 167.637 55.4631 167.637 54.9499V52.5424C167.637 52.2366 167.741 52.0128 167.948 51.8709C168.167 51.7289 168.418 51.658 168.702 51.658C168.975 51.658 169.215 51.7289 169.422 51.8709C169.641 52.0128 169.75 52.2366 169.75 52.5424V54.1638C169.75 54.4149 169.875 54.5405 170.127 54.5405H177.48ZM182.347 43.9439C182.096 43.9439 181.91 43.8566 181.79 43.6819C181.67 43.5072 181.61 43.2997 181.61 43.0595C181.61 42.8193 181.67 42.6119 181.79 42.4372C181.91 42.2625 182.096 42.1751 182.347 42.1751H187.228C187.752 42.1751 188.112 42.2734 188.309 42.4699C188.516 42.6665 188.62 43.0213 188.62 43.5345V46.5808C188.62 47.094 188.516 47.4488 188.309 47.6454C188.112 47.8419 187.752 47.9402 187.228 47.9402H184.067C183.816 47.9402 183.69 48.0657 183.69 48.3169V49.9383C183.69 50.1894 183.816 50.315 184.067 50.315C185.093 50.315 186.038 50.2931 186.9 50.2494C187.763 50.1949 188.593 50.113 189.39 50.0038C189.641 49.971 189.837 50.0311 189.979 50.1839C190.132 50.3368 190.219 50.5279 190.241 50.7572C190.263 51.0083 190.23 51.2321 190.143 51.4287C190.056 51.6143 189.892 51.7235 189.652 51.7562C189.313 51.7999 188.937 51.8436 188.522 51.8872C188.107 51.92 187.632 51.9528 187.097 51.9855C186.573 52.0183 185.972 52.0456 185.295 52.0674C184.629 52.0783 183.87 52.0838 183.019 52.0838C182.495 52.0838 182.129 51.9855 181.921 51.789C181.725 51.5924 181.626 51.2376 181.626 50.7244V47.5962C181.626 47.083 181.725 46.7282 181.921 46.5317C182.129 46.3351 182.495 46.2368 183.019 46.2368H186.18C186.431 46.2368 186.556 46.1113 186.556 45.8602V44.3206C186.556 44.0695 186.431 43.9439 186.18 43.9439H182.347ZM193.32 54.606C193.32 54.9117 193.211 55.1355 192.993 55.2775C192.785 55.4194 192.54 55.4904 192.256 55.4904C191.983 55.4904 191.737 55.4194 191.519 55.2775C191.311 55.1355 191.208 54.9117 191.208 54.606V42.0605C191.208 41.7548 191.311 41.5309 191.519 41.389C191.737 41.247 191.983 41.1761 192.256 41.1761C192.54 41.1761 192.785 41.247 192.993 41.389C193.211 41.5309 193.32 41.7548 193.32 42.0605V54.606ZM199.497 46.2696C199.497 46.4334 199.579 46.5153 199.743 46.5153H207.261C207.49 46.5153 207.659 46.5972 207.768 46.7609C207.877 46.9247 207.932 47.1158 207.932 47.3342C207.932 47.5525 207.877 47.7436 207.768 47.9074C207.659 48.0712 207.49 48.1531 207.261 48.1531H198.875C198.351 48.1531 197.985 48.0548 197.778 47.8583C197.581 47.6617 197.483 47.3069 197.483 46.7937V42.9776C197.483 42.4645 197.581 42.1096 197.778 41.9131C197.985 41.7165 198.351 41.6183 198.875 41.6183H207.015C207.244 41.6183 207.413 41.7002 207.523 41.8639C207.632 42.0277 207.686 42.2188 207.686 42.4372C207.686 42.6555 207.632 42.8466 207.523 43.0104C207.413 43.1742 207.244 43.2561 207.015 43.2561H199.743C199.579 43.2561 199.497 43.338 199.497 43.5017V44.0913H206.867C207.086 44.0913 207.25 44.1678 207.359 44.3206C207.468 44.4735 207.523 44.6591 207.523 44.8775C207.523 45.0959 207.468 45.2815 207.359 45.4343C207.25 45.5872 207.086 45.6636 206.867 45.6636H199.497V46.2696ZM208.816 49.0539C209.068 49.0539 209.248 49.1357 209.357 49.2995C209.477 49.4633 209.537 49.6653 209.537 49.9055C209.537 50.1566 209.477 50.3641 209.357 50.5279C209.248 50.6917 209.068 50.7735 208.816 50.7735H196.402C196.151 50.7735 195.965 50.6917 195.845 50.5279C195.736 50.3641 195.681 50.1566 195.681 49.9055C195.681 49.6653 195.736 49.4633 195.845 49.2995C195.965 49.1357 196.151 49.0539 196.402 49.0539H208.816ZM207.768 55.7524C207.768 56.0582 207.659 56.282 207.441 56.4239C207.233 56.5659 206.998 56.6369 206.736 56.6369C206.463 56.6369 206.218 56.5659 205.999 56.4239C205.792 56.282 205.688 56.0582 205.688 55.7524V53.7707C205.688 53.5196 205.563 53.394 205.312 53.394H197.974C197.723 53.394 197.537 53.3121 197.417 53.1483C197.308 52.9846 197.254 52.7771 197.254 52.526C197.254 52.2967 197.308 52.1002 197.417 51.9364C197.537 51.7726 197.723 51.6907 197.974 51.6907H206.376C206.9 51.6907 207.261 51.789 207.457 51.9855C207.665 52.182 207.768 52.5369 207.768 53.0501V55.7524ZM212.93 43.5836C212.679 43.5836 212.493 43.4963 212.373 43.3216C212.253 43.1469 212.193 42.934 212.193 42.6828C212.193 42.4317 212.253 42.2188 212.373 42.0441C212.493 41.8694 212.679 41.782 212.93 41.782H221.25C221.774 41.782 222.134 41.8803 222.331 42.0768C222.538 42.2734 222.642 42.6282 222.642 43.1414V44.337C222.642 44.741 222.62 45.1286 222.576 45.4998C222.533 45.8602 222.467 46.1823 222.38 46.4661C222.293 46.75 222.123 46.9466 221.872 47.0557C221.632 47.154 221.37 47.1704 221.086 47.1049C220.824 47.0503 220.617 46.9356 220.464 46.7609C220.322 46.5753 220.284 46.3351 220.349 46.0403C220.48 45.4725 220.546 44.8884 220.546 44.2879V43.9603C220.546 43.7092 220.42 43.5836 220.169 43.5836H212.93ZM211.325 49.6598C211.074 49.6598 210.888 49.5725 210.768 49.3978C210.648 49.2231 210.588 49.0156 210.588 48.7754C210.588 48.5461 210.648 48.3441 210.768 48.1694C210.888 47.9948 211.074 47.9074 211.325 47.9074H215.419V46.0731C215.419 45.7783 215.523 45.5599 215.73 45.418C215.949 45.276 216.195 45.205 216.468 45.205C216.74 45.205 216.981 45.276 217.188 45.418C217.407 45.5599 217.516 45.7783 217.516 46.0731V47.9074H223.707C223.958 47.9074 224.143 47.9948 224.263 48.1694C224.384 48.3441 224.444 48.5461 224.444 48.7754C224.444 49.0156 224.384 49.2231 224.263 49.3978C224.143 49.5725 223.958 49.6598 223.707 49.6598H211.325ZM212.357 53.7052C212.357 53.192 212.471 52.7498 212.701 52.3786C212.941 51.9964 213.285 51.6852 213.732 51.445C214.18 51.1939 214.721 51.0138 215.354 50.9046C215.987 50.7845 216.708 50.7244 217.516 50.7244C218.313 50.7244 219.028 50.7845 219.661 50.9046C220.305 51.0138 220.851 51.1939 221.299 51.445C221.747 51.6852 222.085 51.9964 222.314 52.3786C222.555 52.7498 222.675 53.192 222.675 53.7052C222.675 54.2184 222.555 54.6606 222.314 55.0318C222.085 55.414 221.747 55.7251 221.299 55.9654C220.851 56.2165 220.305 56.3966 219.661 56.5058C219.028 56.6259 218.313 56.686 217.516 56.686C216.708 56.686 215.987 56.6259 215.354 56.5058C214.721 56.3966 214.18 56.2165 213.732 55.9654C213.285 55.7251 212.941 55.414 212.701 55.0318C212.471 54.6606 212.357 54.2184 212.357 53.7052ZM220.595 53.7052C220.595 53.2903 220.355 52.9682 219.874 52.7389C219.405 52.4987 218.618 52.3786 217.516 52.3786C216.413 52.3786 215.621 52.4987 215.141 52.7389C214.671 52.9682 214.437 53.2903 214.437 53.7052C214.437 54.1201 214.671 54.4422 215.141 54.6715C215.621 54.9117 216.413 55.0318 217.516 55.0318C218.618 55.0318 219.405 54.9117 219.874 54.6715C220.355 54.4422 220.595 54.1201 220.595 53.7052ZM227.951 49.4797C227.951 49.7308 228.077 49.8564 228.328 49.8564C228.874 49.8564 229.463 49.84 230.097 49.8072C230.73 49.7745 231.308 49.7199 231.833 49.6435C232.084 49.6107 232.28 49.6708 232.422 49.8236C232.564 49.9656 232.646 50.1621 232.668 50.4132C232.69 50.6644 232.657 50.8827 232.57 51.0683C232.482 51.254 232.318 51.3686 232.078 51.4123C231.729 51.4669 231.156 51.5215 230.359 51.5761C229.562 51.6197 228.524 51.6416 227.247 51.6416C226.723 51.6416 226.357 51.5433 226.149 51.3468C225.953 51.1502 225.855 50.7954 225.855 50.2822V43.731C225.855 43.2178 225.953 42.863 226.149 42.6665C226.357 42.4699 226.723 42.3717 227.247 42.3717H231.39C231.642 42.3717 231.827 42.459 231.947 42.6337C232.067 42.8084 232.127 43.0213 232.127 43.2724C232.127 43.5127 232.067 43.7201 231.947 43.8948C231.827 44.0695 231.642 44.1569 231.39 44.1569H228.328C228.077 44.1569 227.951 44.2824 227.951 44.5335V49.4797ZM235.272 46.1058H236.582V41.995C236.582 41.7111 236.68 41.5036 236.877 41.3726C237.074 41.2416 237.297 41.1761 237.548 41.1761C237.8 41.1761 238.023 41.2416 238.22 41.3726C238.417 41.5036 238.515 41.7111 238.515 41.995V54.6715C238.515 54.9554 238.417 55.1628 238.22 55.2939C238.023 55.4249 237.8 55.4904 237.548 55.4904C237.297 55.4904 237.074 55.4249 236.877 55.2939C236.68 55.1628 236.582 54.9554 236.582 54.6715V47.8746H235.272V53.9836C235.272 54.2675 235.174 54.475 234.977 54.606C234.781 54.737 234.557 54.8025 234.306 54.8025C234.065 54.8025 233.847 54.737 233.651 54.606C233.454 54.475 233.356 54.2675 233.356 53.9836V42.1587C233.356 41.8749 233.454 41.6674 233.651 41.5364C233.847 41.4054 234.065 41.3398 234.306 41.3398C234.557 41.3398 234.781 41.4054 234.977 41.5364C235.174 41.6674 235.272 41.8749 235.272 42.1587V46.1058Z" fill="#0AC2A6"/>
<defs>
<filter id="filter0_d_4_1320" x="0" y="0" width="377" height="487.5" filterUnits="userSpaceOnUse" color-interpolation-filters="sRGB">
<feFlood flood-opacity="0" result="BackgroundImageFix"/>
<feColorMatrix in="SourceAlpha" type="matrix" values="0 0 0 0 0 0 0 0 0 0 0 0 0 0 0 0 0 0 127 0" result="hardAlpha"/>
<feOffset/>
<feGaussianBlur stdDeviation="6"/>
<feComposite in2="hardAlpha" operator="out"/>
<feColorMatrix type="matrix" values="0 0 0 0 0 0 0 0 0 0 0 0 0 0 0 0 0 0 0.1 0"/>
<feBlend mode="normal" in2="BackgroundImageFix" result="effect1_dropShadow_4_1320"/>
<feBlend mode="normal" in="SourceGraphic" in2="effect1_dropShadow_4_1320" result="shape"/>
</filter>
</defs>
</svg>
