<svg width="64" height="63" viewBox="0 0 64 63" fill="none" xmlns="http://www.w3.org/2000/svg">
<rect x="0.292969" width="63" height="63" rx="5" fill="#FFC3BB"/>
<path d="M46.0562 19.4088C33.8906 12.3849 22.0207 16.4821 17.6064 19.4088C23.446 24.7992 21.0785 32.3396 18.6453 34.8351C22.5384 38.4288 22.4074 43.9432 17.6064 48.2326C28.5454 55.1303 40.3371 51.1052 44.8449 48.2326C38.0059 42.9451 41.3272 35.5801 43.7915 33.6335C38.6435 26.9151 44.6213 21.7795 46.0562 19.4088Z" fill="#FFF2DF"/>
<path d="M28.9399 21.4632C25.9733 18.227 20.0385 18.7783 17.5103 19.4525C24.5437 12.8712 31.335 15.5413 31.335 15.5413C31.335 15.5413 37.3236 12.6363 46.0757 19.4407C38.7045 17.553 31.5805 20.0025 28.9399 21.4632Z" fill="#F27272"/>
<path d="M31.4763 47.5703C35.7635 50.1148 42.3229 48.9128 44.8511 48.2386C33.5883 55.341 22.5466 51.7565 17.6063 48.2319C24.9775 50.1196 26.736 49.1388 31.4763 47.5703Z" fill="#F27272"/>
<path d="M33.7218 10.916C31.5156 11.727 31.0587 14.35 31.1175 16.0465C31.1314 16.4476 31.4521 16.8502 31.8403 16.7484C32.1159 16.6762 32.2478 16.3939 32.2989 16.1136C32.6191 14.3585 33.4463 13.19 34.2589 12.4751C34.6958 12.0907 34.6846 11.1696 34.1517 10.9358C34.0156 10.8761 33.8614 10.8647 33.7218 10.916Z" fill="#66584F"/>
<ellipse cx="27.1957" cy="33.9066" rx="1.32021" ry="1.95401" fill="#7E705C"/>
<ellipse cx="35.2616" cy="33.9066" rx="1.32021" ry="1.95401" fill="#7E705C"/>
</svg>
