<svg width="40" height="40" viewBox="0 0 40 40" fill="none" xmlns="http://www.w3.org/2000/svg">
<rect width="40" height="40" rx="20" fill="black" fill-opacity="0.2"/>
<path d="M25.5 16.3333C25.5 16.8196 25.3069 17.2859 24.963 17.6297C24.6192 17.9735 24.1529 18.1667 23.6667 18.1667C23.1804 18.1667 22.7141 17.9735 22.3703 17.6297C22.0265 17.2859 21.8333 16.8196 21.8333 16.3333C21.8333 15.8471 22.0265 15.3808 22.3703 15.037C22.7141 14.6932 23.1804 14.5 23.6667 14.5C24.1529 14.5 24.6192 14.6932 24.963 15.037C25.3069 15.3808 25.5 15.8471 25.5 16.3333Z" fill="white"/>
<path fill-rule="evenodd" clip-rule="evenodd" d="M19.9478 10.1459H20.0523C22.1688 10.1459 23.8271 10.1459 25.1214 10.3201C26.4451 10.4979 27.4901 10.8701 28.3105 11.6896C29.1309 12.51 29.5022 13.555 29.68 14.8796C29.8542 16.173 29.8542 17.8313 29.8542 19.9479V20.0285C29.8542 21.7784 29.8542 23.2103 29.7588 24.3763C29.6635 25.5496 29.4683 26.5277 29.0301 27.3417C28.8382 27.6998 28.5983 28.0228 28.3105 28.3106C27.4901 29.131 26.4451 29.5023 25.1205 29.6801C23.8271 29.8543 22.1688 29.8543 20.0523 29.8543H19.9478C17.8312 29.8543 16.1729 29.8543 14.8786 29.6801C13.5549 29.5023 12.5099 29.1301 11.6895 28.3106C10.9626 27.5837 10.5868 26.6789 10.3878 25.5551C10.1908 24.4524 10.155 23.0801 10.1477 21.3769C10.1465 20.943 10.1458 20.4841 10.1458 20.0001V19.9469C10.1458 17.8304 10.1458 16.1721 10.32 14.8778C10.4978 13.5541 10.87 12.5091 11.6895 11.6887C12.5099 10.8683 13.5549 10.497 14.8795 10.3192C16.1729 10.145 17.8312 10.145 19.9478 10.145M15.0619 11.6814C13.8904 11.839 13.1837 12.1397 12.6621 12.6613C12.1396 13.1838 11.8398 13.8896 11.6822 15.062C11.5227 16.2537 11.5208 17.8194 11.5208 19.9992V20.7729L12.4384 19.9699C12.8409 19.6175 13.3623 19.4314 13.8969 19.4491C14.4315 19.4668 14.9394 19.687 15.3177 20.0652L19.2502 23.9977C19.5553 24.3028 19.9583 24.4905 20.3883 24.5277C20.8182 24.5649 21.2474 24.4493 21.6005 24.2012L21.8737 24.0087C22.3831 23.6508 22.9988 23.4763 23.6202 23.5137C24.2417 23.5512 24.832 23.7984 25.2947 24.2149L27.8888 26.5497C28.151 26.0015 28.3059 25.281 28.3884 24.2644C28.4783 23.1599 28.4792 21.783 28.4792 19.9992C28.4792 17.8194 28.4773 16.2537 28.3178 15.062C28.1602 13.8896 27.8595 13.1829 27.3379 12.6604C26.8154 12.1388 26.1096 11.839 24.9372 11.6814C23.7455 11.5219 22.1798 11.52 20 11.52C17.8202 11.52 16.2536 11.5219 15.0619 11.6814Z" fill="white"/>
</svg>
