<svg width="64" height="63" viewBox="0 0 64 63" fill="none" xmlns="http://www.w3.org/2000/svg">
<rect x="0.706787" width="63" height="63" rx="5" fill="#E2FFEA"/>
<g filter="url(#filter0_i_1662_1856)">
<path d="M34.9223 11.0374C35.6202 11.0374 36.186 11.7387 36.186 12.6039V18.4994C36.186 20.7995 36.9004 23.0427 38.2304 24.9193V24.9193C40.2575 27.7783 42.4475 31.4636 42.4475 35.2699V49.4879C42.4475 50.5984 41.9786 51.6483 41.1375 52.0304C37.1491 53.8427 27.9123 53.9203 23.4791 52.2048C22.5366 51.8401 21.9661 50.7118 21.9661 49.4879V35.2699C21.9661 31.4583 24.1622 27.7768 26.1945 24.9162V24.9162C27.5187 23.0518 28.2302 20.8215 28.2302 18.5347V12.6039C28.2302 11.7388 28.7961 11.0375 29.4939 11.0374H34.9223Z" fill="#A5ECA9"/>
</g>
<rect x="27.3167" y="9.55786" width="9.78041" height="2.95711" rx="1.47855" fill="#7AD57F"/>
<rect x="23.3245" y="33.9905" width="2.40479" height="16.7902" rx="1.20239" fill="white" fill-opacity="0.45"/>
<defs>
<filter id="filter0_i_1662_1856" x="21.9661" y="11.0374" width="20.4814" height="42.4048" filterUnits="userSpaceOnUse" color-interpolation-filters="sRGB">
<feFlood flood-opacity="0" result="BackgroundImageFix"/>
<feBlend mode="normal" in="SourceGraphic" in2="BackgroundImageFix" result="shape"/>
<feColorMatrix in="SourceAlpha" type="matrix" values="0 0 0 0 0 0 0 0 0 0 0 0 0 0 0 0 0 0 127 0" result="hardAlpha"/>
<feOffset dx="-3"/>
<feComposite in2="hardAlpha" operator="arithmetic" k2="-1" k3="1"/>
<feColorMatrix type="matrix" values="0 0 0 0 0.550111 0 0 0 0 0.841346 0 0 0 0 0.5689 0 0 0 1 0"/>
<feBlend mode="normal" in2="shape" result="effect1_innerShadow_1662_1856"/>
</filter>
</defs>
</svg>
