<svg width="24" height="25" viewBox="0 0 24 25" fill="none" xmlns="http://www.w3.org/2000/svg">
<rect y="0.5" width="24" height="24" rx="12" fill="#2F2F2E"/>
<path d="M10.762 15.2539L16.7907 9.21381C16.933 9.07127 17.099 9 17.2886 9C17.4783 9 17.6443 9.07127 17.7866 9.21381C17.9289 9.35635 18 9.52573 18 9.72196C18 9.91819 17.9289 10.0873 17.7866 10.2294L11.2599 16.7862C11.1176 16.9287 10.9517 17 10.762 17C10.5723 17 10.4063 16.9287 10.264 16.7862L7.2052 13.7216C7.06293 13.5791 6.99464 13.4099 7.00033 13.2142C7.00602 13.0184 7.08024 12.849 7.22298 12.706C7.36573 12.563 7.53479 12.4917 7.73018 12.4922C7.92556 12.4927 8.09439 12.5639 8.23666 12.706L10.762 15.2539Z" fill="white"/>
</svg>
