<svg width="131" height="148" viewBox="0 0 131 148" fill="none" xmlns="http://www.w3.org/2000/svg">
<g clip-path="url(#clip0_1796_2241)">
<g filter="url(#filter0_d_1796_2241)">
<path d="M12.8585 12.3498C12.8585 9.5063 15.1636 7.20117 18.0072 7.20117H80.1948L94.8331 21.9116L112.399 39.5641V125.62C112.399 128.464 110.094 130.769 107.25 130.769H18.0072C15.1637 130.769 12.8585 128.464 12.8585 125.62V12.3498Z" fill="white"/>
</g>
<path d="M112.403 39.5629L80.2201 7.20117L80.6042 36.3956C80.6291 38.2839 82.1746 39.7974 84.063 39.7828L112.403 39.5629Z" fill="#E5E7E7"/>
<path d="M97.0954 108.998L89.956 116.116L77.4595 103.658L84.5989 96.54L97.0954 108.998Z" fill="#B9B9B9"/>
<path d="M62.2521 47.5488C81.0745 47.549 96.3334 62.8077 96.3335 81.6302C96.3335 100.453 81.0746 115.711 62.2521 115.712C43.4294 115.712 28.1707 100.453 28.1707 81.6302C28.1707 62.8076 43.4294 47.5488 62.2521 47.5488ZM62.2521 56.0712C48.1361 56.0712 36.6924 67.5142 36.6924 81.6302C36.6924 95.7463 48.136 107.19 62.2521 107.19C76.3679 107.19 87.811 95.7462 87.811 81.6302C87.811 67.5143 76.3679 56.0714 62.2521 56.0712Z" fill="#C6C8CA"/>
<path d="M62.5 110C77.6878 110 90 97.464 90 82C90 66.536 77.6878 54 62.5 54C47.3122 54 35 66.536 35 82C35 97.464 47.3122 110 62.5 110Z" fill="#F4F4F4"/>
<path d="M50.6464 70.0244L73.858 93.236" stroke="#656769" stroke-width="4.29054" stroke-linecap="round"/>
<path d="M73.8579 70.0244L50.6463 93.236" stroke="#656769" stroke-width="4.29054" stroke-linecap="round"/>
<path d="M121.681 125.058L102.145 105.582C101.198 104.639 99.9143 104.108 98.5755 104.108C97.2367 104.108 95.9526 104.639 95.0058 105.582L87.8664 112.7C86.9198 113.644 86.3881 114.924 86.3881 116.259C86.3881 117.593 86.9198 118.874 87.8664 119.817L107.402 139.293C108.333 140.255 109.448 141.022 110.68 141.549C111.912 142.077 113.237 142.355 114.578 142.366C115.918 142.378 117.248 142.123 118.489 141.617C119.73 141.111 120.858 140.363 121.806 139.418C122.754 138.473 123.504 137.349 124.012 136.112C124.519 134.874 124.775 133.549 124.763 132.212C124.751 130.875 124.473 129.554 123.944 128.326C123.414 127.098 122.645 125.987 121.681 125.058Z" fill="#636B70"/>
<path d="M99.3065 109.774L118.802 129.27" stroke="white" stroke-opacity="0.2" stroke-width="4.39136" stroke-linecap="round"/>
</g>
<defs>
<filter id="filter0_d_1796_2241" x="0.858521" y="-0.798828" width="119.541" height="143.567" filterUnits="userSpaceOnUse" color-interpolation-filters="sRGB">
<feFlood flood-opacity="0" result="BackgroundImageFix"/>
<feColorMatrix in="SourceAlpha" type="matrix" values="0 0 0 0 0 0 0 0 0 0 0 0 0 0 0 0 0 0 127 0" result="hardAlpha"/>
<feOffset dx="-2" dy="2"/>
<feGaussianBlur stdDeviation="5"/>
<feComposite in2="hardAlpha" operator="out"/>
<feColorMatrix type="matrix" values="0 0 0 0 0 0 0 0 0 0 0 0 0 0 0 0 0 0 0.1 0"/>
<feBlend mode="normal" in2="BackgroundImageFix" result="effect1_dropShadow_1796_2241"/>
<feBlend mode="normal" in="SourceGraphic" in2="effect1_dropShadow_1796_2241" result="shape"/>
</filter>
<clipPath id="clip0_1796_2241">
<rect width="131" height="148" fill="white"/>
</clipPath>
</defs>
</svg>
