<svg width="27" height="26" viewBox="0 0 27 26" fill="none" xmlns="http://www.w3.org/2000/svg">
<path d="M20.475 0C24.0787 0 27 2.95209 27 6.59368V19.3565C26.9999 22.9814 24.092 25.9199 20.5049 25.92H6.49512C2.90799 25.9199 6.72224e-05 22.9814 0 19.3565V9.77684C3.66043e-07 6.13525 2.92134 3.18316 6.525 3.18316C10.012 3.18316 12.8601 5.94729 13.0408 9.42557H13.95V6.59368C13.95 2.95209 16.8713 4.39451e-08 20.475 0Z" fill="#0AC2A6"/>
<path d="M17.7065 7.85577C17.9466 7.79077 18.1948 7.93434 18.2609 8.17643C18.327 8.41853 18.186 8.66749 17.9459 8.73249L9.58877 10.9953C9.34871 11.0603 9.10052 10.9168 9.03442 10.6747C8.96832 10.4326 9.10934 10.1836 9.3494 10.1186L17.7065 7.85577Z" fill="white"/>
</svg>
