<svg width="64" height="63" viewBox="0 0 64 63" fill="none" xmlns="http://www.w3.org/2000/svg">
<rect x="0.230713" width="63" height="63" rx="5" fill="#C4CCE8"/>
<path d="M15.1689 20.8364H48.2925V48.4937C48.2925 49.5982 47.397 50.4937 46.2925 50.4937H17.1689C16.0644 50.4937 15.1689 49.5982 15.1689 48.4937V20.8364Z" fill="white"/>
<path d="M15.1689 14.5063C15.1689 13.4018 16.0644 12.5063 17.1689 12.5063H46.2925C47.397 12.5063 48.2925 13.4018 48.2925 14.5063V20.8364H15.1689V14.5063Z" fill="#E5E5E5"/>
<circle cx="18.9562" cy="16.6716" r="1.3703" fill="#CACACA"/>
<circle cx="23.5451" cy="16.6716" r="1.3703" fill="#CACACA"/>
<circle cx="31.7307" cy="35.665" r="9.87549" fill="#C7C7C7"/>
<circle cx="31.7308" cy="35.6649" r="7.43396" fill="#D2E7FC"/>
<path d="M38.2279 31.5681C36.4701 33.4822 36.3529 37.2322 38.4637 39.7619C39.4308 38.4987 40.3616 34.6374 38.2279 31.5681Z" fill="#C7C7C7"/>
</svg>
