<svg width="134" height="134" viewBox="0 0 134 134" fill="none" xmlns="http://www.w3.org/2000/svg">
<path fill-rule="evenodd" clip-rule="evenodd" d="M127 67C127 33.862 100.138 7 67 7C33.862 7 7 33.862 7 67C7 100.138 33.862 127 67 127C100.138 127 127 100.138 127 67ZM67 37C68.5913 37 70.1174 37.6321 71.2426 38.7574C72.3679 39.8826 73 41.4087 73 43V73C73 74.5913 72.3679 76.1174 71.2426 77.2426C70.1174 78.3679 68.5913 79 67 79C65.4087 79 63.8826 78.3679 62.7574 77.2426C61.6321 76.1174 61 74.5913 61 73V43C61 41.4087 61.6321 39.8826 62.7574 38.7574C63.8826 37.6321 65.4087 37 67 37ZM61 91C61 89.4087 61.6321 87.8826 62.7574 86.7574C63.8826 85.6321 65.4087 85 67 85H67.048C68.6393 85 70.1654 85.6321 71.2906 86.7574C72.4159 87.8826 73.048 89.4087 73.048 91C73.048 92.5913 72.4159 94.1174 71.2906 95.2426C70.1654 96.3679 68.6393 97 67.048 97H67C65.4087 97 63.8826 96.3679 62.7574 95.2426C61.6321 94.1174 61 92.5913 61 91Z" fill="#EB455B"/>
</svg>
