<svg width="177" height="177" viewBox="0 0 177 177" fill="none" xmlns="http://www.w3.org/2000/svg">
<g clip-path="url(#clip0_2809_4054)">
<path d="M128.387 35.8909C121.546 35.8909 116.001 41.4355 116.001 48.2765L112.718 67.7731L98.4514 53.5069L71.5917 26.6471C71.5917 26.6471 71.5873 26.6427 71.5828 26.6383C66.8392 21.8902 59.2282 21.8106 54.5864 26.4524C49.9446 31.0942 50.0287 38.7052 54.7723 43.4488L81.6409 70.3174L81.6055 70.3573L47.356 36.1078C42.6168 31.3642 35.0102 31.2845 30.3728 35.9219C25.7354 40.5593 25.8195 48.1615 30.5587 52.9051L64.8082 87.1546L64.7551 87.2077L35.5102 57.9628C30.802 53.2546 23.1733 53.2458 18.4696 57.9496C13.7702 62.6489 13.7746 70.282 18.4828 74.9902L27.4213 83.9287C23.2486 81.2074 17.6775 81.61 14.1021 85.1854C9.97798 89.3095 10.0621 96.0798 14.2924 100.306L52.8784 138.892C72.9856 158.999 105.589 158.999 125.696 138.892C135.75 128.838 140.777 115.66 140.777 102.483V48.2765C140.777 41.4355 135.228 35.8909 128.387 35.8909Z" fill="#EFCAB0"/>
<path d="M145.481 40.0772C139.069 40.0772 133.874 45.2765 133.874 51.6884L130.856 69.6008L114.767 53.5115L87.8319 26.5765L87.8275 26.5676C83.7653 22.5099 77.2562 22.4347 73.2825 26.4083C69.3089 30.382 69.3841 36.8912 73.4418 40.9533L100.386 67.8971L97.7528 70.5256L63.4015 36.1743C59.3216 32.0945 52.7771 32.0237 48.7857 36.015C44.7944 40.0064 44.8652 46.5509 48.945 50.6308L83.2963 84.9821L80.6767 87.6017L51.2637 58.1887C47.2768 54.2018 40.8207 54.1973 36.8426 58.1754C32.8646 62.1535 32.869 68.6096 36.8559 72.5965L66.2689 102.009L63.5564 104.726L45.79 86.96C41.75 82.9156 35.2806 82.8359 31.3424 86.7742C27.4041 90.7124 27.4838 97.1818 31.5238 101.222L49.2946 118.993L55.9896 125.688L68.3885 138.087L69.1982 138.896C89.3054 159.003 121.909 159.003 142.016 138.896C152.07 128.843 157.096 115.665 157.096 102.487V51.6884C157.096 45.2765 151.897 40.0772 145.49 40.0772H145.481Z" fill="#FFE7D5"/>
<path d="M114.515 26.368C118.19 26.368 121.17 23.3884 121.17 19.7128C121.17 16.0373 118.19 13.0576 114.515 13.0576C110.839 13.0576 107.859 16.0373 107.859 19.7128C107.859 23.3884 110.839 26.368 114.515 26.368Z" fill="#EDCCF8"/>
<path d="M47.7372 160.455C51.4128 160.455 54.3924 157.475 54.3924 153.8C54.3924 150.124 51.4128 147.145 47.7372 147.145C44.0617 147.145 41.082 150.124 41.082 153.8C41.082 157.475 44.0617 160.455 47.7372 160.455Z" fill="#F66570"/>
<path d="M148.778 6.88248L139.355 11.6353C137.396 12.6236 136.609 15.0132 137.597 16.9727L142.35 26.3955C143.338 28.355 145.728 29.1422 147.687 28.1539L157.11 23.4011C159.07 22.4128 159.857 20.0231 158.869 18.0637L154.116 8.64084C153.127 6.6814 150.738 5.89415 148.778 6.88248Z" fill="#0AC2A6"/>
<path d="M29.0763 142.075L26.4087 133.683C25.8534 131.937 23.9873 130.971 22.2405 131.526L13.8485 134.193C12.1018 134.749 11.1359 136.615 11.6911 138.362L14.3587 146.754C14.9139 148.5 16.7801 149.466 18.5269 148.911L26.9188 146.243C28.6656 145.688 29.6315 143.822 29.0763 142.075Z" fill="#0AC2A6"/>
<path d="M166.319 44.1385C169.995 44.1385 172.974 41.1589 172.974 37.4833C172.974 33.8078 169.995 30.8281 166.319 30.8281C162.644 30.8281 159.664 33.8078 159.664 37.4833C159.664 41.1589 162.644 44.1385 166.319 44.1385Z" fill="#FFE38F"/>
</g>
<defs>
<clipPath id="clip0_2809_4054">
<rect width="177" height="177" fill="white"/>
</clipPath>
</defs>
</svg>
