<svg width="30" height="30" viewBox="0 0 30 30" fill="none" xmlns="http://www.w3.org/2000/svg">
<circle cx="15" cy="15" r="15" fill="white"/>
<path d="M15 5.375C13.0964 5.375 11.2355 5.9395 9.65264 6.9971C8.06982 8.05471 6.83616 9.55793 6.10766 11.3167C5.37917 13.0754 5.18856 15.0107 5.55995 16.8777C5.93133 18.7448 6.84802 20.4598 8.1941 21.8059C9.54018 23.152 11.2552 24.0687 13.1223 24.4401C14.9893 24.8114 16.9246 24.6208 18.6833 23.8923C20.4421 23.1638 21.9453 21.9302 23.0029 20.3474C24.0605 18.7645 24.625 16.9036 24.625 15C24.625 12.4473 23.6109 9.99913 21.8059 8.1941C20.0009 6.38906 17.5527 5.375 15 5.375Z" stroke="#6F7274" stroke-width="1.8" stroke-miterlimit="10"/>
<path d="M11.9375 12.0631C11.9375 12.0631 11.9834 11.1061 13.0077 10.282C13.6153 9.79252 14.3438 9.65088 15 9.64104C15.5977 9.63338 16.1315 9.73237 16.4509 9.8844C16.9977 10.1447 18.0625 10.7802 18.0625 12.1315C18.0625 13.5534 17.1328 14.1992 16.0735 14.9096C15.0142 15.62 14.7266 16.3911 14.7266 17.1879" stroke="#6F7274" stroke-width="1.8" stroke-miterlimit="10" stroke-linecap="round"/>
<path d="M14.6719 21.125C15.2759 21.125 15.7656 20.6353 15.7656 20.0312C15.7656 19.4272 15.2759 18.9375 14.6719 18.9375C14.0678 18.9375 13.5781 19.4272 13.5781 20.0312C13.5781 20.6353 14.0678 21.125 14.6719 21.125Z" fill="#6F7274"/>
</svg>
