<svg width="28" height="28" viewBox="0 0 28 28" fill="none" xmlns="http://www.w3.org/2000/svg">
<path d="M14 4.375C12.0964 4.375 10.2355 4.9395 8.65264 5.9971C7.06982 7.05471 5.83616 8.55793 5.10766 10.3167C4.37917 12.0754 4.18856 14.0107 4.55995 15.8777C4.93133 17.7448 5.84802 19.4598 7.1941 20.8059C8.54018 22.152 10.2552 23.0687 12.1223 23.4401C13.9893 23.8114 15.9246 23.6208 17.6833 22.8923C19.4421 22.1638 20.9453 20.9302 22.0029 19.3474C23.0605 17.7645 23.625 15.9036 23.625 14C23.625 11.4473 22.6109 8.99913 20.8059 7.1941C19.0009 5.38906 16.5527 4.375 14 4.375Z" stroke="#A3A6A8" stroke-width="1.8" stroke-miterlimit="10"/>
<path d="M10.9375 11.0631C10.9375 11.0631 10.9834 10.1061 12.0077 9.28198C12.6153 8.79252 13.3438 8.65088 14 8.64104C14.5977 8.63338 15.1315 8.73237 15.4509 8.8844C15.9977 9.14471 17.0625 9.78018 17.0625 11.1315C17.0625 12.5534 16.1328 13.1992 15.0735 13.9096C14.0142 14.62 13.7266 15.3911 13.7266 16.1879" stroke="#A3A6A8" stroke-width="1.8" stroke-miterlimit="10" stroke-linecap="round"/>
<path d="M13.6719 20.125C14.2759 20.125 14.7656 19.6353 14.7656 19.0312C14.7656 18.4272 14.2759 17.9375 13.6719 17.9375C13.0678 17.9375 12.5781 18.4272 12.5781 19.0312C12.5781 19.6353 13.0678 20.125 13.6719 20.125Z" fill="#A3A6A8"/>
</svg>
