<svg width="330" height="60" viewBox="0 0 330 60" fill="none" xmlns="http://www.w3.org/2000/svg">
<rect width="330" height="60" rx="30" fill="#FEE500"/>
<g clip-path="url(#clip0_1404_5645)">
<path fill-rule="evenodd" clip-rule="evenodd" d="M90.0001 15.9667C81.9915 15.9667 75.5 20.982 75.5 27.1676C75.5 31.0146 78.0108 34.4059 81.8341 36.423L80.2255 42.2996C80.0833 42.8188 80.6772 43.2327 81.1332 42.9318L88.1849 38.2778C88.78 38.3352 89.3847 38.3687 90.0001 38.3687C98.0081 38.3687 104.5 33.3535 104.5 27.1676C104.5 20.982 98.0081 15.9667 90.0001 15.9667Z" fill="black"/>
</g>
<path d="M133.289 23.2383C133.289 28.0371 131.971 32.1504 126.117 35.0684L125.045 33.5918C127.796 32.2295 129.431 30.6475 130.354 28.7578L125.414 29.2324L125.168 27.5449L130.951 27.1758C131.153 26.4375 131.276 25.6553 131.338 24.8203H125.994V23.2383H133.289ZM137.473 21.6738V27.8965H139.828V29.4961H137.473V37.5293H135.521V21.6738H137.473ZM148.846 23.2383C148.846 28.0371 147.527 32.1504 141.674 35.0684L140.602 33.5918C143.353 32.2295 144.987 30.6475 145.91 28.7578L140.971 29.2324L140.725 27.5449L146.508 27.1758C146.71 26.4375 146.833 25.6553 146.895 24.8203H141.551V23.2383H148.846ZM153.029 21.6738V27.8965H155.385V29.4961H153.029V37.5293H151.078V21.6738H153.029ZM163.365 22.5703C166.775 22.5703 169.289 24.2754 169.289 26.8594C169.289 29.2412 167.241 30.832 164.332 31.1133V34.0312H170.66V35.6309H156.141V34.0312H162.398V31.1133C159.507 30.832 157.459 29.2412 157.477 26.8594C157.459 24.2754 159.973 22.5703 163.365 22.5703ZM163.365 24.1523C161.045 24.1348 159.375 25.1895 159.393 26.8594C159.375 28.582 161.045 29.6016 163.365 29.6016C165.721 29.6016 167.373 28.582 167.373 26.8594C167.373 25.1895 165.721 24.1348 163.365 24.1523ZM186.217 34.1016V35.7188H171.697V34.1016H177.955V31.5176H173.42V26.3145H182.561V24.3457H173.385V22.7637H184.494V27.8613H175.371V29.918H184.863V31.5176H179.889V34.1016H186.217ZM197.537 25.4883C197.52 28.4062 199.049 31.3242 201.633 32.4316L200.473 33.9961C198.645 33.1523 197.3 31.4648 196.57 29.3906C195.841 31.6318 194.479 33.46 192.545 34.3652L191.35 32.7305C194.004 31.5879 195.551 28.5469 195.551 25.4883V22.957H197.537V25.4883ZM204.744 21.6738V37.582H202.775V21.6738H204.744ZM212.777 24.4336C212.777 26.3848 214.043 28.3184 216.539 29.1445L215.555 30.6562C213.779 30.0674 212.514 28.8721 211.828 27.3867C211.116 29.0127 209.798 30.3047 207.943 30.9375L206.906 29.4258C209.473 28.582 210.809 26.5254 210.809 24.4336V24.2402H207.451V22.6758H216.082V24.2402H212.777V24.4336ZM219.615 21.6738V25.6465H221.83V27.2812H219.615V31.2539H217.664V21.6738H219.615ZM219.615 31.9922V37.5645H217.664V33.5566H209.033V31.9922H219.615ZM235.084 21.6738V28.002H237.527V29.6191H235.084V37.5645H233.15V21.6738H235.084ZM231.92 24.1172V25.6816H222.551V24.1172H226.312V21.9023H228.264V24.1172H231.92ZM227.297 26.7188C229.582 26.7188 231.287 28.2656 231.287 30.4629C231.287 32.6602 229.582 34.1895 227.297 34.1895C224.977 34.1895 223.271 32.6602 223.289 30.4629C223.271 28.2656 224.977 26.7188 227.297 26.7188ZM227.297 28.3184C226.049 28.3184 225.152 29.1621 225.152 30.4629C225.152 31.7637 226.049 32.5898 227.297 32.5723C228.51 32.5898 229.406 31.7637 229.424 30.4629C229.406 29.1621 228.51 28.3184 227.297 28.3184ZM251.467 21.6738V37.5645H249.498V21.6738H251.467ZM246.721 23.3613C246.721 28.0898 244.893 32.1152 239.32 34.752L238.301 33.1875C242.458 31.21 244.392 28.5205 244.734 24.9082H239.109V23.3613H246.721Z" fill="black" fill-opacity="0.85"/>
<defs>
<clipPath id="clip0_1404_5645">
<rect width="29" height="29.0001" fill="white" transform="translate(75.5 15)"/>
</clipPath>
</defs>
</svg>
