<svg width="241" height="212" viewBox="0 0 241 212" fill="none" xmlns="http://www.w3.org/2000/svg">
<g clip-path="url(#clip0_1793_2211)">
<path d="M103.836 95.2069L53.9276 45.2986L130.847 14.0332L158.836 51.9354L103.836 95.2069Z" fill="#F7E28C"/>
<path d="M103 94.075L53.0917 44.1666L67.327 21.6479L166.158 44.1666L103 94.075Z" fill="#FFEEAA"/>
<g filter="url(#filter0_i_1793_2211)">
<path d="M132.15 194.333H73.85C65.0167 194.333 57.5083 188.15 56.1833 179.317L36.75 48.5833H169.25L149.375 179.317C148.05 188.15 140.542 194.333 132.15 194.333Z" fill="#74DDCD"/>
</g>
<path d="M164.833 57.4167H41.1667C36.3083 57.4167 32.3333 53.4417 32.3333 48.5833C32.3333 43.725 36.3083 39.75 41.1667 39.75H164.833C169.692 39.75 173.667 43.725 173.667 48.5833C173.667 53.4417 169.692 57.4167 164.833 57.4167Z" fill="#A0F0E3"/>
<path d="M137.174 180.434L155.066 66.7231" stroke="white" stroke-opacity="0.3" stroke-width="10" stroke-linecap="round"/>
<g clip-path="url(#clip1_1793_2211)">
<path d="M210.14 162.3L200.007 172.434L182.269 154.697L192.403 144.563L210.14 162.3Z" fill="#9AAAB4"/>
<path d="M236.281 178.311L215.214 157.244C213.87 155.901 212.048 155.146 210.147 155.146C208.247 155.146 206.425 155.901 205.081 157.244L194.947 167.378C193.603 168.722 192.849 170.544 192.849 172.445C192.849 174.345 193.603 176.168 194.947 177.512L216.013 198.578C217.336 199.947 218.917 201.039 220.666 201.79C222.415 202.541 224.295 202.937 226.199 202.953C228.102 202.97 229.989 202.607 231.751 201.886C233.512 201.166 235.113 200.102 236.458 198.756C237.804 197.41 238.868 195.81 239.589 194.048C240.31 192.287 240.673 190.399 240.656 188.496C240.639 186.593 240.244 184.712 239.493 182.963C238.742 181.215 237.65 179.633 236.281 178.311Z" fill="#66757F"/>
<path d="M210.14 162.578L233.667 186.105" stroke="white" stroke-opacity="0.2" stroke-width="7" stroke-linecap="round"/>
<path d="M160.683 159.259C180.719 159.259 196.962 143.017 196.962 122.981C196.962 102.944 180.719 86.7019 160.683 86.7019C140.647 86.7019 124.404 102.944 124.404 122.981C124.404 143.017 140.647 159.259 160.683 159.259Z" fill="#E3FAFF" fill-opacity="0.64"/>
<path d="M160.684 74.6055C187.4 74.6057 209.059 96.2639 209.059 122.98C209.059 149.697 187.4 171.355 160.684 171.355C133.967 171.355 112.309 149.697 112.309 122.98C112.309 96.2638 133.967 74.6055 160.684 74.6055ZM160.684 86.7021C140.647 86.7021 124.404 102.944 124.404 122.98C124.404 143.017 140.647 159.26 160.684 159.26C180.72 159.26 196.962 143.017 196.962 122.98C196.962 102.944 180.72 86.7024 160.684 86.7021Z" fill="#A5B5C2"/>
</g>
</g>
<defs>
<filter id="filter0_i_1793_2211" x="36.75" y="48.5833" width="132.5" height="145.75" filterUnits="userSpaceOnUse" color-interpolation-filters="sRGB">
<feFlood flood-opacity="0" result="BackgroundImageFix"/>
<feBlend mode="normal" in="SourceGraphic" in2="BackgroundImageFix" result="shape"/>
<feColorMatrix in="SourceAlpha" type="matrix" values="0 0 0 0 0 0 0 0 0 0 0 0 0 0 0 0 0 0 127 0" result="hardAlpha"/>
<feOffset dx="14"/>
<feComposite in2="hardAlpha" operator="arithmetic" k2="-1" k3="1"/>
<feColorMatrix type="matrix" values="0 0 0 0 0 0 0 0 0 0 0 0 0 0 0 0 0 0 0.1 0"/>
<feBlend mode="normal" in2="shape" result="effect1_innerShadow_1793_2211"/>
</filter>
<clipPath id="clip0_1793_2211">
<rect width="241" height="212" fill="white"/>
</clipPath>
<clipPath id="clip1_1793_2211">
<rect width="129" height="129" fill="white" transform="translate(112 74)"/>
</clipPath>
</defs>
</svg>
