<svg width="60" height="60" viewBox="0 0 60 60" fill="none" xmlns="http://www.w3.org/2000/svg">
<path d="M0 30C0 13.4315 13.4315 0 30 0C46.5685 0 60 13.4315 60 30C60 46.5685 46.5685 60 30 60C13.4315 60 0 46.5685 0 30Z" fill="#F0F2F3"/>
<path d="M22.4583 41.125C21.7479 41.125 21.14 40.8723 20.6345 40.3668C20.129 39.8613 19.8759 39.2529 19.875 38.5417V20.4583C19.875 19.7479 20.1282 19.14 20.6345 18.6345C21.1408 18.129 21.7488 17.8759 22.4583 17.875H30.2083C30.5743 17.875 30.8813 17.999 31.1293 18.247C31.3773 18.495 31.5009 18.8016 31.5 19.1667C31.4991 19.5318 31.3751 19.8388 31.128 20.0876C30.8809 20.3365 30.5743 20.4601 30.2083 20.4583H22.4583V38.5417H30.2083C30.5743 38.5417 30.8813 38.6657 31.1293 38.9137C31.3773 39.1617 31.5009 39.4682 31.5 39.8333C31.4991 40.1984 31.3751 40.5054 31.128 40.7543C30.8809 41.0032 30.5743 41.1267 30.2083 41.125H22.4583ZM38.1844 30.7917H28.9167C28.5507 30.7917 28.2441 30.6677 27.997 30.4197C27.7499 30.1717 27.6259 29.8651 27.625 29.5C27.6241 29.1349 27.7481 28.8283 27.997 28.5803C28.2459 28.3323 28.5524 28.2083 28.9167 28.2083H38.1844L35.7625 25.7865C35.5257 25.5497 35.4073 25.259 35.4073 24.9146C35.4073 24.5701 35.5257 24.2687 35.7625 24.0104C35.9993 23.7521 36.3007 23.6173 36.6667 23.6061C37.0326 23.5949 37.3448 23.7189 37.6031 23.9781L42.2208 28.5958C42.4792 28.8542 42.6083 29.1556 42.6083 29.5C42.6083 29.8444 42.4792 30.1458 42.2208 30.4042L37.6031 35.0219C37.3448 35.2802 37.0382 35.4042 36.6835 35.3939C36.3287 35.3835 36.0217 35.2488 35.7625 34.9896C35.5257 34.7312 35.4129 34.4247 35.4241 34.0699C35.4353 33.7151 35.5588 33.4189 35.7948 33.1812L38.1844 30.7917Z" fill="#6F7274"/>
</svg>
