<svg width="162" height="142" viewBox="0 0 162 142" fill="none" xmlns="http://www.w3.org/2000/svg">
<path d="M29.9458 33.9485L29.388 10.2233L21.6172 16.2673L17.3 53.3946L50.9737 58.5752L52.7005 47.3506L40.9439 45.9972C34.7849 45.2881 30.0915 40.1465 29.9458 33.9485Z" fill="#9B86EF"/>
<path d="M79.223 117.733L69.1078 119.878L76.8786 41.3061C85.1675 42.6876 83.786 20.5838 82.0592 9.35929C79.1811 8.20819 75.4971 5.73331 83.786 5.04257C92.0749 4.35183 94.1471 12.2378 94.1471 16.2671C96.2606 48.5382 97.3279 68.903 97.5649 95.0453C97.6642 106.008 89.9479 115.458 79.223 117.733Z" fill="#9B86EF"/>
<path d="M23.3178 5.0437H19.3526C16.576 5.0437 14.1348 6.88719 13.3841 9.56035C3.61217 44.3548 -1.2893 67.1363 0.292415 94.1414C1.17076 109.138 14.4097 119.879 29.4317 119.879H72.9174C88.4054 119.879 101.137 107.273 100.327 91.8059C99.7171 80.1753 98.6139 69.3938 96.6829 55.1225C87.1025 45.7471 83.5576 37.311 81.192 17.1317C80.8646 9.05808 81.907 6.57381 85.5092 5.0437H78.364C73.5923 5.0437 69.5919 8.64902 69.0976 13.3951L67.1003 32.5693C66.2763 40.4793 59.609 46.4882 51.6561 46.4882H33.3088C27.3232 46.4882 22.8906 40.9248 24.2276 35.0904L29.372 12.6422C30.2633 8.75265 27.3082 5.0437 23.3178 5.0437Z" fill="#C4B9FF"/>
<path d="M10.264 87.9753C11.9319 88.1516 13.1423 89.6452 12.9671 91.3134C12.7485 93.3903 13.0869 96.7569 14.8304 99.7579C16.4954 102.623 19.5447 105.352 25.2184 106.274C26.8742 106.543 27.9975 108.104 27.7286 109.76C27.4595 111.416 25.8985 112.542 24.2422 112.273C16.7739 111.06 12.1546 107.25 9.57562 102.811C7.07575 98.5083 6.59421 93.8039 6.92299 90.6784C7.09859 89.0096 8.59517 87.7997 10.264 87.9753Z" fill="white" fill-opacity="0.3"/>
<path d="M98.6454 137.031C95.4089 141.413 89.2326 142.342 84.8502 139.105L61.0452 121.525C56.6628 118.288 55.7339 112.112 58.9704 107.73L79.7876 79.5421C81.5186 77.1983 83.7197 75.2233 86.2341 73.7509C87.2394 73.1621 87.9645 72.1841 88.2315 71.0501C88.902 68.2021 90.1525 65.5229 91.9049 63.1798L108.942 40.4004L108.954 40.409C110.572 38.6676 112.384 37.1208 114.434 35.9099C120.102 32.5628 125.331 30.9134 134.006 29.4532C134.856 29.3102 135.622 28.8468 136.133 28.154L139.242 23.9449L155.112 35.6653L152.058 39.8007C151.514 40.5369 151.305 41.4686 151.464 42.3699C152.993 51.058 152.807 56.5034 151.013 63.1635C150.413 65.387 149.47 67.4893 148.306 69.4715L148.318 69.4801L131.538 92.4529C129.813 94.8144 127.621 96.7957 125.097 98.2736C124.091 98.8631 123.368 99.8444 123.101 100.98C122.433 103.816 121.194 106.499 119.463 108.843L98.6454 137.031Z" fill="#C3F3FB"/>
<path d="M152.057 39.8019C151.514 40.5378 151.305 41.4703 151.464 42.3711C152.993 51.0588 152.81 56.5043 151.015 63.1642C150.416 65.3875 149.47 67.4887 148.306 69.4707L148.319 69.4801L131.54 92.4528C129.815 94.8143 127.62 96.7964 125.097 98.2742C124.091 98.8637 123.37 99.8451 123.102 100.98C122.435 103.816 121.193 106.5 119.462 108.844L98.6449 137.032C95.4082 141.413 89.2333 142.34 84.8512 139.104L78.2403 134.222C82.6222 137.457 88.7974 136.531 92.0339 132.149L112.851 103.962C114.582 101.618 115.821 98.9321 116.489 96.0959C116.756 94.9608 117.48 93.9812 118.486 93.3918C121.009 91.914 123.202 89.9301 124.927 87.5686L141.705 64.5958L141.695 64.5884C142.859 62.6063 143.802 60.5034 144.401 58.28C146.196 51.6201 146.379 46.1748 144.85 37.4869C144.692 36.5862 144.903 35.6554 145.446 34.9195L148.501 30.7826L155.112 35.665L152.057 39.8019Z" fill="#82CDDB"/>
<path d="M141.829 17.6767C143.447 15.4855 146.535 15.0211 148.726 16.6393L159.306 24.4529C161.498 26.0712 161.962 29.1593 160.344 31.3505L156.437 36.6405C155.898 37.3709 154.868 37.5257 154.138 36.9863L138.268 25.2659C137.537 24.7265 137.383 23.6971 137.922 22.9667L141.829 17.6767Z" fill="#4B98A7"/>
<path d="M83.4248 80.3704C84.3258 79.1315 86.0593 78.8572 87.2982 79.7582C88.5367 80.6591 88.8107 82.3928 87.9103 83.6316L65.5233 114.413C64.6224 115.651 62.8888 115.926 61.6499 115.025C60.4112 114.124 60.1371 112.39 61.0378 111.151L83.4248 80.3704Z" fill="white" fill-opacity="0.4"/>
<path d="M111.777 42.2905C112.686 41.0569 114.423 40.7919 115.656 41.7C116.89 42.6082 117.152 44.3452 116.244 45.5788L97.4432 71.1213C96.5352 72.3548 94.798 72.6195 93.5644 71.7118C92.3309 70.8038 92.0663 69.0667 92.9739 67.833L111.777 42.2905Z" fill="white" fill-opacity="0.4"/>
<path d="M90.6046 74.8889L122.199 98.2202" stroke="#82CDDB" stroke-width="1.64406" stroke-linecap="round"/>
<path d="M113.067 41.4008L146.129 65.8182" stroke="#82CDDB" stroke-width="1.64406" stroke-linecap="round"/>
<path d="M101.345 57.2704L134.407 81.6878" stroke="#82CDDB" stroke-width="1.64406" stroke-linecap="round"/>
<path d="M73.021 95.6239L106.083 120.041" stroke="#82CDDB" stroke-width="1.64406" stroke-linecap="round"/>
</svg>
