<svg width="167" height="167" viewBox="0 0 167 167" fill="none" xmlns="http://www.w3.org/2000/svg">
<path d="M83.6919 74.5827L44.6182 35.4872L104.863 11.0192L126.774 40.7076L83.6919 74.5827Z" fill="#F7E28C"/>
<path d="M83.0377 73.6958L43.964 34.6003L55.1169 16.9684L132.51 34.625L83.0377 73.6958Z" fill="#FFEEAA"/>
<g filter="url(#filter0_i_1833_1976)">
<path d="M105.844 152.217L60.1874 152.204C53.2698 152.202 47.3911 147.358 46.3554 140.441L31.1651 38.0554L134.93 38.0843L119.336 140.461C118.297 147.378 112.415 152.219 105.844 152.217Z" fill="#74DDCD"/>
</g>
<path d="M131.469 45.0011L34.6227 44.9741C30.818 44.9731 27.7059 41.8593 27.707 38.0546C27.708 34.2499 30.8218 31.1378 34.6265 31.1389L131.473 31.1658C135.278 31.1669 138.39 34.2807 138.389 38.0854C138.388 41.8901 135.274 45.0022 131.469 45.0011Z" fill="#A0F0E3"/>
<path d="M109.781 141.334L123.817 52.2871" stroke="white" stroke-opacity="0.3" stroke-width="5.28302" stroke-linecap="round"/>
<g clip-path="url(#clip0_1833_1976)">
<path d="M76.9906 73.613C78.3917 71.3647 80.8568 70.005 83.4976 70.0057C86.1384 70.0064 88.6027 71.3675 90.0025 73.6166L93.09 78.5549L95.251 77.3071C95.9233 76.9152 96.7636 76.9715 97.3796 77.4438C97.9957 77.9161 98.2675 78.7164 98.0673 79.4686L96.1928 86.4621C95.9204 87.4863 94.8639 88.0942 93.8397 87.8219L86.8461 85.9474C86.094 85.7471 85.542 85.1148 85.4382 84.3465C85.3343 83.5782 85.7107 82.8181 86.383 82.4342L88.656 81.1224L85.6564 76.3282C85.1925 75.5838 84.3764 75.1275 83.4961 75.1272C82.6159 75.127 81.7995 75.5829 81.3352 76.327L79.9341 78.5673C79.1976 79.7514 77.645 80.1271 76.4449 79.4065C75.2207 78.67 74.829 77.0694 75.5896 75.8532L76.9906 73.613ZM97.3761 90.1676C98.5766 89.4477 100.129 89.8242 100.865 91.0088L102.817 94.1382C103.568 95.3468 103.968 96.7313 103.984 98.1558C104.007 102.405 100.565 105.869 96.3154 105.868L88.6091 105.858L88.6084 108.419C88.6082 109.195 88.1438 109.899 87.4236 110.195C86.7033 110.491 85.8791 110.33 85.327 109.778L80.207 104.655C79.4549 103.903 79.4553 102.686 80.2077 101.942L85.3307 96.8222C85.883 96.2702 86.7073 96.1103 87.4274 96.4066C88.1475 96.7029 88.6115 97.4073 88.6112 98.1835L88.6105 100.744L96.3088 100.746C97.7172 100.747 98.8619 99.5948 98.8543 98.1863C98.8544 97.7142 98.7185 97.25 98.4705 96.8498L96.5188 93.7204C95.7589 92.5038 96.1435 90.9034 97.3761 90.1676ZM68.2001 87.6787L65.8878 86.3417C65.2157 85.9493 64.8398 85.197 64.944 84.4288C65.0483 83.6606 65.6006 83.0286 66.3529 82.8287L73.3475 80.9581C74.3719 80.6863 75.428 81.2948 75.6998 82.3192L77.5704 89.3058C77.7703 90.0581 77.498 90.8502 76.8817 91.3302C76.2654 91.8102 75.4251 91.8579 74.753 91.4656L72.6327 90.2407L68.5097 96.8335C68.2615 97.2335 68.1253 97.6976 68.1252 98.1698C68.1168 99.5782 69.2608 100.731 70.6692 100.731L73.246 100.732C74.6624 100.732 75.8064 101.877 75.806 103.293C75.8056 104.71 74.661 105.854 73.2445 105.853L70.6678 105.853C66.4185 105.852 62.9785 102.394 63.0037 98.1364C63.0121 96.7119 63.4126 95.3276 64.1731 94.1195L68.2001 87.6787Z" fill="#F7F8F9"/>
</g>
<defs>
<filter id="filter0_i_1833_1976" x="31.1651" y="38.0554" width="103.764" height="114.162" filterUnits="userSpaceOnUse" color-interpolation-filters="sRGB">
<feFlood flood-opacity="0" result="BackgroundImageFix"/>
<feBlend mode="normal" in="SourceGraphic" in2="BackgroundImageFix" result="shape"/>
<feColorMatrix in="SourceAlpha" type="matrix" values="0 0 0 0 0 0 0 0 0 0 0 0 0 0 0 0 0 0 127 0" result="hardAlpha"/>
<feOffset dx="7.39623"/>
<feComposite in2="hardAlpha" operator="arithmetic" k2="-1" k3="1"/>
<feColorMatrix type="matrix" values="0 0 0 0 0 0 0 0 0 0 0 0 0 0 0 0 0 0 0.1 0"/>
<feBlend mode="normal" in2="shape" result="effect1_innerShadow_1833_1976"/>
</filter>
<clipPath id="clip0_1833_1976">
<rect width="40.9722" height="40.9722" fill="white" transform="translate(63.0114 70) rotate(0.0159459)"/>
</clipPath>
</defs>
</svg>
