<svg width="87" height="87" viewBox="0 0 87 87" fill="none" xmlns="http://www.w3.org/2000/svg">
<path d="M43.5 0C67.5244 0 87 19.4756 87 43.5C87 67.5244 67.5244 87 43.5 87C19.4756 87 0 67.5244 0 43.5C0 19.4756 19.4756 0 43.5 0Z" fill="#F0F2F3"/>
<path d="M43.5 0C67.5244 0 87 19.4756 87 43.5C87 67.5244 67.5244 87 43.5 87C19.4756 87 0 67.5244 0 43.5C0 19.4756 19.4756 0 43.5 0Z" stroke="#E5E7EB"/>
<path d="M44.7237 60.734C48.5495 56.0538 57.275 44.7104 57.275 38.3388C57.275 30.6113 50.8613 24.3418 42.9562 24.3418C35.0511 24.3418 28.6375 30.6113 28.6375 38.3388C28.6375 44.7104 37.3629 56.0538 41.1887 60.734C42.106 61.8494 43.8064 61.8494 44.7237 60.734ZM42.9562 33.6731C44.2221 33.6731 45.4361 34.1647 46.3312 35.0397C47.2263 35.9147 47.7291 37.1014 47.7291 38.3388C47.7291 39.5762 47.2263 40.7629 46.3312 41.6379C45.4361 42.5129 44.2221 43.0045 42.9562 43.0045C41.6903 43.0045 40.4763 42.5129 39.5812 41.6379C38.6861 40.7629 38.1833 39.5762 38.1833 38.3388C38.1833 37.1014 38.6861 35.9147 39.5812 35.0397C40.4763 34.1647 41.6903 33.6731 42.9562 33.6731Z" fill="#6F7274"/>
</svg>
