<svg width="44" height="44" viewBox="0 0 44 44" fill="none" xmlns="http://www.w3.org/2000/svg">
<path d="M11.4482 8.10393C10.3988 8.10393 9.39233 8.52081 8.65027 9.26287C7.90821 10.0049 7.49132 11.0114 7.49132 12.0608V14.6988C7.49132 15.0486 7.35236 15.384 7.10501 15.6314C6.85765 15.8788 6.52217 16.0177 6.17236 16.0177C5.82255 16.0177 5.48706 15.8788 5.23971 15.6314C4.99236 15.384 4.85339 15.0486 4.85339 14.6988V12.0608C4.85339 10.3118 5.5482 8.63435 6.78497 7.39758C8.02174 6.16081 9.69916 5.466 11.4482 5.466H14.0862C14.436 5.466 14.7714 5.60496 15.0188 5.85231C15.2662 6.09967 15.4051 6.43515 15.4051 6.78496C15.4051 7.13477 15.2662 7.47026 15.0188 7.71761C14.7714 7.96496 14.436 8.10393 14.0862 8.10393H11.4482ZM11.4482 37.055C10.3988 37.055 9.39235 36.6381 8.65029 35.896C7.90823 35.1539 7.49134 34.1475 7.49134 33.0981V30.4601C7.49134 30.1103 7.35238 29.7748 7.10502 29.5275C6.85767 29.2801 6.52219 29.1412 6.17237 29.1412C5.82256 29.1412 5.48708 29.2801 5.23973 29.5275C4.99237 29.7748 4.85341 30.1103 4.85341 30.4601V33.0981C4.85341 34.8471 5.54822 36.5245 6.78499 37.7613C8.02176 38.9981 9.69918 39.6929 11.4482 39.6929H14.0862C14.436 39.6929 14.7715 39.5539 15.0188 39.3066C15.2662 39.0592 15.4051 38.7237 15.4051 38.3739C15.4051 38.0241 15.2662 37.6886 15.0188 37.4413C14.7715 37.1939 14.436 37.055 14.0862 37.055H11.4482ZM36.5086 12.0609C36.5086 11.0115 36.0917 10.005 35.3496 9.26294C34.6076 8.52088 33.6011 8.104 32.5517 8.104H29.9138C29.5639 8.104 29.2285 7.96503 28.9811 7.71768C28.7337 7.47033 28.5948 7.13484 28.5948 6.78503C28.5948 6.43522 28.7337 6.09973 28.9811 5.85238C29.2285 5.60503 29.5639 5.46606 29.9138 5.46606H32.5517C34.3007 5.46606 35.9782 6.16087 37.2149 7.39764C38.4517 8.63441 39.1465 10.3118 39.1465 12.0609V14.6988C39.1465 15.0486 39.0076 15.3841 38.7602 15.6315C38.5128 15.8788 38.1774 16.0178 37.8275 16.0178C37.4777 16.0178 37.1423 15.8788 36.8949 15.6315C36.6475 15.3841 36.5086 15.0486 36.5086 14.6988V12.0609ZM32.5517 37.055C33.6011 37.055 34.6076 36.6381 35.3496 35.896C36.0917 35.1539 36.5086 34.1475 36.5086 33.0981V30.4601C36.5086 30.1103 36.6475 29.7748 36.8949 29.5275C37.1423 29.2801 37.4777 29.1412 37.8275 29.1412C38.1774 29.1412 38.5128 29.2801 38.7602 29.5275C39.0076 29.7748 39.1465 30.1103 39.1465 30.4601V33.0981C39.1465 34.8471 38.4517 36.5245 37.2149 37.7613C35.9782 38.9981 34.3007 39.6929 32.5517 39.6929H29.9138C29.5639 39.6929 29.2285 39.5539 28.9811 39.3066C28.7337 39.0592 28.5948 38.7237 28.5948 38.3739C28.5948 38.0241 28.7337 37.6886 28.9811 37.4413C29.2285 37.1939 29.5639 37.055 29.9138 37.055H32.5517ZM12.7672 20.3777V27.2759C12.7672 27.9755 13.0451 28.6465 13.5398 29.1412C14.0345 29.6359 14.7055 29.9138 15.4051 29.9138H28.5948C29.2944 29.9138 29.9654 29.6359 30.4601 29.1412C30.9548 28.6465 31.2327 27.9755 31.2327 27.2759V20.3777C31.2327 19.6781 30.9548 19.0071 30.4601 18.5124C29.9654 18.0177 29.2944 17.7397 28.5948 17.7397H26.6163L25.0863 15.3128C24.8479 14.9363 24.5179 14.6263 24.1272 14.4118C23.7364 14.1973 23.2977 14.0853 22.852 14.0862H21.1426C20.6976 14.0864 20.2598 14.1993 19.87 14.4142C19.4803 14.6291 19.1513 14.9392 18.9136 15.3155L17.3809 17.7397H15.4051C14.7055 17.7397 14.0345 18.0177 13.5398 18.5124C13.0451 19.0071 12.7672 19.6781 12.7672 20.3777ZM24.6379 23.319C24.6379 24.0186 24.36 24.6896 23.8653 25.1843C23.3706 25.679 22.6996 25.9569 22 25.9569C21.3003 25.9569 20.6294 25.679 20.1347 25.1843C19.64 24.6896 19.362 24.0186 19.362 23.319C19.362 22.6193 19.64 21.9484 20.1347 21.4537C20.6294 20.959 21.3003 20.681 22 20.681C22.6996 20.681 23.3706 20.959 23.8653 21.4537C24.36 21.9484 24.6379 22.6193 24.6379 23.319Z" fill="white"/>
</svg>
