<svg width="30" height="30" viewBox="0 0 30 30" fill="none" xmlns="http://www.w3.org/2000/svg">
<path fill-rule="evenodd" clip-rule="evenodd" d="M17.6129 4.28205C17.6129 4.20725 17.5823 4.13551 17.5279 4.08261C17.4734 4.02972 17.3996 4 17.3226 4H9.19355C8.34657 4 7.53427 4.32688 6.93537 4.90872C6.33646 5.49056 6 6.27971 6 7.10256V22.8974C6 23.7203 6.33646 24.5094 6.93537 25.0913C7.53427 25.6731 8.34657 26 9.19355 26H20.8065C21.6534 26 22.4657 25.6731 23.0646 25.0913C23.6635 24.5094 24 23.7203 24 22.8974V11.7812C24 11.7064 23.9694 11.6347 23.915 11.5818C23.8605 11.5289 23.7867 11.4992 23.7097 11.4992H18.4839C18.2529 11.4992 18.0313 11.41 17.868 11.2513C17.7047 11.0927 17.6129 10.8774 17.6129 10.653V4.28205ZM18.4839 15.2821C18.7149 15.2821 18.9364 15.3712 19.0997 15.5299C19.2631 15.6886 19.3548 15.9038 19.3548 16.1282C19.3548 16.3526 19.2631 16.5678 19.0997 16.7265C18.9364 16.8852 18.7149 16.9744 18.4839 16.9744H11.5161C11.2851 16.9744 11.0636 16.8852 10.9003 16.7265C10.7369 16.5678 10.6452 16.3526 10.6452 16.1282C10.6452 15.9038 10.7369 15.6886 10.9003 15.5299C11.0636 15.3712 11.2851 15.2821 11.5161 15.2821H18.4839ZM18.4839 19.7949C18.7149 19.7949 18.9364 19.884 19.0997 20.0427C19.2631 20.2014 19.3548 20.4166 19.3548 20.641C19.3548 20.8654 19.2631 21.0807 19.0997 21.2393C18.9364 21.398 18.7149 21.4872 18.4839 21.4872H11.5161C11.2851 21.4872 11.0636 21.398 10.9003 21.2393C10.7369 21.0807 10.6452 20.8654 10.6452 20.641C10.6452 20.4166 10.7369 20.2014 10.9003 20.0427C11.0636 19.884 11.2851 19.7949 11.5161 19.7949H18.4839Z" fill="#BABFC0"/>
<path d="M19 4.28931C19 4.05953 19.261 3.91342 19.4543 4.05703C19.6184 4.17941 19.7639 4.32178 19.891 4.48412L23.9649 9.72527C24.0568 9.84515 23.9568 10 23.7972 10H19.338C19.2484 10 19.1624 9.96711 19.099 9.90856C19.0356 9.85001 19 9.7706 19 9.6878V4.28931Z" fill="#BABFC0"/>
</svg>
