<svg width="30" height="30" viewBox="0 0 30 30" fill="none" xmlns="http://www.w3.org/2000/svg">
<path fill-rule="evenodd" clip-rule="evenodd" d="M17.4288 7.113C17.9275 7.267 18.4041 7.465 18.8588 7.707L20.8751 6.497C21.0853 6.3709 21.3317 6.31865 21.575 6.34854C21.8184 6.37843 22.0447 6.48876 22.2182 6.662L23.338 7.7818C23.5112 7.95527 23.6216 8.18164 23.6515 8.42498C23.6814 8.66831 23.6291 8.91466 23.503 9.1249L22.293 11.1412C22.535 11.5959 22.733 12.0725 22.887 12.5712L25.1673 13.1421C25.4052 13.2017 25.6163 13.3391 25.7672 13.5324C25.918 13.7257 26 13.9639 26 14.2091V15.7909C26 16.0361 25.918 16.2743 25.7672 16.4676C25.6163 16.6609 25.4052 16.7983 25.1673 16.8579L22.887 17.4288C22.733 17.9275 22.535 18.4041 22.293 18.8588L23.503 20.8751C23.6291 21.0853 23.6814 21.3317 23.6515 21.575C23.6216 21.8184 23.5112 22.0447 23.338 22.2182L22.2182 23.338C22.0447 23.5112 21.8184 23.6216 21.575 23.6515C21.3317 23.6814 21.0853 23.6291 20.8751 23.503L18.8588 22.293C18.4041 22.535 17.9275 22.733 17.4288 22.887L16.8579 25.1673C16.7983 25.4052 16.6609 25.6163 16.4676 25.7672C16.2743 25.918 16.0361 26 15.7909 26H14.2091C13.9639 26 13.7257 25.918 13.5324 25.7672C13.3391 25.6163 13.2017 25.4052 13.1421 25.1673L12.5712 22.887C12.077 22.7343 11.5982 22.5354 11.1412 22.293L9.1249 23.503C8.91466 23.6291 8.66831 23.6814 8.42498 23.6515C8.18164 23.6216 7.95527 23.5112 7.7818 23.338L6.662 22.2182C6.48876 22.0447 6.37843 21.8184 6.34854 21.575C6.31865 21.3317 6.3709 21.0853 6.497 20.8751L7.707 18.8588C7.46461 18.4018 7.26573 17.923 7.113 17.4288L4.8327 16.8579C4.59501 16.7984 4.38401 16.6612 4.23316 16.4681C4.08231 16.275 4.00025 16.037 4 15.792V14.2102C4.00001 13.965 4.08195 13.7268 4.23282 13.5335C4.38369 13.3402 4.59483 13.2028 4.8327 13.1432L7.113 12.5723C7.267 12.0736 7.465 11.597 7.707 11.1423L6.497 9.126C6.3709 8.91576 6.31865 8.66941 6.34854 8.42608C6.37843 8.18274 6.48876 7.95637 6.662 7.7829L7.7818 6.662C7.95527 6.48876 8.18164 6.37843 8.42498 6.34854C8.66831 6.31865 8.91466 6.3709 9.1249 6.497L11.1412 7.707C11.5959 7.465 12.0725 7.267 12.5712 7.113L13.1421 4.8327C13.2016 4.59501 13.3388 4.38401 13.5319 4.23316C13.725 4.08231 13.963 4.00025 14.208 4H15.7898C16.035 4.00001 16.2732 4.08195 16.4665 4.23282C16.6598 4.38369 16.7972 4.59483 16.8568 4.8327L17.4288 7.113ZM15 19.4C16.167 19.4 17.2861 18.9364 18.1113 18.1113C18.9364 17.2861 19.4 16.167 19.4 15C19.4 13.833 18.9364 12.7139 18.1113 11.8887C17.2861 11.0636 16.167 10.6 15 10.6C13.833 10.6 12.7139 11.0636 11.8887 11.8887C11.0636 12.7139 10.6 13.833 10.6 15C10.6 16.167 11.0636 17.2861 11.8887 18.1113C12.7139 18.9364 13.833 19.4 15 19.4Z" fill="#565C5C"/>
</svg>
