<svg width="30" height="30" viewBox="0 0 30 30" fill="none" xmlns="http://www.w3.org/2000/svg">
<path d="M8.9655 22.2844C10.622 23.941 12.8017 24.9718 15.1331 25.2013C17.4645 25.4308 19.8033 24.8448 21.751 23.5431C23.6987 22.2413 25.1348 20.3045 25.8145 18.0626C26.4942 15.8207 26.3754 13.4125 25.4784 11.2483C24.5815 9.08419 22.9618 7.29804 20.8955 6.19427C18.8291 5.09051 16.444 4.73743 14.1465 5.19521C11.849 5.65299 9.78131 6.89329 8.29583 8.70476C6.81034 10.5162 5.99898 12.7868 6 15.1294V17.3749" stroke="#A3A6A8" stroke-width="1.8" stroke-linecap="round" stroke-linejoin="round"/>
<path d="M3.75 15.125L6 17.375L8.25 15.125M15 10.625V16.25H20.625" stroke="#A3A6A8" stroke-width="1.8" stroke-linecap="round" stroke-linejoin="round"/>
</svg>
