<svg width="30" height="30" viewBox="0 0 30 30" fill="none" xmlns="http://www.w3.org/2000/svg">
<mask id="mask0_1833_1945" style="mask-type:luminance" maskUnits="userSpaceOnUse" x="4" y="4" width="23" height="23">
<path d="M15.25 26.5C21.4634 26.5 26.5 21.4634 26.5 15.25C26.5 9.03662 21.4634 4 15.25 4C9.03663 4 4 9.03662 4 15.25C4 17.05 4.423 18.751 5.17338 20.2596C5.37363 20.6601 5.44 21.118 5.32413 21.5511L4.65475 24.0554C4.58845 24.3032 4.58851 24.5641 4.65492 24.8119C4.72133 25.0597 4.85176 25.2857 5.0331 25.4671C5.21445 25.6486 5.44034 25.7792 5.68809 25.8457C5.93585 25.9123 6.19676 25.9125 6.44462 25.8464L8.94888 25.1759C9.38355 25.0661 9.8434 25.1193 10.2415 25.3255C11.7973 26.1001 13.512 26.5022 15.25 26.5Z" fill="white"/>
<path d="M18.625 15.25C18.625 15.5484 18.7435 15.8345 18.9545 16.0455C19.1655 16.2565 19.4516 16.375 19.75 16.375C20.0484 16.375 20.3345 16.2565 20.5455 16.0455C20.7565 15.8345 20.875 15.5484 20.875 15.25C20.875 14.9516 20.7565 14.6655 20.5455 14.4545C20.3345 14.2435 20.0484 14.125 19.75 14.125C19.4516 14.125 19.1655 14.2435 18.9545 14.4545C18.7435 14.6655 18.625 14.9516 18.625 15.25ZM14.125 15.25C14.125 15.5484 14.2435 15.8345 14.4545 16.0455C14.6655 16.2565 14.9516 16.375 15.25 16.375C15.5484 16.375 15.8345 16.2565 16.0455 16.0455C16.2565 15.8345 16.375 15.5484 16.375 15.25C16.375 14.9516 16.2565 14.6655 16.0455 14.4545C15.8345 14.2435 15.5484 14.125 15.25 14.125C14.9516 14.125 14.6655 14.2435 14.4545 14.4545C14.2435 14.6655 14.125 14.9516 14.125 15.25ZM9.625 15.25C9.625 15.5484 9.74353 15.8345 9.95451 16.0455C10.1655 16.2565 10.4516 16.375 10.75 16.375C11.0484 16.375 11.3345 16.2565 11.5455 16.0455C11.7565 15.8345 11.875 15.5484 11.875 15.25C11.875 14.9516 11.7565 14.6655 11.5455 14.4545C11.3345 14.2435 11.0484 14.125 10.75 14.125C10.4516 14.125 10.1655 14.2435 9.95451 14.4545C9.74353 14.6655 9.625 14.9516 9.625 15.25Z" fill="black"/>
</mask>
<g mask="url(#mask0_1833_1945)">
<path d="M1.5 1.5H28.5V28.5H1.5V1.5Z" fill="#BABFC0"/>
</g>
</svg>
