<svg width="30" height="30" viewBox="0 0 30 30" fill="none" xmlns="http://www.w3.org/2000/svg">
<path d="M9.2155 22.2844C10.872 23.941 13.0517 24.9718 15.3831 25.2013C17.7145 25.4308 20.0533 24.8448 22.001 23.5431C23.9487 22.2413 25.3848 20.3045 26.0645 18.0626C26.7442 15.8207 26.6254 13.4125 25.7284 11.2483C24.8315 9.08419 23.2118 7.29804 21.1455 6.19427C19.0791 5.09051 16.694 4.73743 14.3965 5.19521C12.099 5.65299 10.0313 6.89329 8.54583 8.70476C7.06034 10.5162 6.24898 12.7868 6.25 15.1294V17.3749" stroke="#BABFC0" stroke-width="2" stroke-linecap="round" stroke-linejoin="round"/>
<path d="M4 15.125L6.25 17.375L8.5 15.125M15.25 10.625V16.25H20.875" stroke="#BABFC0" stroke-width="2" stroke-linecap="round" stroke-linejoin="round"/>
</svg>
