<svg width="30" height="30" viewBox="0 0 30 30" fill="none" xmlns="http://www.w3.org/2000/svg">
<mask id="mask0_1405_1472" style="mask-type:luminance" maskUnits="userSpaceOnUse" x="3" y="3" width="24" height="24">
<path d="M15 26.25C21.2134 26.25 26.25 21.2134 26.25 15C26.25 8.78663 21.2134 3.75 15 3.75C8.78663 3.75 3.75 8.78663 3.75 15C3.75 16.8 4.173 18.501 4.92337 20.0096C5.12362 20.4101 5.19 20.868 5.07413 21.3011L4.40475 23.8054C4.33845 24.0532 4.33851 24.3141 4.40492 24.5619C4.47133 24.8097 4.60176 25.0357 4.7831 25.2171C4.96445 25.3986 5.19034 25.5292 5.43809 25.5957C5.68585 25.6623 5.94676 25.6625 6.19462 25.5964L8.69888 24.9259C9.13355 24.8161 9.5934 24.8693 9.9915 25.0755C11.5473 25.8501 13.262 26.2522 15 26.25Z" fill="white"/>
<path d="M18.375 15C18.375 15.2984 18.4935 15.5845 18.7045 15.7955C18.9155 16.0065 19.2016 16.125 19.5 16.125C19.7984 16.125 20.0845 16.0065 20.2955 15.7955C20.5065 15.5845 20.625 15.2984 20.625 15C20.625 14.7016 20.5065 14.4155 20.2955 14.2045C20.0845 13.9935 19.7984 13.875 19.5 13.875C19.2016 13.875 18.9155 13.9935 18.7045 14.2045C18.4935 14.4155 18.375 14.7016 18.375 15ZM13.875 15C13.875 15.2984 13.9935 15.5845 14.2045 15.7955C14.4155 16.0065 14.7016 16.125 15 16.125C15.2984 16.125 15.5845 16.0065 15.7955 15.7955C16.0065 15.5845 16.125 15.2984 16.125 15C16.125 14.7016 16.0065 14.4155 15.7955 14.2045C15.5845 13.9935 15.2984 13.875 15 13.875C14.7016 13.875 14.4155 13.9935 14.2045 14.2045C13.9935 14.4155 13.875 14.7016 13.875 15ZM9.375 15C9.375 15.2984 9.49353 15.5845 9.70451 15.7955C9.91548 16.0065 10.2016 16.125 10.5 16.125C10.7984 16.125 11.0845 16.0065 11.2955 15.7955C11.5065 15.5845 11.625 15.2984 11.625 15C11.625 14.7016 11.5065 14.4155 11.2955 14.2045C11.0845 13.9935 10.7984 13.875 10.5 13.875C10.2016 13.875 9.91548 13.9935 9.70451 14.2045C9.49353 14.4155 9.375 14.7016 9.375 15Z" fill="black"/>
</mask>
<g mask="url(#mask0_1405_1472)">
<path d="M1.5 1.50012H28.5V28.5001H1.5V1.50012Z" fill="#A3A6A8"/>
</g>
</svg>
