<svg width="178" height="73" viewBox="0 0 178 73" fill="none" xmlns="http://www.w3.org/2000/svg">
<path d="M158.49 2.74386C159.77 3.57587 160.602 4.66387 160.986 6.00786C161.434 7.35187 161.114 8.82387 160.026 10.4239L134.97 46.6159H154.842V30.8719C154.842 29.0799 155.45 27.7679 156.666 26.9359C157.882 26.1039 159.29 25.6879 160.89 25.6879C162.49 25.6879 163.898 26.1039 165.114 26.9359C166.33 27.7679 166.938 29.0799 166.938 30.8719V46.6159H172.794C174.266 46.6159 175.322 47.1279 175.962 48.1519C176.602 49.1119 176.922 50.2639 176.922 51.6079C176.922 52.8879 176.602 54.0399 175.962 55.0639C175.322 56.0239 174.266 56.5039 172.794 56.5039H166.938V66.0079C166.938 67.7999 166.33 69.1119 165.114 69.9439C163.898 70.7759 162.49 71.1919 160.89 71.1919C159.29 71.1919 157.882 70.7759 156.666 69.9439C155.45 69.1119 154.842 67.7999 154.842 66.0079V56.5039H127.962C125.274 56.5039 123.322 56.0239 122.106 55.0639C120.954 54.1039 120.378 52.5999 120.378 50.5519C120.378 50.2319 120.41 49.9119 120.474 49.5919C120.538 49.2079 120.666 48.7919 120.858 48.3439C121.05 47.8319 121.338 47.2559 121.722 46.6159C122.106 45.9119 122.65 45.0479 123.354 44.0239L150.906 4.18387C151.866 2.77587 153.05 2.00786 154.458 1.87987C155.866 1.68787 157.21 1.97586 158.49 2.74386Z" fill="#2F2F2E"/>
<path d="M88.4945 1.30396C97.3905 1.30396 103.854 4.18395 107.886 9.94395C111.982 15.704 114.031 23.864 114.031 34.424V38.5519C114.031 49.1119 111.982 57.2719 107.886 63.032C103.854 68.792 97.3905 71.672 88.4945 71.672C79.5985 71.672 73.1025 68.792 69.0065 63.032C64.9745 57.2719 62.9585 49.1119 62.9585 38.5519V34.424C62.9585 23.864 64.9745 15.704 69.0065 9.94395C73.1025 4.18395 79.5985 1.30396 88.4945 1.30396ZM88.4945 12.92C85.9985 12.92 83.8865 13.336 82.1585 14.168C80.4945 15 79.1505 16.344 78.1265 18.2C77.1665 19.992 76.4625 22.296 76.0145 25.112C75.5665 27.928 75.3425 31.32 75.3425 35.288V37.688C75.3425 41.656 75.5665 45.048 76.0145 47.864C76.4625 50.68 77.1665 53.016 78.1265 54.872C79.1505 56.664 80.4945 57.976 82.1585 58.808C83.8865 59.64 85.9985 60.056 88.4945 60.056C90.9905 60.056 93.0705 59.64 94.7345 58.808C96.4625 57.976 97.8065 56.664 98.7665 54.872C99.7905 53.016 100.527 50.68 100.975 47.864C101.423 45.048 101.646 41.656 101.646 37.688V35.288C101.646 31.32 101.423 27.928 100.975 25.112C100.527 22.296 99.7905 19.992 98.7665 18.2C97.8065 16.344 96.4625 15 94.7345 14.168C93.0705 13.336 90.9905 12.92 88.4945 12.92Z" fill="#2F2F2E"/>
<path d="M39.4272 2.74386C40.7072 3.57587 41.5392 4.66387 41.9232 6.00786C42.3712 7.35187 42.0512 8.82387 40.9632 10.4239L15.9072 46.6159H35.7792V30.8719C35.7792 29.0799 36.3872 27.7679 37.6032 26.9359C38.8192 26.1039 40.2272 25.6879 41.8272 25.6879C43.4272 25.6879 44.8352 26.1039 46.0512 26.9359C47.2672 27.7679 47.8752 29.0799 47.8752 30.8719V46.6159H53.7312C55.2032 46.6159 56.2592 47.1279 56.8992 48.1519C57.5392 49.1119 57.8592 50.2639 57.8592 51.6079C57.8592 52.8879 57.5392 54.0399 56.8992 55.0639C56.2592 56.0239 55.2032 56.5039 53.7312 56.5039H47.8752V66.0079C47.8752 67.7999 47.2672 69.1119 46.0512 69.9439C44.8352 70.7759 43.4272 71.1919 41.8272 71.1919C40.2272 71.1919 38.8192 70.7759 37.6032 69.9439C36.3872 69.1119 35.7792 67.7999 35.7792 66.0079V56.5039H8.89919C6.21119 56.5039 4.25919 56.0239 3.04319 55.0639C1.89119 54.1039 1.31519 52.5999 1.31519 50.5519C1.31519 50.2319 1.34719 49.9119 1.41119 49.5919C1.47519 49.2079 1.60319 48.7919 1.79519 48.3439C1.98719 47.8319 2.27519 47.2559 2.65919 46.6159C3.04319 45.9119 3.58719 45.0479 4.29119 44.0239L31.8432 4.18387C32.8032 2.77587 33.9872 2.00786 35.3952 1.87987C36.8032 1.68787 38.1472 1.97586 39.4272 2.74386Z" fill="#2F2F2E"/>
<path d="M166.938 30.8722C166.938 29.0802 166.329 27.7676 165.113 26.9356C163.973 26.1559 162.665 25.7422 161.188 25.6934L160.89 25.6886C159.29 25.6886 157.882 26.1038 156.666 26.9356L156.444 27.0977C155.376 27.934 154.842 29.1923 154.842 30.8722V46.6163H134.97L160.025 10.4239C161.113 8.82392 161.433 7.3519 160.985 6.0079C160.625 4.74812 159.872 3.71332 158.725 2.90341L158.489 2.74423C157.209 1.97639 155.866 1.68808 154.458 1.87997C153.05 2.00796 151.865 2.77575 150.905 4.18368L123.354 44.0245L122.855 44.7618C122.387 45.4699 122.01 46.0883 121.722 46.6163C121.338 47.2562 121.049 47.8319 120.857 48.3438C120.665 48.7918 120.538 49.2079 120.474 49.5919C120.41 49.9118 120.378 50.2319 120.378 50.5518L120.385 50.9298C120.452 52.786 121.025 54.1646 122.105 55.0645C123.245 55.9644 125.032 56.4418 127.466 56.4981L127.962 56.504H154.842V66.0079L154.849 66.338C154.92 67.962 155.526 69.1643 156.666 69.9444C157.806 70.7242 159.115 71.1388 160.592 71.1876L160.89 71.1925C162.39 71.1925 163.721 70.8263 164.884 70.0948L165.113 69.9444C166.329 69.1124 166.938 67.7999 166.938 66.0079V56.504H172.794L173.064 56.4981C174.307 56.4457 175.231 56.026 175.837 55.2384L175.962 55.0645C176.562 54.1046 176.88 53.0317 176.918 51.8468L176.922 51.6085C176.922 50.2647 176.602 49.1124 175.962 48.1524C175.362 47.1924 174.396 46.6821 173.064 46.6222L172.794 46.6163V45.6163C174.513 45.6164 175.927 46.2318 176.793 47.5977H176.794C177.56 48.7476 177.922 50.1006 177.922 51.6085C177.922 53.0639 177.555 54.4014 176.81 55.5938L176.794 55.6192C175.918 56.9337 174.496 57.5039 172.794 57.504H167.938V66.0079C167.938 68.0487 167.228 69.7096 165.679 70.7696C164.282 71.7253 162.673 72.1925 160.89 72.1925C159.106 72.1925 157.497 71.7253 156.101 70.7696C154.551 69.7096 153.842 68.0487 153.842 66.0079V57.504H127.962C125.198 57.504 122.968 57.0183 121.486 55.8487L121.476 55.8409L121.466 55.8321C120.01 54.6193 119.378 52.7821 119.378 50.5518C119.378 50.2615 119.399 49.972 119.442 49.6837L119.493 49.3956C119.573 48.9339 119.723 48.4597 119.929 47.9757C120.148 47.3956 120.464 46.7695 120.864 46.1016C121.269 45.3632 121.827 44.4792 122.529 43.4571L122.531 43.4552L150.083 3.61532C151.105 2.11937 152.425 1.1691 154.04 0.923913L154.367 0.883874C155.894 0.685061 157.356 0.974912 158.729 1.7286L159.004 1.8868L159.02 1.89559L159.034 1.90536C160.484 2.84745 161.473 4.11299 161.935 5.69149L162.031 6.01864C162.453 7.65565 161.972 9.33948 160.853 10.9864L160.848 10.9932L136.879 45.6163H153.842V30.8722C153.842 28.8314 154.551 27.1705 156.101 26.1104C157.497 25.1548 159.106 24.6886 160.89 24.6886C162.673 24.6886 164.282 25.1548 165.679 26.1104C167.228 27.1705 167.938 28.8314 167.938 30.8722V45.6163H172.794V46.6163H166.938V30.8722Z" fill="#2F2F2E"/>
<path d="M114.03 34.4238C114.03 24.1941 112.109 16.2165 108.265 10.4912L107.887 9.94434C103.855 4.18434 97.3901 1.30371 88.4941 1.30371C79.5983 1.30376 73.1028 4.18439 69.0068 9.94434C64.9749 15.7043 62.958 23.8639 62.958 34.4238V38.5518C62.958 49.1118 64.9748 57.2722 69.0068 63.0322C73.1028 68.7919 79.5984 71.6718 88.4941 71.6719C97.3901 71.6719 103.855 68.7922 107.887 63.0322C111.983 57.2722 114.03 49.1118 114.03 38.5518V34.4238ZM100.646 37.6885V35.2881C100.646 31.3541 100.424 28.0178 99.9863 25.2695C99.5506 22.5307 98.8443 20.3517 97.8984 18.6963L97.8877 18.6777L97.8779 18.6592C97.0082 16.9777 95.8155 15.7987 94.3008 15.0693L94.2939 15.0654L94.2871 15.0625C92.8011 14.3195 90.8855 13.9199 88.4941 13.9199C86.1073 13.9199 84.1541 14.3176 82.5967 15.0664C81.1423 15.7959 79.9403 16.982 79.002 18.6826C78.114 20.3441 77.438 22.5287 77.002 25.2695C76.5648 28.0178 76.3428 31.3542 76.3428 35.2881V37.6885C76.3428 41.6224 76.5647 44.9588 77.002 47.707C77.4378 50.4463 78.1145 52.6677 79.0078 54.3994C79.943 56.027 81.1442 57.1824 82.6055 57.9131H82.6045C84.1607 58.6595 86.1112 59.0556 88.4941 59.0557V60.0557C85.9982 60.0556 83.8862 59.6396 82.1582 58.8076C80.5983 58.0276 79.3197 56.8258 78.3223 55.2021L78.126 54.8721C77.226 53.1322 76.5516 50.9703 76.1016 48.3867L76.0146 47.8643C75.6227 45.4004 75.4016 42.4952 75.3525 39.1494L75.3428 37.6885V35.2881C75.3428 31.8162 75.5135 28.7852 75.8564 26.1953L76.0146 25.1123C76.4626 22.2965 77.1661 19.9921 78.126 18.2002C79.15 16.3442 80.4943 15 82.1582 14.168C83.8862 13.336 85.9982 12.9199 88.4941 12.9199C90.9901 12.9199 93.0704 13.336 94.7344 14.168C96.4624 15 97.8066 16.3442 98.7666 18.2002C99.7905 19.9922 100.527 22.2964 100.975 25.1123C101.423 27.9282 101.646 31.3202 101.646 35.2881V37.6885L101.636 39.1494C101.587 42.4952 101.367 45.4004 100.975 47.8643L100.887 48.3867C100.433 50.9703 99.7265 53.1322 98.7666 54.8721C97.8066 56.664 96.4623 57.9756 94.7344 58.8076C93.0704 59.6396 90.9901 60.0557 88.4941 60.0557V59.0557C90.8855 59.0557 92.8011 58.6561 94.2871 57.9131L94.3008 57.9072C95.826 57.1728 97.0184 56.0166 97.8848 54.3994L97.8906 54.3887C98.8431 52.6623 99.5506 50.4455 99.9863 47.707C100.424 44.9588 100.646 41.6224 100.646 37.6885ZM115.03 38.5518C115.03 49.2185 112.964 57.6108 108.705 63.6045C104.437 69.7024 97.6196 72.6719 88.4941 72.6719C79.3681 72.6718 72.5233 69.7031 68.1914 63.6113L68.1875 63.6055C63.9923 57.6123 61.958 49.2199 61.958 38.5518V34.4238C61.958 23.7558 63.9923 15.3632 68.1875 9.37012L68.1914 9.36426L68.6045 8.80273C72.9529 3.09009 79.6531 0.30376 88.4941 0.303711C97.6196 0.303711 104.438 3.27228 108.706 9.37012H108.705C112.965 15.3639 115.03 23.7566 115.03 34.4238V38.5518Z" fill="#2F2F2E"/>
<path d="M47.875 30.8722C47.875 29.0802 47.2668 27.7676 46.0508 26.9356C44.9109 26.1559 43.6022 25.7422 42.125 25.6934L41.8271 25.6886C40.2274 25.6886 38.8194 26.1038 37.6035 26.9356L37.3818 27.0977C36.3133 27.934 35.7793 29.1923 35.7793 30.8722V46.6163H15.9072L40.9629 10.4239C42.0509 8.82392 42.3708 7.3519 41.9229 6.0079C41.5629 4.74812 40.8094 3.71332 39.6621 2.90341L39.4268 2.74423C38.1469 1.97639 36.8033 1.68808 35.3955 1.87997C33.9875 2.00796 32.8028 2.77575 31.8428 4.18368L4.29102 44.0245L3.79297 44.7618C3.32493 45.4699 2.9472 46.0883 2.65918 46.6163C2.27526 47.2562 1.98691 47.8319 1.79492 48.3438C1.60295 48.7918 1.47514 49.2079 1.41113 49.5919C1.34715 49.9118 1.31545 50.2319 1.31543 50.5518L1.32227 50.9298C1.38978 52.786 1.96298 54.1646 3.04297 55.0645C4.18291 55.9644 5.96988 56.4418 8.40332 56.4981L8.89941 56.504H35.7793V66.0079L35.7861 66.338C35.8573 67.962 36.4634 69.1643 37.6035 69.9444C38.7434 70.7242 40.052 71.1388 41.5293 71.1876L41.8271 71.1925C43.3273 71.1925 44.6587 70.8263 45.8213 70.0948L46.0508 69.9444C47.2668 69.1124 47.875 67.7999 47.875 66.0079V56.504H53.7314L54.002 56.4981C55.2447 56.4457 56.1689 56.026 56.7744 55.2384L56.8994 55.0645C57.4994 54.1046 57.8179 53.0317 57.8555 51.8468L57.8594 51.6085C57.8594 50.2647 57.5392 49.1124 56.8994 48.1524C56.2994 47.1924 55.3334 46.6821 54.002 46.6222L53.7314 46.6163V45.6163C55.4503 45.6164 56.8644 46.2318 57.7305 47.5977H57.7314C58.4979 48.7476 58.8594 50.1006 58.8594 51.6085C58.8593 53.0639 58.4923 54.4014 57.7471 55.5938L57.7314 55.6192C56.855 56.9337 55.4338 57.5039 53.7314 57.504H48.875V66.0079C48.875 68.0487 48.1653 69.7096 46.6162 70.7696C45.2195 71.7253 43.6105 72.1925 41.8271 72.1925C40.0438 72.1925 38.4348 71.7253 37.0381 70.7696C35.4889 69.7096 34.7793 68.0487 34.7793 66.0079V57.504H8.89941C6.1353 57.504 3.90542 57.0183 2.42383 55.8487L2.41309 55.8409L2.40332 55.8321C0.947948 54.6193 0.31543 52.7821 0.31543 50.5518C0.315442 50.2615 0.336639 49.972 0.379883 49.6837L0.430664 49.3956C0.51074 48.9339 0.660577 48.4597 0.866211 47.9757C1.08535 47.3956 1.40106 46.7695 1.80176 46.1016C2.20699 45.3632 2.76412 44.4792 3.4668 43.4571L3.46875 43.4552L31.0205 3.61532C32.0421 2.11937 33.3622 1.1691 34.9775 0.923913L35.3047 0.883874C36.8312 0.685061 38.2939 0.974912 39.666 1.7286L39.9414 1.8868L39.957 1.89559L39.9717 1.90536C41.421 2.84745 42.4101 4.11299 42.8721 5.69149L42.9688 6.01864C43.3907 7.65565 42.91 9.33948 41.79 10.9864L41.7852 10.9932L17.8164 45.6163H34.7793V30.8722C34.7793 28.8314 35.4889 27.1705 37.0381 26.1104C38.4348 25.1548 40.0438 24.6886 41.8271 24.6886C43.6105 24.6886 45.2195 25.1548 46.6162 26.1104C48.1654 27.1705 48.875 28.8314 48.875 30.8722V45.6163H53.7314V46.6163H47.875V30.8722Z" fill="#2F2F2E"/>
</svg>
