<svg width="19" height="19" viewBox="0 0 19 19" fill="none" xmlns="http://www.w3.org/2000/svg">
<path d="M3.5625 2.375V15.4375H10.6875V2.375H3.5625ZM2.96875 1.1875H11.2812C11.4387 1.1875 11.5897 1.25006 11.7011 1.36141C11.8124 1.47276 11.875 1.62378 11.875 1.78125V16.0312C11.875 16.1887 11.8124 16.3397 11.7011 16.4511C11.5897 16.5624 11.4387 16.625 11.2812 16.625H2.96875C2.81128 16.625 2.66026 16.5624 2.54891 16.4511C2.43756 16.3397 2.375 16.1887 2.375 16.0312V1.78125C2.375 1.62378 2.43756 1.47276 2.54891 1.36141C2.66026 1.25006 2.81128 1.1875 2.96875 1.1875Z" fill="#5BD6C9"/>
<path d="M4.75 5.34375C4.75 5.01583 5.01583 4.75 5.34375 4.75H8.90625C9.23417 4.75 9.5 5.01583 9.5 5.34375V5.34375C9.5 5.67167 9.23417 5.9375 8.90625 5.9375H5.34375C5.01583 5.9375 4.75 5.67167 4.75 5.34375V5.34375ZM4.75 8.90625C4.75 8.57833 5.01583 8.3125 5.34375 8.3125H8.90625C9.23417 8.3125 9.5 8.57833 9.5 8.90625V8.90625C9.5 9.23417 9.23417 9.5 8.90625 9.5H5.34375C5.01583 9.5 4.75 9.23417 4.75 8.90625V8.90625ZM4.75 12.4688C4.75 12.1408 5.01583 11.875 5.34375 11.875H8.90625C9.23417 11.875 9.5 12.1408 9.5 12.4688V12.4688C9.5 12.7967 9.23417 13.0625 8.90625 13.0625H5.34375C5.01583 13.0625 4.75 12.7967 4.75 12.4688V12.4688ZM11.875 10.0938C11.875 9.76583 12.1408 9.5 12.4688 9.5H13.6563C13.9842 9.5 14.25 9.76583 14.25 10.0938V10.0938C14.25 10.4217 13.9842 10.6875 13.6562 10.6875H12.4687C12.1408 10.6875 11.875 10.4217 11.875 10.0938V10.0938ZM11.875 12.4688C11.875 12.1408 12.1408 11.875 12.4688 11.875H13.6563C13.9842 11.875 14.25 12.1408 14.25 12.4688V12.4688C14.25 12.7967 13.9842 13.0625 13.6562 13.0625H12.4687C12.1408 13.0625 11.875 12.7967 11.875 12.4688V12.4688ZM1.1875 16.0312C1.1875 15.7033 1.45333 15.4375 1.78125 15.4375H17.2188C17.5467 15.4375 17.8125 15.7033 17.8125 16.0312V16.0312C17.8125 16.3592 17.5467 16.625 17.2187 16.625H1.78125C1.45333 16.625 1.1875 16.3592 1.1875 16.0312V16.0312Z" fill="#5BD6C9"/>
<path d="M11.875 7.125V15.4375H15.4375V7.125H11.875ZM11.2812 5.9375H16.0312C16.1887 5.9375 16.3397 6.00006 16.4511 6.11141C16.5624 6.22276 16.625 6.37378 16.625 6.53125V16.0312C16.625 16.1887 16.5624 16.3397 16.4511 16.4511C16.3397 16.5624 16.1887 16.625 16.0312 16.625H11.2812C11.1238 16.625 10.9728 16.5624 10.8614 16.4511C10.7501 16.3397 10.6875 16.1887 10.6875 16.0312V6.53125C10.6875 6.37378 10.7501 6.22276 10.8614 6.11141C10.9728 6.00006 11.1238 5.9375 11.2812 5.9375Z" fill="#5BD6C9"/>
</svg>
