<svg width="30" height="30" viewBox="0 0 30 30" fill="none" xmlns="http://www.w3.org/2000/svg">
<path d="M5.625 3.75V24.375H16.875V3.75H5.625ZM4.6875 1.875H17.8125C18.0611 1.875 18.2996 1.97377 18.4754 2.14959C18.6512 2.3254 18.75 2.56386 18.75 2.8125V25.3125C18.75 25.5611 18.6512 25.7996 18.4754 25.9754C18.2996 26.1512 18.0611 26.25 17.8125 26.25H4.6875C4.43886 26.25 4.2004 26.1512 4.02459 25.9754C3.84877 25.7996 3.75 25.5611 3.75 25.3125V2.8125C3.75 2.56386 3.84877 2.3254 4.02459 2.14959C4.2004 1.97377 4.43886 1.875 4.6875 1.875Z" fill="#A3A6A8"/>
<path d="M7.5 8.4375C7.5 7.91973 7.91973 7.5 8.4375 7.5H14.0625C14.5803 7.5 15 7.91973 15 8.4375C15 8.95527 14.5803 9.375 14.0625 9.375H8.4375C7.91973 9.375 7.5 8.95527 7.5 8.4375ZM7.5 14.0625C7.5 13.5447 7.91973 13.125 8.4375 13.125H14.0625C14.5803 13.125 15 13.5447 15 14.0625C15 14.5803 14.5803 15 14.0625 15H8.4375C7.91973 15 7.5 14.5803 7.5 14.0625ZM7.5 19.6875C7.5 19.1697 7.91973 18.75 8.4375 18.75H14.0625C14.5803 18.75 15 19.1697 15 19.6875C15 20.2053 14.5803 20.625 14.0625 20.625H8.4375C7.91973 20.625 7.5 20.2053 7.5 19.6875ZM18.75 15.9375C18.75 15.4197 19.1697 15 19.6875 15H21.5625C22.0803 15 22.5 15.4197 22.5 15.9375C22.5 16.4553 22.0803 16.875 21.5625 16.875H19.6875C19.1697 16.875 18.75 16.4553 18.75 15.9375ZM18.75 19.6875C18.75 19.1697 19.1697 18.75 19.6875 18.75H21.5625C22.0803 18.75 22.5 19.1697 22.5 19.6875C22.5 20.2053 22.0803 20.625 21.5625 20.625H19.6875C19.1697 20.625 18.75 20.2053 18.75 19.6875ZM1.875 25.3125C1.875 24.7947 2.29473 24.375 2.8125 24.375H27.1875C27.7053 24.375 28.125 24.7947 28.125 25.3125C28.125 25.8303 27.7053 26.25 27.1875 26.25H2.8125C2.29473 26.25 1.875 25.8303 1.875 25.3125Z" fill="#A3A6A8"/>
<path d="M18.75 11.25V24.375H24.375V11.25H18.75ZM17.8125 9.375H25.3125C25.5611 9.375 25.7996 9.47377 25.9754 9.64959C26.1512 9.8254 26.25 10.0639 26.25 10.3125V25.3125C26.25 25.5611 26.1512 25.7996 25.9754 25.9754C25.7996 26.1512 25.5611 26.25 25.3125 26.25H17.8125C17.5639 26.25 17.3254 26.1512 17.1496 25.9754C16.9738 25.7996 16.875 25.5611 16.875 25.3125V10.3125C16.875 10.0639 16.9738 9.8254 17.1496 9.64959C17.3254 9.47377 17.5639 9.375 17.8125 9.375Z" fill="#A3A6A8"/>
</svg>
