<svg width="64" height="63" viewBox="0 0 64 63" fill="none" xmlns="http://www.w3.org/2000/svg">
<g clip-path="url(#clip0_1662_1892)">
<rect x="0.706787" width="63" height="63" rx="5" fill="#ECF5FF"/>
<path d="M20.272 14.2402C20.272 13.1357 21.1674 12.2402 22.272 12.2402H41.1873C42.2919 12.2402 43.1873 13.1357 43.1873 14.2402V17.9691H20.272V14.2402Z" fill="#C4DFFF"/>
<path d="M20.272 17.969H43.1874L38.8908 28.4719H14.552L20.272 17.969Z" fill="#9BC3F3"/>
<path d="M38.8901 28.4719L43.1868 17.969L49.8704 27.0397L38.8901 28.4719Z" fill="#85ADDE"/>
<path d="M38.8901 28.4717L41.6019 21.9399L49.8704 27.0395L38.8901 28.4717Z" fill="#5A87BD"/>
<path d="M14.543 28.4714H38.8905V50.7596L16.485 50.1085C15.4035 50.0771 14.5431 49.1913 14.5431 48.1093L14.543 28.4714Z" fill="#C4DFFF"/>
<path d="M49.8677 27.0422L38.8906 28.4718L38.8901 50.7593L48.3849 48.215C49.2592 47.9807 49.8672 47.1884 49.8672 46.2832L49.8677 27.0422Z" fill="#9BC3F3"/>
</g>
<defs>
<clipPath id="clip0_1662_1892">
<rect width="63" height="63" fill="white" transform="translate(0.706787)"/>
</clipPath>
</defs>
</svg>
