<svg width="63" height="63" viewBox="0 0 63 63" fill="none" xmlns="http://www.w3.org/2000/svg">
<g clip-path="url(#clip0_1405_1456)">
<rect width="63" height="63" rx="5" fill="#ECF5FF"/>
<path d="M19.0002 13.3284C19.0002 12.2238 19.8957 11.3284 21.0002 11.3284H41.0002C42.1048 11.3284 43.0002 12.2238 43.0002 13.3284V17.3284H19.0002V13.3284Z" fill="#C4DFFF"/>
<path d="M19.0003 17.3284H43.0003L38.5003 28.3284H13.0095L19.0003 17.3284Z" fill="#9BC3F3"/>
<path d="M38.5002 28.3284L43.0002 17.3284L50.0002 26.8284L38.5002 28.3284Z" fill="#85ADDE"/>
<path d="M38.5002 28.3283L41.3404 21.4873L50.0002 26.8283L38.5002 28.3283Z" fill="#5A87BD"/>
<path d="M13 28.3284H38.5V51.6715L14.942 50.9869C13.8605 50.9555 13.0001 50.0697 13.0001 48.9877L13 28.3284Z" fill="#C4DFFF"/>
<path d="M49.9976 26.8311L38.5009 28.3283L38.5004 51.6707L48.5147 48.9872C49.3891 48.7529 49.9971 47.9605 49.9971 47.0554L49.9976 26.8311Z" fill="#9BC3F3"/>
</g>
<defs>
<clipPath id="clip0_1405_1456">
<rect width="63" height="63" fill="white"/>
</clipPath>
</defs>
</svg>
