<svg width="64" height="63" viewBox="0 0 64 63" fill="none" xmlns="http://www.w3.org/2000/svg">
<rect x="0.706787" width="63" height="63" rx="5" fill="#BCDAB4"/>
<path d="M17.0701 13.6941C17.0701 13.1418 17.5178 12.6941 18.0701 12.6941H37.5488L42.0008 17.1717L47.343 22.5448V49.306C47.343 49.8583 46.8953 50.306 46.343 50.306H18.0701C17.5178 50.306 17.0701 49.8583 17.0701 49.306V13.6941Z" fill="#F8F8F8"/>
<path d="M47.3435 49.3054C47.3435 49.8576 46.8956 50.3052 46.3435 50.3054H18.0701C17.5178 50.3054 17.0701 49.8577 17.0701 49.3054V47.656C25.7619 47.4618 40.2346 43.9871 47.3435 31.6052V49.3054Z" fill="#E0E8DA"/>
<path d="M47.3373 22.5432L37.5532 12.6941V20.5432C37.5532 21.6478 38.4487 22.5432 39.5532 22.5432H47.3373Z" fill="#D4DAD2"/>
</svg>
