<svg width="126" height="25" viewBox="0 0 126 25" fill="none" xmlns="http://www.w3.org/2000/svg">
<path d="M19.7167 0C23.1869 0 26 2.82453 26 6.30877V18.5201C25.9999 21.9884 23.1997 24.7999 19.7454 24.8H6.25456C2.80029 24.7999 6.47327e-05 21.9884 0 18.5201V9.35439C3.52486e-07 5.87015 2.81314 3.04561 6.28333 3.04561C9.64123 3.04561 12.3838 5.69031 12.5578 9.0183H13.4333V6.30877C13.4333 2.82453 16.2465 4.20463e-08 19.7167 0Z" fill="#0AC2A6"/>
<path d="M17.0502 7.51625C17.2813 7.45406 17.5203 7.59142 17.584 7.82306C17.6476 8.0547 17.5119 8.29289 17.2807 8.35508L9.23306 10.5202C9.00189 10.5824 8.76289 10.445 8.69924 10.2134C8.63559 9.98172 8.77138 9.74353 9.00255 9.68134L17.0502 7.51625Z" fill="white"/>
<path d="M49.8522 8.68C49.8522 9.30667 49.7255 9.74 49.4722 9.98C49.2322 10.22 48.7922 10.34 48.1522 10.34H39.0322C38.3922 10.34 37.9455 10.22 37.6922 9.98C37.4522 9.74 37.3322 9.30667 37.3322 8.68V3.8C37.3322 3.45333 37.4589 3.19333 37.7122 3.02C37.9789 2.84667 38.2655 2.76 38.5722 2.76C38.8922 2.76 39.1789 2.84667 39.4322 3.02C39.6989 3.19333 39.8322 3.45333 39.8322 3.8V4.9H47.3522V3.8C47.3522 3.45333 47.4789 3.19333 47.7322 3.02C47.9989 2.84667 48.2855 2.76 48.5922 2.76C48.9122 2.76 49.1989 2.84667 49.4522 3.02C49.7189 3.19333 49.8522 3.45333 49.8522 3.8V8.68ZM47.0522 8.26C47.2522 8.26 47.3522 8.16 47.3522 7.96V6.98H39.8322V7.96C39.8322 8.16 39.9322 8.26 40.1322 8.26H47.0522ZM36.0322 13.9C35.7255 13.9 35.4989 13.7933 35.3522 13.58C35.2055 13.3667 35.1322 13.12 35.1322 12.84C35.1322 12.5467 35.2055 12.2933 35.3522 12.08C35.4989 11.8667 35.7255 11.76 36.0322 11.76H51.1522C51.4589 11.76 51.6855 11.8667 51.8322 12.08C51.9789 12.2933 52.0522 12.5467 52.0522 12.84C52.0522 13.12 51.9789 13.3667 51.8322 13.58C51.6855 13.7933 51.4589 13.9 51.1522 13.9H45.1322V16.06C45.1322 16.4067 45.0055 16.66 44.7522 16.82C44.5122 16.9667 44.2122 17.04 43.8522 17.04C43.5055 17.04 43.2055 16.9667 42.9522 16.82C42.7122 16.66 42.5922 16.4067 42.5922 16.06V13.9H36.0322ZM49.3122 18.66C49.6189 18.66 49.8455 18.7667 49.9922 18.98C50.1389 19.1933 50.2122 19.4467 50.2122 19.74C50.2122 20.0333 50.1389 20.2867 49.9922 20.5C49.8455 20.7133 49.6189 20.82 49.3122 20.82H38.9922C38.3522 20.82 37.9055 20.7 37.6522 20.46C37.4122 20.22 37.2922 19.7867 37.2922 19.16V16.22C37.2922 15.8467 37.4189 15.5733 37.6722 15.4C37.9389 15.2267 38.2455 15.14 38.5922 15.14C38.9255 15.14 39.2189 15.2267 39.4722 15.4C39.7389 15.5733 39.8722 15.8467 39.8722 16.22V18.2C39.8722 18.5067 40.0255 18.66 40.3322 18.66H49.3122ZM55.2553 5.72C54.9486 5.72 54.722 5.61333 54.5753 5.4C54.4286 5.18667 54.3553 4.93333 54.3553 4.64C54.3553 4.34667 54.4286 4.09333 54.5753 3.88C54.722 3.66667 54.9486 3.56 55.2553 3.56H61.2153C61.8553 3.56 62.2953 3.68 62.5353 3.92C62.7886 4.16 62.9153 4.59333 62.9153 5.22V8.94C62.9153 9.56667 62.7886 10 62.5353 10.24C62.2953 10.48 61.8553 10.6 61.2153 10.6H57.3553C57.0486 10.6 56.8953 10.7533 56.8953 11.06V13.04C56.8953 13.3467 57.0486 13.5 57.3553 13.5C58.6086 13.5 59.762 13.4733 60.8153 13.42C61.8686 13.3533 62.882 13.2533 63.8553 13.12C64.162 13.08 64.402 13.1533 64.5753 13.34C64.762 13.5267 64.8686 13.76 64.8953 14.04C64.922 14.3467 64.882 14.62 64.7753 14.86C64.6686 15.0867 64.4686 15.22 64.1753 15.26C63.762 15.3133 63.302 15.3667 62.7953 15.42C62.2886 15.46 61.7086 15.5 61.0553 15.54C60.4153 15.58 59.682 15.6133 58.8553 15.64C58.042 15.6533 57.1153 15.66 56.0753 15.66C55.4353 15.66 54.9886 15.54 54.7353 15.3C54.4953 15.06 54.3753 14.6267 54.3753 14V10.18C54.3753 9.55333 54.4953 9.12 54.7353 8.88C54.9886 8.64 55.4353 8.52 56.0753 8.52H59.9353C60.242 8.52 60.3953 8.36667 60.3953 8.06V6.18C60.3953 5.87333 60.242 5.72 59.9353 5.72H55.2553ZM68.6553 18.74C68.6553 19.1133 68.522 19.3867 68.2553 19.56C68.002 19.7333 67.702 19.82 67.3553 19.82C67.022 19.82 66.722 19.7333 66.4553 19.56C66.202 19.3867 66.0753 19.1133 66.0753 18.74V3.42C66.0753 3.04667 66.202 2.77333 66.4553 2.6C66.722 2.42667 67.022 2.34 67.3553 2.34C67.702 2.34 68.002 2.42667 68.2553 2.6C68.522 2.77333 68.6553 3.04667 68.6553 3.42V18.74ZM76.1984 8.56C76.1984 8.76 76.2984 8.86 76.4984 8.86H85.6784C85.9584 8.86 86.1651 8.96 86.2984 9.16C86.4318 9.36 86.4984 9.59333 86.4984 9.86C86.4984 10.1267 86.4318 10.36 86.2984 10.56C86.1651 10.76 85.9584 10.86 85.6784 10.86H75.4384C74.7984 10.86 74.3518 10.74 74.0984 10.5C73.8584 10.26 73.7384 9.82667 73.7384 9.2V4.54C73.7384 3.91333 73.8584 3.48 74.0984 3.24C74.3518 3 74.7984 2.88 75.4384 2.88H85.3784C85.6584 2.88 85.8651 2.98 85.9984 3.18C86.1318 3.38 86.1984 3.61333 86.1984 3.88C86.1984 4.14667 86.1318 4.38 85.9984 4.58C85.8651 4.78 85.6584 4.88 85.3784 4.88H76.4984C76.2984 4.88 76.1984 4.98 76.1984 5.18V5.9H85.1984C85.4651 5.9 85.6651 5.99333 85.7984 6.18C85.9318 6.36667 85.9984 6.59333 85.9984 6.86C85.9984 7.12667 85.9318 7.35333 85.7984 7.54C85.6651 7.72667 85.4651 7.82 85.1984 7.82H76.1984V8.56ZM87.5784 11.96C87.8851 11.96 88.1051 12.06 88.2384 12.26C88.3851 12.46 88.4584 12.7067 88.4584 13C88.4584 13.3067 88.3851 13.56 88.2384 13.76C88.1051 13.96 87.8851 14.06 87.5784 14.06H72.4184C72.1118 14.06 71.8851 13.96 71.7384 13.76C71.6051 13.56 71.5384 13.3067 71.5384 13C71.5384 12.7067 71.6051 12.46 71.7384 12.26C71.8851 12.06 72.1118 11.96 72.4184 11.96H87.5784ZM86.2984 20.14C86.2984 20.5133 86.1651 20.7867 85.8984 20.96C85.6451 21.1333 85.3584 21.22 85.0384 21.22C84.7051 21.22 84.4051 21.1333 84.1384 20.96C83.8851 20.7867 83.7584 20.5133 83.7584 20.14V17.72C83.7584 17.4133 83.6051 17.26 83.2984 17.26H74.3384C74.0318 17.26 73.8051 17.16 73.6584 16.96C73.5251 16.76 73.4584 16.5067 73.4584 16.2C73.4584 15.92 73.5251 15.68 73.6584 15.48C73.8051 15.28 74.0318 15.18 74.3384 15.18H84.5984C85.2384 15.18 85.6784 15.3 85.9184 15.54C86.1718 15.78 86.2984 16.2133 86.2984 16.84V20.14ZM92.6016 5.28C92.2949 5.28 92.0682 5.17333 91.9216 4.96C91.7749 4.74667 91.7016 4.48667 91.7016 4.18C91.7016 3.87333 91.7749 3.61333 91.9216 3.4C92.0682 3.18667 92.2949 3.08 92.6016 3.08H102.762C103.402 3.08 103.842 3.2 104.082 3.44C104.335 3.68 104.462 4.11333 104.462 4.74V6.2C104.462 6.69333 104.435 7.16667 104.382 7.62C104.328 8.06 104.248 8.45333 104.142 8.8C104.035 9.14667 103.828 9.38667 103.522 9.52C103.228 9.64 102.908 9.66 102.562 9.58C102.242 9.51333 101.988 9.37333 101.802 9.16C101.628 8.93333 101.582 8.64 101.662 8.28C101.822 7.58667 101.902 6.87333 101.902 6.14V5.74C101.902 5.43333 101.748 5.28 101.442 5.28H92.6016ZM90.6416 12.7C90.3349 12.7 90.1082 12.5933 89.9616 12.38C89.8149 12.1667 89.7416 11.9133 89.7416 11.62C89.7416 11.34 89.8149 11.0933 89.9616 10.88C90.1082 10.6667 90.3349 10.56 90.6416 10.56H95.6416V8.32C95.6416 7.96 95.7682 7.69333 96.0216 7.52C96.2882 7.34667 96.5882 7.26 96.9216 7.26C97.2549 7.26 97.5482 7.34667 97.8016 7.52C98.0682 7.69333 98.2016 7.96 98.2016 8.32V10.56H105.762C106.068 10.56 106.295 10.6667 106.442 10.88C106.588 11.0933 106.662 11.34 106.662 11.62C106.662 11.9133 106.588 12.1667 106.442 12.38C106.295 12.5933 106.068 12.7 105.762 12.7H90.6416ZM91.9016 17.64C91.9016 17.0133 92.0416 16.4733 92.3216 16.02C92.6149 15.5533 93.0349 15.1733 93.5816 14.88C94.1282 14.5733 94.7882 14.3533 95.5616 14.22C96.3349 14.0733 97.2149 14 98.2016 14C99.1749 14 100.048 14.0733 100.822 14.22C101.608 14.3533 102.275 14.5733 102.822 14.88C103.368 15.1733 103.782 15.5533 104.062 16.02C104.355 16.4733 104.502 17.0133 104.502 17.64C104.502 18.2667 104.355 18.8067 104.062 19.26C103.782 19.7267 103.368 20.1067 102.822 20.4C102.275 20.7067 101.608 20.9267 100.822 21.06C100.048 21.2067 99.1749 21.28 98.2016 21.28C97.2149 21.28 96.3349 21.2067 95.5616 21.06C94.7882 20.9267 94.1282 20.7067 93.5816 20.4C93.0349 20.1067 92.6149 19.7267 92.3216 19.26C92.0416 18.8067 91.9016 18.2667 91.9016 17.64ZM101.962 17.64C101.962 17.1333 101.668 16.74 101.082 16.46C100.508 16.1667 99.5482 16.02 98.2016 16.02C96.8549 16.02 95.8882 16.1667 95.3016 16.46C94.7282 16.74 94.4416 17.1333 94.4416 17.64C94.4416 18.1467 94.7282 18.54 95.3016 18.82C95.8882 19.1133 96.8549 19.26 98.2016 19.26C99.5482 19.26 100.508 19.1133 101.082 18.82C101.668 18.54 101.962 18.1467 101.962 17.64ZM110.945 12.48C110.945 12.7867 111.098 12.94 111.405 12.94C112.071 12.94 112.791 12.92 113.565 12.88C114.338 12.84 115.045 12.7733 115.685 12.68C115.991 12.64 116.231 12.7133 116.405 12.9C116.578 13.0733 116.678 13.3133 116.705 13.62C116.731 13.9267 116.691 14.1933 116.585 14.42C116.478 14.6467 116.278 14.7867 115.985 14.84C115.558 14.9067 114.858 14.9733 113.885 15.04C112.911 15.0933 111.645 15.12 110.085 15.12C109.445 15.12 108.998 15 108.745 14.76C108.505 14.52 108.385 14.0867 108.385 13.46V5.46C108.385 4.83333 108.505 4.4 108.745 4.16C108.998 3.92 109.445 3.8 110.085 3.8H115.145C115.451 3.8 115.678 3.90667 115.825 4.12C115.971 4.33333 116.045 4.59333 116.045 4.9C116.045 5.19333 115.971 5.44667 115.825 5.66C115.678 5.87333 115.451 5.98 115.145 5.98H111.405C111.098 5.98 110.945 6.13333 110.945 6.44V12.48ZM119.885 8.36H121.485V3.34C121.485 2.99333 121.605 2.74 121.845 2.58C122.085 2.42 122.358 2.34 122.665 2.34C122.971 2.34 123.245 2.42 123.485 2.58C123.725 2.74 123.845 2.99333 123.845 3.34V18.82C123.845 19.1667 123.725 19.42 123.485 19.58C123.245 19.74 122.971 19.82 122.665 19.82C122.358 19.82 122.085 19.74 121.845 19.58C121.605 19.42 121.485 19.1667 121.485 18.82V10.52H119.885V17.98C119.885 18.3267 119.765 18.58 119.525 18.74C119.285 18.9 119.011 18.98 118.705 18.98C118.411 18.98 118.145 18.9 117.905 18.74C117.665 18.58 117.545 18.3267 117.545 17.98V3.54C117.545 3.19333 117.665 2.94 117.905 2.78C118.145 2.62 118.411 2.54 118.705 2.54C119.011 2.54 119.285 2.62 119.525 2.78C119.765 2.94 119.885 3.19333 119.885 3.54V8.36Z" fill="#0AC2A6"/>
</svg>
