<svg width="64" height="63" viewBox="0 0 64 63" fill="none" xmlns="http://www.w3.org/2000/svg">
<rect x="0.706787" width="63" height="63" rx="5" fill="#E2F5FF"/>
<path d="M28.6058 53.4044C27.4389 54.9844 25.2121 55.3193 23.6321 54.1524L15.0496 47.814C13.4696 46.6472 13.1347 44.4204 14.3016 42.8404L21.8069 32.6778C22.431 31.8327 23.2246 31.1207 24.1311 30.5898V30.5898C24.4935 30.3776 24.7549 30.025 24.8512 29.6161V29.6161C25.0929 28.5893 25.5438 27.6234 26.1756 26.7786L32.3181 18.5658L32.3223 18.5689C32.9056 17.9411 33.5589 17.3834 34.2982 16.9468C36.3416 15.7401 38.2268 15.1454 41.3546 14.619C41.6608 14.5674 41.937 14.4004 42.1215 14.1506L43.2422 12.6331L48.9639 16.8587L47.8628 18.3496C47.6668 18.615 47.5914 18.9509 47.6486 19.2759C48.1998 22.4083 48.1331 24.3715 47.486 26.7727C47.2699 27.5744 46.9299 28.3323 46.5101 29.047L46.5143 29.0501L40.4647 37.3326C39.8429 38.184 39.0524 38.8983 38.1426 39.4311V39.4311C37.7797 39.6437 37.5193 39.9975 37.4229 40.4069V40.4069C37.1821 41.4295 36.7352 42.3967 36.1111 43.2418L28.6058 53.4044Z" fill="#C3F3FB"/>
<path d="M47.8625 18.3499C47.6668 18.6152 47.5916 18.9515 47.6487 19.2762C48.1999 22.4084 48.1339 24.3717 47.4869 26.7728C47.2708 27.5744 46.93 28.332 46.5103 29.0466L46.5148 29.0499L40.4656 37.3324C39.8437 38.1838 39.0524 38.8984 38.1426 39.4312C37.7798 39.6438 37.5199 39.9976 37.4235 40.4068C37.1827 41.4293 36.7351 42.397 36.111 43.2421L28.6057 53.4047C27.4388 54.9844 25.2125 55.3186 23.6326 54.1518L21.2491 52.3916C22.829 53.5581 25.0554 53.224 26.2222 51.6444L33.7276 41.4818C34.3516 40.6368 34.7984 39.6684 35.0391 38.6458C35.1355 38.2366 35.3963 37.8835 35.7591 37.6709C36.6689 37.1381 37.4593 36.4229 38.0812 35.5715L44.1304 27.289L44.1268 27.2863C44.5465 26.5717 44.8864 25.8135 45.1025 25.0119C45.7495 22.6108 45.8156 20.6476 45.2643 17.5153C45.2072 17.1905 45.2833 16.855 45.4791 16.5896L46.5806 15.0981L48.9641 16.8584L47.8625 18.3499Z" fill="#82CDDB"/>
<path d="M44.1748 10.373C44.7582 9.58305 45.8716 9.41559 46.6616 9.99903L50.4761 12.8161C51.2661 13.3995 51.4335 14.5129 50.8501 15.3029L49.4416 17.2101C49.2471 17.4735 48.876 17.5293 48.6126 17.3348L42.8909 13.1092C42.6276 12.9147 42.5718 12.5436 42.7663 12.2803L44.1748 10.373Z" fill="#4B98A7"/>
<path d="M23.1182 32.9762C23.4431 32.5295 24.0681 32.4307 24.5147 32.7555C24.9613 33.0803 25.06 33.7054 24.7354 34.152L16.6641 45.2496C16.3393 45.6962 15.7143 45.7951 15.2676 45.4703C14.821 45.1455 14.7222 44.5205 15.0469 44.0739L23.1182 32.9762Z" fill="white" fill-opacity="0.4"/>
<path d="M33.3403 19.2471C33.6677 18.8023 34.2939 18.7068 34.7387 19.0342C35.1834 19.3616 35.278 19.9879 34.9506 20.4326L28.1723 29.6416C27.8449 30.0863 27.2186 30.1817 26.7739 29.8545C26.3291 29.5271 26.2337 28.9008 26.561 28.4561L33.3403 19.2471Z" fill="white" fill-opacity="0.4"/>
<path d="M25.7068 31L37.0977 39.4117" stroke="#82CDDB" stroke-width="0.592742" stroke-linecap="round"/>
<path d="M33.8052 18.9265L45.7254 27.7299" stroke="#82CDDB" stroke-width="0.592742" stroke-linecap="round"/>
<path d="M29.5791 24.6479L41.4993 33.4513" stroke="#82CDDB" stroke-width="0.592742" stroke-linecap="round"/>
<path d="M19.3674 38.4756L31.2876 47.2789" stroke="#82CDDB" stroke-width="0.592742" stroke-linecap="round"/>
</svg>
