<svg width="64" height="63" viewBox="0 0 64 63" fill="none" xmlns="http://www.w3.org/2000/svg">
<rect x="0.706787" width="63" height="63" rx="5" fill="#FFF4C7"/>
<path d="M20.0347 15.3875L24.3163 44.1348H40.0972L44.3788 15.3875V13.0502C44.3788 12.1108 43.6174 11.3494 42.6781 11.3494H21.7355C20.7961 11.3494 20.0347 12.1108 20.0347 13.0502V15.3875Z" fill="#FFDF80"/>
<path d="M21.6482 26.2214C25.5043 32.034 31.8976 38.3205 40.7654 39.6401L40.0978 44.1329H24.3156L21.6482 26.2214Z" fill="#FBD15C"/>
<path d="M24.3181 44.1372H40.0946V49.9504C40.0946 50.8898 39.3332 51.6512 38.3938 51.6512H26.0189C25.0796 51.6512 24.3181 50.8898 24.3181 49.9504V44.1372Z" fill="white"/>
<path d="M20.0347 13.0502C20.0347 12.1108 20.7961 11.3494 21.7355 11.3494H42.6781C43.6174 11.3494 44.3788 12.1108 44.3788 13.0502V15.5382H20.0347V13.0502Z" fill="#FBD15C"/>
</svg>
