<svg width="52" height="52" viewBox="0 0 52 52" fill="none" xmlns="http://www.w3.org/2000/svg">
<path d="M26 0C40.3594 0 52 11.6406 52 26C52 40.3594 40.3594 52 26 52C11.6406 52 0 40.3594 0 26C0 11.6406 11.6406 0 26 0ZM21.0986 12.7402C19.8508 12.7403 18.9803 12.9744 18.4863 13.4424C18.0184 13.9103 17.7842 14.7548 17.7842 15.9766V38.5576C17.7842 39.3115 18.0305 39.8583 18.5244 40.1963C19.0184 40.5343 19.6043 40.7031 20.2803 40.7031C20.9561 40.7031 21.5413 40.5342 22.0352 40.1963C22.5291 39.8583 22.7754 39.3116 22.7754 38.5576V29.7832H28.3916C30.0295 29.7832 31.4466 29.562 32.6426 29.1201C33.8385 28.6522 34.8396 28.041 35.6455 27.2871C36.4515 26.5071 37.0495 25.6097 37.4395 24.5957C37.8294 23.5558 38.0244 22.4642 38.0244 21.3203V20.7744C38.0244 19.6304 37.8294 18.5642 37.4395 17.5762C37.0755 16.5882 36.5036 15.743 35.7236 15.041C34.9436 14.3131 33.9426 13.7542 32.7207 13.3643C31.5247 12.9483 30.0816 12.7402 28.3916 12.7402H21.0986ZM28.1582 16.9131C28.8599 16.9131 29.5096 16.9785 30.1074 17.1084C30.7054 17.2124 31.2129 17.4204 31.6289 17.7324C32.0708 18.0184 32.4086 18.4084 32.6426 18.9023C32.8765 19.3962 32.9941 20.0328 32.9941 20.8125V21.2422C32.9941 22.88 32.5257 24.0108 31.5898 24.6348C30.6538 25.2588 29.3665 25.5713 27.7285 25.5713H22.7754V16.9131H28.1582Z" fill="#3BCEB8"/>
</svg>
