<svg width="134" height="134" viewBox="0 0 134 134" fill="none" xmlns="http://www.w3.org/2000/svg">
<mask id="mask0_1794_2227" style="mask-type:luminance" maskUnits="userSpaceOnUse" x="7" y="7" width="121" height="120">
<path d="M67.2725 122.833C74.6059 122.842 81.8689 121.402 88.6441 118.596C95.4193 115.789 101.573 111.672 106.752 106.48C111.944 101.301 116.062 95.1468 118.868 88.3716C121.675 81.5964 123.115 74.3335 123.106 67C123.115 59.6665 121.675 52.4036 118.868 45.6284C116.062 38.8532 111.944 32.6993 106.752 27.5203C101.573 22.3282 95.4193 18.2107 88.6441 15.4042C81.8689 12.5977 74.6059 11.1576 67.2725 11.1667C59.939 11.1576 52.676 12.5977 45.9008 15.4042C39.1256 18.2107 32.9717 22.3282 27.7927 27.5203C22.6007 32.6993 18.4831 38.8532 15.6766 45.6284C12.8702 52.4036 11.4301 59.6665 11.4391 67C11.4301 74.3335 12.8702 81.5964 15.6766 88.3716C18.4831 95.1468 22.6007 101.301 27.7927 106.48C32.9717 111.672 39.1256 115.789 45.9008 118.596C52.676 121.402 59.939 122.842 67.2725 122.833Z" fill="white" stroke="white" stroke-width="8" stroke-linejoin="round"/>
<path d="M44.9391 67L61.6891 83.75L95.1891 50.25" stroke="black" stroke-width="8" stroke-linecap="round" stroke-linejoin="round"/>
</mask>
<g mask="url(#mask0_1794_2227)">
<path d="M-14.6666 0H149.333V134H-14.6666V0Z" fill="#74DDCD"/>
</g>
</svg>
