<svg width="134" height="134" viewBox="0 0 134 134" fill="none" xmlns="http://www.w3.org/2000/svg">
<mask id="mask0_2809_4997" style="mask-type:luminance" maskUnits="userSpaceOnUse" x="7" y="7" width="121" height="120">
<path d="M67.2728 122.834C74.6063 122.843 81.8693 121.403 88.6445 118.596C95.4197 115.79 101.574 111.672 106.753 106.48C111.945 101.301 116.062 95.1472 118.869 88.372C121.675 81.5968 123.115 74.3338 123.106 67.0004C123.115 59.6669 121.675 52.4039 118.869 45.6287C116.062 38.8535 111.945 32.6996 106.753 27.5206C101.574 22.3286 95.4197 18.211 88.6445 15.4045C81.8693 12.5981 74.6063 11.158 67.2728 11.167C59.9394 11.158 52.6764 12.5981 45.9012 15.4045C39.126 18.211 32.9721 22.3286 27.7931 27.5206C22.601 32.6996 18.4835 38.8535 15.677 45.6287C12.8705 52.4039 11.4305 59.6669 11.4395 67.0004C11.4305 74.3338 12.8705 81.5968 15.677 88.372C18.4835 95.1472 22.601 101.301 27.7931 106.48C32.9721 111.672 39.126 115.79 45.9012 118.596C52.6764 121.403 59.9394 122.843 67.2728 122.834Z" fill="white" stroke="white" stroke-width="8" stroke-linejoin="round"/>
<path d="M44.9395 67L61.6895 83.75L95.1895 50.25" stroke="black" stroke-width="8" stroke-linecap="round" stroke-linejoin="round"/>
</mask>
<g mask="url(#mask0_2809_4997)">
<path d="M-14.666 0H149.334V134H-14.666V0Z" fill="#74DDCD"/>
</g>
</svg>
