<svg width="90" height="90" viewBox="0 0 90 90" fill="none" xmlns="http://www.w3.org/2000/svg">
<path d="M11.25 26.25V18.75C11.25 16.7609 12.0402 14.8532 13.4467 13.4467C14.8532 12.0402 16.7609 11.25 18.75 11.25H26.25M63.75 11.25H71.25C73.2391 11.25 75.1468 12.0402 76.5533 13.4467C77.9598 14.8532 78.75 16.7609 78.75 18.75V26.25M78.75 63.75V71.25C78.75 73.2391 77.9598 75.1468 76.5533 76.5533C75.1468 77.9598 73.2391 78.75 71.25 78.75H63.75M26.25 78.75H18.75C16.7609 78.75 14.8532 77.9598 13.4467 76.5533C12.0402 75.1468 11.25 73.2391 11.25 71.25V63.75M26.25 45H63.75" stroke="white" stroke-width="6.66667" stroke-linecap="round" stroke-linejoin="round"/>
</svg>
