<svg width="14" height="15" viewBox="0 0 14 15" fill="none" xmlns="http://www.w3.org/2000/svg">
<path d="M4.777 1.84209C5.25551 1.07373 6.0977 0.608887 7.00004 0.608887C7.90239 0.608887 8.74457 1.07373 9.22309 1.84209L10.2786 3.5292L11.0168 3.10264C11.2465 2.96865 11.5336 2.98779 11.7442 3.14912C11.9547 3.31045 12.0477 3.58389 11.9793 3.84092L11.3395 6.23076C11.2465 6.58076 10.8856 6.78857 10.5356 6.69561L8.14575 6.05576C7.88871 5.9874 7.70004 5.77139 7.6645 5.50889C7.62895 5.24639 7.75746 4.98662 7.98715 4.85537L8.76371 4.40693L7.73832 2.76904C7.57973 2.51475 7.30082 2.35889 7.00004 2.35889C6.69926 2.35889 6.42035 2.51475 6.26176 2.76904L5.78325 3.53467C5.53168 3.93936 5.00121 4.06787 4.59106 3.82178C4.1727 3.57021 4.03871 3.02334 4.29848 2.60771L4.777 1.84209ZM11.7442 7.49678C12.1543 7.25068 12.6848 7.3792 12.9364 7.78389L13.6036 8.85303C13.8606 9.26592 13.9973 9.73897 14.0028 10.2257C14.011 11.6776 12.8352 12.8616 11.3832 12.8616L8.75004 12.8589V13.7339C8.75004 13.9991 8.59145 14.2397 8.34536 14.3409C8.09926 14.4421 7.81762 14.3874 7.62895 14.1987L5.87895 12.4487C5.62192 12.1917 5.62192 11.7761 5.87895 11.5218L7.62895 9.77178C7.81762 9.58311 8.09926 9.52842 8.34536 9.62959C8.59145 9.73076 8.75004 9.97139 8.75004 10.2366V11.1116H11.3805C11.8618 11.1116 12.2528 10.7179 12.25 10.2366C12.25 10.0753 12.2036 9.9167 12.1188 9.77998L11.4516 8.71084C11.1918 8.29521 11.3231 7.74834 11.7442 7.49678ZM1.77465 6.64912L0.984418 6.19248C0.75473 6.0585 0.626215 5.80146 0.661761 5.53896C0.697308 5.27646 0.88598 5.06045 1.14301 4.99209L3.53286 4.35225C3.88285 4.25928 4.24379 4.46709 4.33676 4.81709L4.9766 7.2042C5.04496 7.46123 4.952 7.73193 4.74145 7.896C4.5309 8.06006 4.24379 8.07646 4.01411 7.94248L3.2895 7.52412L1.88129 9.77725C1.79653 9.91396 1.75004 10.0726 1.75004 10.2339C1.74731 10.7151 2.13832 11.1089 2.61957 11.1089H3.50004C3.98403 11.1089 4.37504 11.4999 4.37504 11.9839C4.37504 12.4679 3.98403 12.8589 3.50004 12.8589H2.61957C1.16762 12.8589 -0.00816046 11.6776 4.26638e-05 10.2229C0.00277704 9.73623 0.139496 9.26318 0.399261 8.85029L1.77465 6.64912Z" fill="#0AC2A6"/>
</svg>
