<svg width="18" height="18" viewBox="0 0 18 18" fill="none" xmlns="http://www.w3.org/2000/svg">
<path d="M0.525543 9.53293H2.0279C2.28697 12.9671 5.04033 15.7278 8.46708 15.9869V17.4671C8.46708 17.7631 8.69658 18 8.99261 18C9.29604 18 9.52554 17.7631 9.52554 17.4671V15.9869C12.9523 15.7278 15.7057 12.9671 15.9647 9.53261H17.4671C17.5371 9.53295 17.6066 9.51941 17.6714 9.49276C17.7361 9.46612 17.795 9.42691 17.8446 9.37739C17.8941 9.32787 17.9334 9.26902 17.96 9.20425C17.9867 9.13947 18.0003 9.07005 18 9C18 8.70396 17.7631 8.47446 17.4671 8.47446H15.9647C15.7057 5.04032 12.9523 2.27957 9.52554 2.0205V0.532929C9.52554 0.236893 9.29572 0 8.99261 0C8.69658 0 8.46708 0.236893 8.46708 0.532929V2.0205C5.04033 2.27957 2.28697 5.04032 2.0279 8.47479H0.525543C0.229507 8.47446 0.0321503 8.70364 0.0321503 9C0.0321503 9.29636 0.229507 9.53293 0.525543 9.53293ZM8.99261 6.07661C9.29604 6.07661 9.52554 5.83971 9.52554 5.54368V3.22714C12.3085 3.4785 14.4694 5.66196 14.714 8.47446H12.4563C12.1606 8.47446 11.9234 8.70396 11.9234 9C11.9234 9.29604 12.1603 9.53293 12.4563 9.53293H14.714C14.4698 12.338 12.3085 14.5215 9.52554 14.7732V12.4563C9.52554 12.1606 9.29604 11.9308 8.99261 11.9308C8.69658 11.9308 8.46708 12.1603 8.46708 12.4563V14.7732C5.68415 14.5215 3.52319 12.338 3.2789 9.53293H5.53629C5.83201 9.53293 6.06922 9.29604 6.06922 9C6.06922 8.70396 5.83233 8.47446 5.53629 8.47446H3.27858C3.52286 5.66196 5.68383 3.4785 8.46676 3.22714V5.54368C8.46676 5.83939 8.69658 6.07661 8.99261 6.07661Z" fill="#2F2F2E"/>
</svg>
