<svg width="24" height="25" viewBox="0 0 24 25" fill="none" xmlns="http://www.w3.org/2000/svg">
<path d="M9.5 16.8721C7.68333 16.8721 6.146 16.2427 4.888 14.9841C3.63 13.7254 3.00067 12.1881 3 10.3721C2.99933 8.55607 3.62867 7.01874 4.888 5.76007C6.14733 4.5014 7.68467 3.87207 9.5 3.87207C11.3153 3.87207 12.853 4.5014 14.113 5.76007C15.373 7.01874 16.002 8.55607 16 10.3721C16 11.1054 15.8833 11.7971 15.65 12.4471C15.4167 13.0971 15.1 13.6721 14.7 14.1721L20.3 19.7721C20.4833 19.9554 20.575 20.1887 20.575 20.4721C20.575 20.7554 20.4833 20.9887 20.3 21.1721C20.1167 21.3554 19.8833 21.4471 19.6 21.4471C19.3167 21.4471 19.0833 21.3554 18.9 21.1721L13.3 15.5721C12.8 15.9721 12.225 16.2887 11.575 16.5221C10.925 16.7554 10.2333 16.8721 9.5 16.8721ZM9.5 14.8721C10.75 14.8721 11.8127 14.4347 12.688 13.5601C13.5633 12.6854 14.0007 11.6227 14 10.3721C13.9993 9.1214 13.562 8.05907 12.688 7.18507C11.814 6.31107 10.7513 5.8734 9.5 5.87207C8.24867 5.87074 7.18633 6.3084 6.313 7.18507C5.43967 8.06174 5.002 9.12407 5 10.3721C4.998 11.6201 5.43567 12.6827 6.313 13.5601C7.19033 14.4374 8.25267 14.8747 9.5 14.8721Z" fill="#A3A6A8"/>
</svg>
