<svg width="24" height="24" viewBox="0 0 24 24" fill="none" xmlns="http://www.w3.org/2000/svg">
<path d="M14.9708 18.8597C14.8675 19.574 14.5104 20.2272 13.9648 20.6996C13.4192 21.1721 12.7216 21.4321 11.9999 21.4321C11.2782 21.4321 10.5806 21.1721 10.035 20.6996C9.48939 20.2272 9.13226 19.574 9.02904 18.8597H14.9708ZM11.9999 2.57227C13.8946 2.57209 15.7149 3.31003 17.0746 4.62956C18.4342 5.94909 19.2264 7.7464 19.283 9.64027V9.85884H19.2865V13.3834L20.4985 16.5068C20.531 16.5914 20.553 16.6788 20.5645 16.7691L20.573 16.9037C20.5732 17.1755 20.4724 17.4376 20.2903 17.6394C20.1082 17.8411 19.8577 17.9681 19.5873 17.9957L19.4759 18.0008H4.52132C4.35231 18.001 4.18555 17.962 4.03406 17.8871C3.88257 17.8122 3.75043 17.7033 3.64797 17.5689C3.5455 17.4344 3.47547 17.2782 3.44334 17.1122C3.41122 16.9463 3.41786 16.7752 3.46275 16.6123L3.49875 16.506L4.71247 13.3826V9.85969C4.71224 8.90263 4.90058 7.9549 5.26673 7.07065C5.63288 6.1864 6.16966 5.38295 6.8464 4.7062C7.52315 4.02946 8.3266 3.49268 9.21085 3.12653C10.0951 2.76038 11.0428 2.57204 11.9999 2.57227Z" fill="#A3A6A8"/>
</svg>
