<svg width="111" height="106" viewBox="0 0 111 106" fill="none" xmlns="http://www.w3.org/2000/svg">
<path d="M84.175 0C98.99 0 111 12.0726 111 26.9649V79.1586C111 93.9826 99.0449 106 84.2979 106H26.7021C11.9551 106 0.000276359 93.9826 0 79.1586V39.9825C1.50484e-06 25.0902 12.01 13.0175 26.825 13.0175C41.1606 13.0175 52.8693 24.3215 53.6121 38.546H57.35V26.9649C57.35 12.0726 69.36 1.79714e-07 84.175 0Z" fill="white"/>
<path d="M72.7935 32.1263C73.7804 31.8605 74.8008 32.4476 75.0725 33.4377C75.3443 34.4277 74.7645 35.4458 73.7776 35.7117L39.4205 44.9657C38.4336 45.2315 37.4132 44.6444 37.1415 43.6543C36.8697 42.6642 37.4495 41.6461 38.4364 41.3803L72.7935 32.1263Z" fill="#0AC2A6"/>
</svg>
