<svg width="368" height="443" viewBox="0 0 368 443" fill="none" xmlns="http://www.w3.org/2000/svg">
<path d="M15.1127 331.986C15.2048 331.441 15.7209 331.075 16.2655 331.167L64.4749 339.319L73.3506 351.884L84.0014 366.962L72.8904 432.666C72.7983 433.21 72.2822 433.577 71.7377 433.485L0.985999 421.52C0.441446 421.428 0.0746484 420.912 0.166736 420.368L15.1127 331.986Z" fill="#F8F8F8"/>
<path d="M73.1312 431.249C72.9069 432.575 71.6491 433.468 70.3227 433.245L2.40245 421.759C1.07576 421.534 0.182068 420.277 0.406423 418.95L1.07648 414.988C22.0355 418.052 58.2143 415.584 80.3218 388.728L73.1312 431.249Z" fill="#E0E8DA"/>
<path d="M83.9877 366.956L64.4848 339.321L60.8172 361.009C60.633 362.098 61.3666 363.13 62.4557 363.315L83.9877 366.956Z" fill="#D4DAD2"/>
<g opacity="0.5">
<g filter="url(#filter0_i_1919_7146)">
<path d="M319.587 352.829L276.95 372.697L275.232 383.513C275.127 384.172 275.222 384.848 275.504 385.453L308.091 455.381C308.341 455.918 308.794 456.333 309.35 456.536L315.23 458.678C317.722 459.585 320.472 459.466 322.876 458.346L355.563 443.113C357.967 441.993 359.828 439.964 360.736 437.472L362.877 431.592C363.08 431.036 363.053 430.422 362.803 429.885L330.212 359.948C329.933 359.348 329.482 358.845 328.916 358.501L319.587 352.829Z" fill="#EAEAEA"/>
</g>
<rect x="273.188" y="369.544" width="51.4413" height="4.44688" rx="2.22344" transform="rotate(-24.9856 273.188 369.544)" fill="#C7C7C7"/>
<g filter="url(#filter1_i_1919_7146)">
<rect x="275.773" y="386.029" width="60.3613" height="76.1123" transform="rotate(-24.9856 275.773 386.029)" fill="#F9926C"/>
</g>
<rect x="281.176" y="388.378" width="6.54148" height="67.3062" rx="3.27074" transform="rotate(-24.9856 281.176 388.378)" fill="white" fill-opacity="0.3"/>
</g>
<g opacity="0.5">
<path d="M181.18 466.407C179.466 470.479 174.775 472.39 170.703 470.675L145.52 460.071C141.448 458.357 139.537 453.666 141.252 449.594L153.78 419.841C154.559 417.992 155.705 416.32 157.15 414.926L158.004 414.102C158.588 413.539 158.916 412.761 158.911 411.95L158.903 410.81C158.89 408.773 159.298 406.755 160.1 404.882L170.254 381.17L170.266 381.175C171.287 379.354 172.514 377.659 174.014 376.201C178.161 372.172 182.284 369.683 189.389 366.643C190.084 366.345 190.643 365.791 190.936 365.094L192.72 360.858L208.691 367.584L206.939 371.746C206.627 372.486 206.641 373.325 206.963 374.062C210.064 381.163 211.032 385.85 210.876 391.907C210.824 393.929 210.454 395.919 209.869 397.852L209.881 397.857L199.994 421.688C199.214 423.566 198.057 425.263 196.594 426.675L195.769 427.471C195.185 428.034 194.857 428.812 194.862 429.623L194.87 430.81C194.883 432.817 194.488 434.805 193.709 436.655L181.18 466.407Z" fill="#C3F3FB"/>
<path d="M206.938 371.747C206.627 372.487 206.642 373.326 206.963 374.063C210.064 381.164 211.034 385.85 210.878 391.907C210.826 393.929 210.453 395.918 209.869 397.851L209.882 397.856L200.307 420.937C199.322 423.31 197.858 425.456 196.009 427.239C195.272 427.95 194.859 428.937 194.866 429.961C194.882 432.521 194.377 435.069 193.384 437.428L181.438 465.796C179.581 470.205 174.501 472.273 170.09 470.416L163.437 467.615C167.847 469.471 172.927 467.403 174.785 462.994L186.73 434.626C187.724 432.267 188.226 429.718 188.21 427.159C188.204 426.134 188.619 425.149 189.356 424.437C191.205 422.654 192.666 420.507 193.651 418.135L203.226 395.054L203.216 395.05C203.8 393.117 204.17 391.127 204.222 389.104C204.378 383.048 203.409 378.361 200.307 371.26C199.986 370.524 199.974 369.686 200.285 368.945L202.038 364.782L208.692 367.583L206.938 371.747Z" fill="#82CDDB"/>
<path d="M194.15 353.744C194.793 352.217 196.552 351.501 198.079 352.144L211.183 357.661C212.71 358.304 213.426 360.064 212.783 361.591L209.694 368.927C209.567 369.229 209.219 369.37 208.918 369.243L191.377 361.857C191.075 361.73 190.934 361.382 191.061 361.081L194.15 353.744Z" fill="#4B98A7"/>
<path d="M156.732 420.568C157.245 419.324 158.668 418.732 159.912 419.245C161.156 419.758 161.748 421.182 161.235 422.425L148.486 453.332C147.973 454.575 146.549 455.168 145.306 454.655C144.062 454.142 143.469 452.718 143.982 451.475L156.732 420.568Z" fill="white" fill-opacity="0.4"/>
<path d="M173.065 382.198C173.585 380.957 175.013 380.372 176.254 380.892C177.495 381.412 178.078 382.841 177.558 384.082L166.787 409.774C166.267 411.015 164.839 411.6 163.598 411.08C162.357 410.56 161.772 409.132 162.292 407.891L173.065 382.198Z" fill="white" fill-opacity="0.4"/>
<path d="M161.728 414.404L193.524 427.792" stroke="#82CDDB" stroke-width="0.592742" stroke-linecap="round"/>
<path d="M173.981 381.172L207.255 395.183" stroke="#82CDDB" stroke-width="0.592742" stroke-linecap="round"/>
<path d="M167.255 397.143L200.529 411.154" stroke="#82CDDB" stroke-width="0.592742" stroke-linecap="round"/>
<path d="M151.002 435.741L184.276 449.753" stroke="#82CDDB" stroke-width="0.592742" stroke-linecap="round"/>
</g>
<g opacity="0.5">
<path d="M123.015 113.059C124.11 112.151 125.543 111.745 126.95 111.947C136.391 113.307 145.958 110.019 152.571 103.145C153.556 102.121 154.936 101.561 156.358 101.604L170.389 102.035C171.047 102.055 171.694 102.205 172.29 102.475L197.582 119.311C200.74 120.741 201.426 124.869 198.905 127.273L185.96 140.666L199.347 179.634L138.229 200.631L125.026 162.2L105.198 159.465C101.732 159.118 99.7343 155.44 101.347 152.372L110.981 123.537C111.286 122.957 111.704 122.442 112.211 122.021L123.015 113.059Z" fill="#F28FA7"/>
<path opacity="0.54" d="M154.274 101.985C154.928 101.715 155.637 101.581 156.358 101.603L166.072 101.901L176.393 131.943C189.406 166.763 155.577 189.93 137.037 197.161L111.481 122.773C111.697 122.499 111.94 122.244 112.21 122.02L123.014 113.058C123.9 112.323 125.008 111.923 126.143 111.902L128.075 117.524C130.707 125.185 139.155 129.227 146.945 126.551C154.734 123.875 158.915 115.494 156.283 107.833L154.274 101.985Z" fill="#F7BAC7"/>
</g>
<g opacity="0.5">
<path d="M256.247 96.2798C256.452 94.0802 258.402 92.4635 260.602 92.6688L308.225 97.1138C310.424 97.3191 312.041 99.2686 311.836 101.468L310.911 111.383L255.322 106.194L256.247 96.2798Z" fill="#C4DFFF"/>
<path d="M255.322 106.194L310.911 111.383L298.11 135.888L239.069 130.377L255.322 106.194Z" fill="#9BC3F3"/>
<path d="M298.108 135.888L310.909 111.382L325.069 134.899L298.108 135.888Z" fill="#85ADDE"/>
<path d="M298.108 135.888L306.166 120.657L325.069 134.899L298.108 135.888Z" fill="#5A87BD"/>
<path d="M239.046 130.374L298.109 135.887L293.063 189.954L238.017 183.199C235.869 182.935 234.32 181.011 234.522 178.857L239.046 130.374Z" fill="#C4DFFF"/>
<path d="M325.062 134.905L298.11 135.888L293.062 189.953L317.331 185.818C319.116 185.514 320.474 184.049 320.642 182.247L325.062 134.905Z" fill="#9BC3F3"/>
</g>
<g opacity="0.5">
<path d="M219.851 248.262L223.974 229.72L216.762 232.93L206.258 261.001L231.475 271.512L234.979 263.107L226.119 259.803C221.442 258.06 218.768 253.134 219.851 248.262Z" fill="#9B86EF"/>
<path d="M240.212 322.936L233.798 322.723L254.963 263.053C261.15 265.723 264.327 248.251 265.142 239.181C263.123 237.731 260.732 235.096 267.317 236.153C273.902 237.21 273.998 243.747 273.223 246.884C268.797 271.646 265.759 287.498 261.159 307.041C258.894 316.663 250.091 323.265 240.212 322.936Z" fill="#9B86EF"/>
<path d="M220.221 224.514L217.173 223.761C215.003 223.225 212.739 224.194 211.636 226.138C196.45 252.903 188.147 270.181 184.489 293.482C182.988 303.039 189.543 311.786 198.935 314.107L239.115 324.038C249.874 326.697 260.857 320.121 263.033 309.254C265.055 299.162 266.372 290.086 267.721 277.619C262.067 268.477 260.931 261.228 262.972 245.064C264.27 238.717 265.559 236.983 268.658 236.485L263.559 235.225C259.581 234.242 255.504 236.423 254.114 240.278L248.282 256.449C246.545 261.267 241.448 263.993 236.476 262.765L223.131 259.466C216.894 257.925 213.708 250.986 216.603 245.251L223.485 231.622C224.933 228.754 223.34 225.285 220.221 224.514Z" fill="#C4B9FF"/>
<path d="M194.129 286.567C195.393 287.025 196.048 288.421 195.591 289.685C195.021 291.26 194.637 293.946 195.417 296.618C196.161 299.169 198.01 301.879 202.249 303.688C203.487 304.217 204.061 305.648 203.533 306.885C203.005 308.123 201.573 308.699 200.335 308.171C194.755 305.789 191.892 301.935 190.739 297.983C189.62 294.153 190.151 290.398 191.008 288.028C191.466 286.763 192.863 286.109 194.129 286.567Z" fill="white" fill-opacity="0.3"/>
</g>
<g opacity="0.5">
<g filter="url(#filter2_i_1919_7146)">
<path d="M90.8226 218.811C92.4149 218.214 94.3055 219.33 95.0454 221.304L100.428 235.663C102.174 240.319 105.322 244.317 109.438 247.106L110.242 247.651C117.311 252.44 125.459 258.974 128.715 267.658L140.874 300.094C141.824 302.627 141.652 305.423 140.06 307.015C132.511 314.56 111.505 322.637 99.9246 322.514C97.4626 322.488 95.1961 320.402 94.1493 317.61L81.9896 285.174C78.7298 276.479 80.5915 266.202 82.7812 257.938L83.0957 256.751C84.3177 252.137 84.0741 247.257 82.3987 242.788L76.8955 228.108C76.1556 226.135 76.8469 224.051 78.4388 223.454L90.8226 218.811Z" fill="#A5ECA9"/>
</g>
<rect x="72.2062" y="221.941" width="23.8287" height="7.20461" rx="3.60231" transform="rotate(-20.5501 72.2062 221.941)" fill="#7AD57F"/>
<rect x="83.9943" y="281.094" width="5.85895" height="40.9071" rx="2.92947" transform="rotate(-20.5501 83.9943 281.094)" fill="white" fill-opacity="0.45"/>
</g>
<g opacity="0.5">
<path d="M311.566 235.403L346.672 296.899L382.506 282.965L366.845 213.907L364.366 207.533C363.766 205.989 362.027 205.224 360.483 205.825L310.796 225.146C309.252 225.746 308.487 227.485 309.087 229.029L311.566 235.403Z" fill="#FFDF80"/>
<path d="M324.796 258.578C338.685 268.372 358.753 277.002 380.055 272.168L382.506 282.96L346.669 296.895L324.796 258.578Z" fill="#FBD15C"/>
<g filter="url(#filter3_i_1919_7146)">
<path d="M346.678 296.903L382.502 282.973L388.05 297.239C388.65 298.783 387.885 300.522 386.341 301.123L356.109 312.879C354.564 313.479 352.826 312.714 352.225 311.17L346.678 296.903Z" fill="#F7F7F7"/>
</g>
<path d="M309.087 229.029C308.487 227.485 309.252 225.746 310.796 225.146L360.483 205.825C362.027 205.224 363.766 205.989 364.366 207.533L366.978 214.249L311.699 235.745L309.087 229.029Z" fill="#FBD15C"/>
</g>
<g opacity="0.8">
<rect x="316.04" y="57.5044" width="105.747" height="7.62793" rx="1" transform="rotate(-14.6425 316.04 57.5044)" fill="#E1ECEF"/>
<g filter="url(#filter4_i_1919_7146)">
<path d="M323.252 24.7859C323.37 23.5305 324.26 22.4829 325.48 22.1642L390.907 5.07006C392.066 4.76719 393.294 5.18308 394.031 6.1279L414.112 31.8809L320.28 56.3968L323.252 24.7859Z" fill="#EFF5F7"/>
</g>
<g filter="url(#filter5_i_1919_7146)">
<path d="M411.685 67.1069C411.585 68.3877 410.681 69.4627 409.436 69.7804L342.368 86.899C341.125 87.2163 339.818 86.708 339.115 85.6344L324.437 63.194L413.812 39.8427L411.685 67.1069Z" fill="#DAE3E6"/>
</g>
</g>
<defs>
<filter id="filter0_i_1919_7146" x="275.19" y="352.829" width="87.8216" height="106.453" filterUnits="userSpaceOnUse" color-interpolation-filters="sRGB">
<feFlood flood-opacity="0" result="BackgroundImageFix"/>
<feBlend mode="normal" in="SourceGraphic" in2="BackgroundImageFix" result="shape"/>
<feColorMatrix in="SourceAlpha" type="matrix" values="0 0 0 0 0 0 0 0 0 0 0 0 0 0 0 0 0 0 127 0" result="hardAlpha"/>
<feOffset dx="-4.46598"/>
<feComposite in2="hardAlpha" operator="arithmetic" k2="-1" k3="1"/>
<feColorMatrix type="matrix" values="0 0 0 0 0 0 0 0 0 0 0 0 0 0 0 0 0 0 0.15 0"/>
<feBlend mode="normal" in2="shape" result="effect1_innerShadow_1919_7146"/>
</filter>
<filter id="filter1_i_1919_7146" x="275.773" y="360.533" width="86.8615" height="94.4854" filterUnits="userSpaceOnUse" color-interpolation-filters="sRGB">
<feFlood flood-opacity="0" result="BackgroundImageFix"/>
<feBlend mode="normal" in="SourceGraphic" in2="BackgroundImageFix" result="shape"/>
<feColorMatrix in="SourceAlpha" type="matrix" values="0 0 0 0 0 0 0 0 0 0 0 0 0 0 0 0 0 0 127 0" result="hardAlpha"/>
<feOffset dx="-4.46598"/>
<feComposite in2="hardAlpha" operator="arithmetic" k2="-1" k3="1"/>
<feColorMatrix type="matrix" values="0 0 0 0 0.879808 0 0 0 0 0.457725 0 0 0 0 0.306664 0 0 0 1 0"/>
<feBlend mode="normal" in2="shape" result="effect1_innerShadow_1919_7146"/>
</filter>
<filter id="filter2_i_1919_7146" x="76.5987" y="218.65" width="64.8577" height="103.865" filterUnits="userSpaceOnUse" color-interpolation-filters="sRGB">
<feFlood flood-opacity="0" result="BackgroundImageFix"/>
<feBlend mode="normal" in="SourceGraphic" in2="BackgroundImageFix" result="shape"/>
<feColorMatrix in="SourceAlpha" type="matrix" values="0 0 0 0 0 0 0 0 0 0 0 0 0 0 0 0 0 0 127 0" result="hardAlpha"/>
<feOffset dx="-3"/>
<feComposite in2="hardAlpha" operator="arithmetic" k2="-1" k3="1"/>
<feColorMatrix type="matrix" values="0 0 0 0 0.550111 0 0 0 0 0.841346 0 0 0 0 0.5689 0 0 0 1 0"/>
<feBlend mode="normal" in2="shape" result="effect1_innerShadow_1919_7146"/>
</filter>
<filter id="filter3_i_1919_7146" x="346.678" y="282.973" width="41.5766" height="30.1104" filterUnits="userSpaceOnUse" color-interpolation-filters="sRGB">
<feFlood flood-opacity="0" result="BackgroundImageFix"/>
<feBlend mode="normal" in="SourceGraphic" in2="BackgroundImageFix" result="shape"/>
<feColorMatrix in="SourceAlpha" type="matrix" values="0 0 0 0 0 0 0 0 0 0 0 0 0 0 0 0 0 0 127 0" result="hardAlpha"/>
<feOffset dx="3" dy="-3"/>
<feComposite in2="hardAlpha" operator="arithmetic" k2="-1" k3="1"/>
<feColorMatrix type="matrix" values="0 0 0 0 0 0 0 0 0 0 0 0 0 0 0 0 0 0 0.09 0"/>
<feBlend mode="normal" in2="shape" result="effect1_innerShadow_1919_7146"/>
</filter>
<filter id="filter4_i_1919_7146" x="320.28" y="4.97247" width="93.8324" height="51.4243" filterUnits="userSpaceOnUse" color-interpolation-filters="sRGB">
<feFlood flood-opacity="0" result="BackgroundImageFix"/>
<feBlend mode="normal" in="SourceGraphic" in2="BackgroundImageFix" result="shape"/>
<feColorMatrix in="SourceAlpha" type="matrix" values="0 0 0 0 0 0 0 0 0 0 0 0 0 0 0 0 0 0 127 0" result="hardAlpha"/>
<feOffset dx="-3"/>
<feComposite in2="hardAlpha" operator="arithmetic" k2="-1" k3="1"/>
<feColorMatrix type="matrix" values="0 0 0 0 0.85098 0 0 0 0 0.890196 0 0 0 0 0.901961 0 0 0 0.7 0"/>
<feBlend mode="normal" in2="shape" result="effect1_innerShadow_1919_7146"/>
</filter>
<filter id="filter5_i_1919_7146" x="324.437" y="39.8427" width="89.3755" height="47.1497" filterUnits="userSpaceOnUse" color-interpolation-filters="sRGB">
<feFlood flood-opacity="0" result="BackgroundImageFix"/>
<feBlend mode="normal" in="SourceGraphic" in2="BackgroundImageFix" result="shape"/>
<feColorMatrix in="SourceAlpha" type="matrix" values="0 0 0 0 0 0 0 0 0 0 0 0 0 0 0 0 0 0 127 0" result="hardAlpha"/>
<feOffset dx="-3" dy="2"/>
<feComposite in2="hardAlpha" operator="arithmetic" k2="-1" k3="1"/>
<feColorMatrix type="matrix" values="0 0 0 0 0 0 0 0 0 0 0 0 0 0 0 0 0 0 0.1 0"/>
<feBlend mode="normal" in2="shape" result="effect1_innerShadow_1919_7146"/>
</filter>
</defs>
</svg>
