<svg width="60" height="60" viewBox="0 0 60 60" fill="none" xmlns="http://www.w3.org/2000/svg">
<path d="M0 30C0 13.4315 13.4315 0 30 0C46.5685 0 60 13.4315 60 30C60 46.5685 46.5685 60 30 60C13.4315 60 0 46.5685 0 30Z" fill="#F0F2F3"/>
<path fill-rule="evenodd" clip-rule="evenodd" d="M24.4702 17.2973C24.5774 17.0828 24.7422 16.9023 24.9462 16.7762C25.1501 16.65 25.3852 16.5831 25.625 16.583H33.375C33.6148 16.5831 33.8499 16.65 34.0538 16.7762C34.2578 16.9023 34.4226 17.0828 34.5297 17.2973L36.7566 21.7497H39.8333C40.1759 21.7497 40.5044 21.8858 40.7467 22.128C40.9889 22.3702 41.125 22.6988 41.125 23.0413C41.125 23.3839 40.9889 23.7125 40.7467 23.9547C40.5044 24.1969 40.1759 24.333 39.8333 24.333H38.5417V38.5413C38.5417 39.5691 38.1334 40.5547 37.4067 41.2814C36.68 42.0081 35.6944 42.4163 34.6667 42.4163H24.3333C23.3056 42.4163 22.32 42.0081 21.5933 41.2814C20.8666 40.5547 20.4583 39.5691 20.4583 38.5413V24.333H19.1667C18.8241 24.333 18.4956 24.1969 18.2533 23.9547C18.0111 23.7125 17.875 23.3839 17.875 23.0413C17.875 22.6988 18.0111 22.3702 18.2533 22.128C18.4956 21.8858 18.8241 21.7497 19.1667 21.7497H22.2434L24.4702 17.2973ZM32.5767 19.1663L33.8684 21.7497H25.1316L26.4233 19.1663H32.5767ZM28.2083 28.208C28.2083 27.8654 28.0722 27.5369 27.83 27.2947C27.5878 27.0524 27.2592 26.9163 26.9167 26.9163C26.5741 26.9163 26.2456 27.0524 26.0033 27.2947C25.7611 27.5369 25.625 27.8654 25.625 28.208V35.958C25.625 36.3006 25.7611 36.6291 26.0033 36.8714C26.2456 37.1136 26.5741 37.2497 26.9167 37.2497C27.2592 37.2497 27.5878 37.1136 27.83 36.8714C28.0722 36.6291 28.2083 36.3006 28.2083 35.958V28.208ZM33.375 28.208C33.375 27.8654 33.2389 27.5369 32.9967 27.2947C32.7544 27.0524 32.4259 26.9163 32.0833 26.9163C31.7408 26.9163 31.4122 27.0524 31.17 27.2947C30.9278 27.5369 30.7917 27.8654 30.7917 28.208V35.958C30.7917 36.3006 30.9278 36.6291 31.17 36.8714C31.4122 37.1136 31.7408 37.2497 32.0833 37.2497C32.4259 37.2497 32.7544 37.1136 32.9967 36.8714C33.2389 36.6291 33.375 36.3006 33.375 35.958V28.208Z" fill="#6F7274"/>
</svg>
