<svg width="64" height="63" viewBox="0 0 64 63" fill="none" xmlns="http://www.w3.org/2000/svg">
<rect x="0.706787" width="63" height="63" rx="5" fill="#E8E3FF"/>
<path d="M25.5627 22.1228L25.3791 14.3142L22.8215 16.3034L21.4006 28.523L32.4835 30.228L33.0518 26.5337L29.1824 26.0883C27.1553 25.8549 25.6106 24.1627 25.5627 22.1228Z" fill="#9B86EF"/>
<path d="M41.7811 49.6981L38.4519 50.4043L41.0095 24.5442C43.7376 24.9989 43.2829 17.724 42.7145 14.0297C41.7673 13.6509 40.5548 12.8363 43.2829 12.609C46.011 12.3816 46.693 14.9771 46.693 16.3033C47.3886 26.9245 47.7399 33.627 47.8178 42.2311C47.8505 45.8394 45.3109 48.9494 41.7811 49.6981Z" fill="#9B86EF"/>
<path d="M23.3813 12.6094H22.0762C21.1624 12.6094 20.3589 13.2161 20.1118 14.0959C16.8956 25.5477 15.2824 33.0456 15.803 41.9337C16.0921 46.8693 20.4494 50.4047 25.3935 50.4047H39.7057C44.8032 50.4047 48.9936 46.2555 48.7268 41.165C48.5262 37.3371 48.1631 33.7886 47.5275 29.0915C44.3744 26.0059 43.2077 23.2293 42.4291 16.5878C42.3214 13.9306 42.6644 13.113 43.85 12.6094H41.4984C39.9279 12.6094 38.6112 13.796 38.4485 15.358L37.7912 21.6687C37.52 24.2721 35.3256 26.2498 32.7081 26.2498H26.6695C24.6996 26.2498 23.2406 24.4187 23.6807 22.4985L25.3738 15.1102C25.6672 13.8301 24.6946 12.6094 23.3813 12.6094Z" fill="#C4B9FF"/>
<path d="M19.0849 39.9043C19.6338 39.9623 20.0322 40.4539 19.9745 41.0029C19.9026 41.6865 20.014 42.7945 20.5878 43.7822C21.1358 44.7253 22.1394 45.6233 24.0068 45.9267C24.5517 46.0154 24.9214 46.5292 24.8329 47.0742C24.7443 47.6193 24.2306 47.9899 23.6855 47.9013C21.2275 47.5019 19.7071 46.2479 18.8583 44.7871C18.0355 43.3709 17.8771 41.8226 17.9853 40.7939C18.0431 40.2447 18.5356 39.8465 19.0849 39.9043Z" fill="white" fill-opacity="0.3"/>
</svg>
