<svg width="60" height="60" viewBox="0 0 60 60" fill="none" xmlns="http://www.w3.org/2000/svg">
<path d="M0 30C0 13.4315 13.4315 0 30 0C46.5685 0 60 13.4315 60 30C60 46.5685 46.5685 60 30 60C13.4315 60 0 46.5685 0 30Z" fill="#F0F2F3"/>
<path d="M22.7501 23.2996C22.7501 21.6553 23.4033 20.0783 24.566 18.9155C25.7288 17.7528 27.3058 17.0996 28.9501 17.0996C30.5944 17.0996 32.1714 17.7528 33.3342 18.9155C34.4969 20.0783 35.1501 21.6553 35.1501 23.2996C35.1501 24.944 34.4969 26.5209 33.3342 27.6837C32.1714 28.8464 30.5944 29.4996 28.9501 29.4996C27.3058 29.4996 25.7288 28.8464 24.566 27.6837C23.4033 26.5209 22.7501 24.944 22.7501 23.2996ZM18.1001 34.1496C18.1001 32.4245 19.4997 31.0496 21.214 31.0496H30.8984C29.6365 32.5756 28.9473 34.4945 28.9501 36.4746C28.9501 38.4943 29.6522 40.3496 30.8256 41.8113C30.2128 41.8702 29.5877 41.8996 28.9501 41.8996C26.0748 41.8996 23.3964 41.3013 21.4093 40.035C19.3912 38.7485 18.1001 36.7691 18.1001 34.1496ZM44.4501 36.4746C44.4501 38.3245 43.7152 40.0986 42.4072 41.4067C41.0991 42.7147 39.325 43.4496 37.4751 43.4496C35.6252 43.4496 33.8511 42.7147 32.543 41.4067C31.235 40.0986 30.5001 38.3245 30.5001 36.4746C30.5001 34.6247 31.235 32.8506 32.543 31.5425C33.8511 30.2345 35.6252 29.4996 37.4751 29.4996C39.325 29.4996 41.0991 30.2345 42.4072 31.5425C43.7152 32.8506 44.4501 34.6247 44.4501 36.4746ZM40.3488 34.6983C40.4943 34.5528 40.5761 34.3554 40.5761 34.1496C40.5761 33.9438 40.4943 33.7464 40.3488 33.6009C40.2033 33.4554 40.0059 33.3736 39.8001 33.3736C39.5943 33.3736 39.3969 33.4554 39.2514 33.6009L37.4751 35.3788L35.6988 33.6009C35.5533 33.4554 35.3559 33.3736 35.1501 33.3736C34.9443 33.3736 34.7469 33.4554 34.6014 33.6009C34.4559 33.7464 34.3741 33.9438 34.3741 34.1496C34.3741 34.3554 34.4559 34.5528 34.6014 34.6983L36.3792 36.4746L34.6014 38.2509C34.5293 38.323 34.4722 38.4085 34.4332 38.5027C34.3942 38.5968 34.3741 38.6977 34.3741 38.7996C34.3741 38.9015 34.3942 39.0024 34.4332 39.0966C34.4722 39.1907 34.5293 39.2763 34.6014 39.3483C34.6735 39.4204 34.759 39.4775 34.8531 39.5165C34.9473 39.5555 35.0482 39.5756 35.1501 39.5756C35.252 39.5756 35.3529 39.5555 35.4471 39.5165C35.5412 39.4775 35.6267 39.4204 35.6988 39.3483L37.4751 37.5705L39.2514 39.3483C39.3235 39.4204 39.409 39.4775 39.5031 39.5165C39.5973 39.5555 39.6982 39.5756 39.8001 39.5756C39.902 39.5756 40.0029 39.5555 40.0971 39.5165C40.1912 39.4775 40.2767 39.4204 40.3488 39.3483C40.4209 39.2763 40.478 39.1907 40.517 39.0966C40.556 39.0024 40.5761 38.9015 40.5761 38.7996C40.5761 38.6977 40.556 38.5968 40.517 38.5027C40.478 38.4085 40.4209 38.323 40.3488 38.2509L38.5709 36.4746L40.3488 34.6983Z" fill="#6F7274"/>
</svg>
